<svg width="32" height="32" viewBox="0 0 32 32" fill="none" xmlns="http://www.w3.org/2000/svg">
<path fill-rule="evenodd" clip-rule="evenodd" d="M18 4H14C13.7347 4 13.4804 4.10536 13.2928 4.29289C13.1053 4.48043 13 4.73478 13 5V6H19V5C19 4.73478 18.8946 4.48043 18.7071 4.29289C18.5195 4.10536 18.2652 4 18 4ZM22 6V5C22 3.93913 21.5785 2.92172 20.8284 2.17157C20.0782 1.42143 19.0608 1 18 1H14C12.9391 1 11.9217 1.42143 11.1715 2.17157C10.4214 2.92172 9.99995 3.93913 9.99995 5V6H4.50195C4.10413 6 3.7226 6.15804 3.44129 6.43934C3.15999 6.72064 3.00195 7.10218 3.00195 7.5C3.00195 7.89782 3.15999 8.27936 3.44129 8.56066C3.7226 8.84196 4.10413 9 4.50195 9H5.12595L5.75995 24.25C5.82446 25.7969 6.48442 27.2589 7.60187 28.3305C8.71931 29.4021 10.2077 30.0003 11.756 30H20.246C21.7938 29.9998 23.2817 29.4014 24.3988 28.3299C25.5158 27.2583 26.1755 25.7965 26.24 24.25L26.876 9H27.5C27.8978 9 28.2793 8.84196 28.5606 8.56066C28.8419 8.27936 29 7.89782 29 7.5C29 7.10218 28.8419 6.72064 28.5606 6.43934C28.2793 6.15804 27.8978 6 27.5 6H22ZM23.872 9H8.12795L8.75795 24.124C8.78996 24.8976 9.11983 25.6289 9.67858 26.1649C10.2373 26.7009 10.9817 27.0001 11.756 27H20.246C21.0199 26.9996 21.7637 26.7002 22.3221 26.1642C22.8804 25.6283 23.21 24.8973 23.242 24.124L23.872 9ZM11.5 13V23C11.5 23.3978 11.658 23.7794 11.9393 24.0607C12.2206 24.342 12.6021 24.5 13 24.5C13.3978 24.5 13.7793 24.342 14.0606 24.0607C14.3419 23.7794 14.5 23.3978 14.5 23V13C14.5 12.6022 14.3419 12.2206 14.0606 11.9393C13.7793 11.658 13.3978 11.5 13 11.5C12.6021 11.5 12.2206 11.658 11.9393 11.9393C11.658 12.2206 11.5 12.6022 11.5 13ZM19 11.5C19.3978 11.5 19.7793 11.658 20.0606 11.9393C20.3419 12.2206 20.5 12.6022 20.5 13V23C20.5 23.3978 20.3419 23.7794 20.0606 24.0607C19.7793 24.342 19.3978 24.5 19 24.5C18.6021 24.5 18.2206 24.342 17.9393 24.0607C17.658 23.7794 17.5 23.3978 17.5 23V13C17.5 12.6022 17.658 12.2206 17.9393 11.9393C18.2206 11.658 18.6021 11.5 19 11.5Z" fill="black"/>
</svg>
