<svg width="1379" height="324" viewBox="0 0 1379 324" fill="none" xmlns="http://www.w3.org/2000/svg">
<path d="M551.077 297.712C549.844 297.712 549.022 296.895 549.022 295.669C549.022 294.443 549.844 294.035 551.077 293.626C564.234 289.949 573.661 285.046 573.661 271.971V119.245C573.661 106.171 564.204 101.267 551.077 97.5901C549.844 97.1815 549.022 96.7729 549.022 95.5472C549.022 94.3214 549.844 93.0956 551.077 93.5042C563.823 95.5472 573.279 96.3644 583.117 96.3644C592.955 96.3644 602.441 95.5472 614.746 93.5042V157.624C627.08 98.8159 668.576 80.8671 699.382 80.8671C744.167 80.8671 755.679 118.837 755.679 157.624C768.013 98.8159 809.509 80.8671 841.549 80.8671C882.634 80.8671 896.613 110.665 896.613 147.03V271.971C896.613 285.046 906.069 289.949 919.196 293.626C920.43 294.035 921.252 294.443 921.252 295.669C921.252 296.895 920.43 297.712 919.196 297.712C902.339 295.669 889.212 294.443 876.056 294.443C862.899 294.443 849.772 295.669 832.915 297.712C831.682 297.712 830.859 296.895 830.859 295.669C830.859 294.443 831.682 294.035 832.915 293.626C846.072 289.949 855.499 285.046 855.499 271.971V158.062C855.499 113.554 835.764 99.6623 815.647 99.6623C778.674 99.6623 756.061 148.255 755.65 191.128V271.971C755.65 285.046 765.106 289.949 778.233 293.626C779.467 294.035 780.289 294.443 780.289 295.669C780.289 296.895 779.467 297.712 778.233 297.712C761.376 295.669 748.249 294.443 735.093 294.443C721.936 294.443 708.809 295.669 691.952 297.712C690.719 297.712 689.896 296.895 689.896 295.669C689.896 294.443 690.719 294.035 691.952 293.626C705.109 289.949 714.565 285.046 714.565 271.971V158.062C714.565 113.554 694.83 99.6623 674.714 99.6623C641.029 99.6623 615.127 148.255 614.716 191.128V271.971C614.716 285.046 624.172 289.949 637.3 293.626C638.533 294.035 639.355 294.443 639.355 295.669C639.355 296.895 638.533 297.712 637.3 297.712C620.443 295.669 607.316 294.443 594.159 294.443C581.003 294.443 567.875 295.669 551.019 297.712H551.077Z" fill="#2C2829"/>
<path d="M980.868 74.7674C939.372 74.7674 939.372 15.9595 980.868 15.9595C1022.36 15.9595 1022.36 74.7674 980.868 74.7674ZM938.549 297.712C937.316 297.712 936.494 296.895 936.494 295.669C936.494 294.443 937.316 294.035 938.549 293.626C951.706 289.949 961.133 285.046 961.133 271.971V119.245C961.133 106.171 951.676 101.676 938.549 97.5901C937.316 97.1815 936.494 96.7729 936.494 95.5472C936.494 94.3214 937.316 93.0956 938.549 93.5042C950.884 95.5472 960.751 96.3644 970.589 96.3644C980.427 96.3644 989.913 95.5472 1002.22 93.5042V271.942C1002.22 285.017 1011.67 289.92 1024.8 293.597C1026.03 294.006 1026.86 294.414 1026.86 295.64C1026.86 296.866 1026.03 297.683 1024.8 297.683C1007.94 295.64 994.817 294.414 981.66 294.414C968.504 294.414 955.377 295.64 938.52 297.683L938.549 297.712Z" fill="#2C2829"/>
<path d="M1333.01 74.7674C1291.51 74.7674 1291.51 15.9595 1333.01 15.9595C1374.51 15.9595 1374.51 74.7674 1333.01 74.7674ZM1290.69 297.712C1289.46 297.712 1288.64 296.895 1288.64 295.669C1288.64 294.443 1289.46 294.035 1290.69 293.626C1303.85 289.949 1313.28 285.046 1313.28 271.971V119.245C1313.28 106.171 1303.82 101.676 1290.69 97.5901C1289.46 97.1815 1288.64 96.7729 1288.64 95.5472C1288.64 94.3214 1289.46 93.0956 1290.69 93.5042C1303.03 95.5472 1312.89 96.3644 1322.73 96.3644C1332.57 96.3644 1342.06 95.5472 1354.36 93.5042V271.942C1354.36 285.017 1363.82 289.92 1376.94 293.597C1378.18 294.006 1379 294.414 1379 295.64C1379 296.866 1378.18 297.683 1376.94 297.683C1360.09 295.64 1346.96 294.414 1333.8 294.414C1320.65 294.414 1307.52 295.64 1290.66 297.683L1290.69 297.712Z" fill="#2C2829"/>
<path d="M1044.15 297.712C1042.92 297.712 1042.1 296.895 1042.1 295.669C1042.1 294.443 1042.92 294.035 1044.15 293.626C1057.31 289.949 1066.74 285.046 1066.74 271.971V119.245C1066.74 106.171 1057.28 101.267 1044.15 97.5901C1042.92 97.1815 1042.1 96.7729 1042.1 95.5472C1042.1 94.3214 1042.92 93.0956 1044.15 93.5042C1056.9 95.5472 1066.36 96.3644 1076.19 96.3644C1086.03 96.3644 1095.52 95.5472 1107.82 93.5042V157.624C1120.16 98.8159 1161.65 80.8671 1193.69 80.8671C1234.78 80.8671 1248.76 110.665 1248.76 147.03V271.971C1248.76 285.046 1258.21 289.949 1271.34 293.626C1272.57 294.035 1273.4 294.443 1273.4 295.669C1273.4 296.895 1272.57 297.712 1271.34 297.712C1254.48 295.669 1241.36 294.443 1228.2 294.443C1215.04 294.443 1201.92 295.669 1185.06 297.712C1183.82 297.712 1183 296.895 1183 295.669C1183 294.443 1183.82 294.035 1185.06 293.626C1198.21 289.949 1207.67 285.046 1207.67 271.971V158.062C1207.67 113.554 1187.94 99.6623 1167.82 99.6623C1130.85 99.6623 1108.23 148.255 1107.82 191.128V271.971C1107.82 285.046 1117.28 289.949 1130.41 293.626C1131.64 294.035 1132.46 294.443 1132.46 295.669C1132.46 296.895 1131.64 297.712 1130.41 297.712C1113.55 295.669 1100.42 294.443 1087.27 294.443C1074.11 294.443 1060.98 295.669 1044.12 297.712H1044.15Z" fill="#2C2829"/>
<path d="M302.278 87.1419C332.643 87.1419 343.627 109.089 332.643 155.231L306.066 263.799C318.077 259.071 332.262 248.944 341.923 236.103C340.073 174.931 398.103 87.2294 475.633 87.2294C571.106 87.2294 545.85 171.516 490.463 178.695C465.824 181.731 409.938 173.034 390.262 201.752C380.395 244.625 386.679 283.382 426.619 283.382C426.824 283.382 427 283.382 427.206 283.382C450.171 283.003 469.906 270.161 493.87 249.732C494.604 249.119 495.25 248.856 495.779 248.856C497.218 248.856 497.658 250.724 495.984 252.359C454.018 292.079 425.444 293.947 407.706 293.947C405.885 293.947 404.153 293.947 402.567 293.947C364.536 293.947 346.152 272.846 342.569 244.128C323.246 273.051 294.789 294.035 273.468 294.035C258.285 294.035 252.97 282.682 257.904 263.011L282.19 163.899C289.767 132.116 287.888 115.101 272.323 115.101C246.127 115.101 208.185 171.837 192.62 245.208L183.898 287.585H134.179L163.781 163.899C171.358 132.875 169.097 115.101 154.296 115.101C128.1 115.101 89.7758 171.837 74.2112 245.208L65.1073 287.585H13.8614C19.5586 270.191 25.2559 249.002 31.3055 221.014L53.6834 116.619C38.8823 122.281 23.3176 136.29 13.832 152.925L8.13474 150.649C26.7242 114.722 60.4966 87.1127 84.4016 87.1127C100.348 87.1127 105.664 97.3275 101.493 117.757L87.074 183.19C109.834 127.592 145.515 87.1127 184.221 87.1127C213.06 87.1127 224.454 109.06 212.678 155.201L204.719 185.846C226.745 129.11 262.779 87.1127 302.248 87.1127M392.318 193.813C412.287 168.481 457.836 166.613 477.16 157.157C505.969 143.031 514.309 90.9651 478.775 90.9651C476.279 90.9651 473.548 91.2278 470.611 91.7823C436.016 98.203 404.946 147.351 392.318 193.843M302.278 81.3049C273.351 81.3049 245.041 101.705 222.164 137.69C224.719 118.37 222.252 103.807 214.704 94.2047C208.009 85.6534 197.759 81.334 184.25 81.334C155.118 81.334 126.162 102.493 102.727 139.617L107.249 119.07C110.069 105.207 108.894 95.4013 103.608 89.0097C99.4377 83.9315 92.9768 81.3632 84.431 81.3632C58.0885 81.3632 22.2898 110.665 2.93673 148.08L0 153.771L16.4457 160.338L18.9713 155.902C25.4614 144.52 35.182 134.247 45.3725 127.592L25.5789 219.905C19.911 246.084 14.2431 267.681 8.28158 285.892L5.78536 293.539H69.8648L70.8633 288.927L79.9671 246.551C87.1621 212.609 99.702 180.417 115.237 155.873C128.834 134.393 143.812 121.055 154.296 121.055C157.379 121.055 158.642 122.164 159.406 123.156C161.315 125.579 165.015 134.247 158.055 162.644L128.453 286.359L126.72 293.539H188.655L189.625 288.869L198.347 246.492C205.542 212.55 217.993 180.359 233.441 155.844C246.95 134.393 261.839 121.055 272.294 121.055C275.818 121.055 277.198 122.222 278.02 123.244C280.781 126.717 282.748 136.348 276.464 162.673L252.177 261.727C248.8 275.152 249.798 285.396 255.084 292.109C257.904 295.698 263.366 299.959 273.439 299.959C293.937 299.959 319.428 283.616 339.545 258.283C347.797 284.9 370.145 299.872 402.538 299.872H404.916C405.827 299.872 406.737 299.872 407.706 299.872C422.86 299.872 454.4 299.872 500.037 256.678C502.768 254.022 503.649 250.52 502.386 247.485C501.3 244.829 498.686 243.107 495.779 243.107C494.398 243.107 492.284 243.486 490.081 245.354C466.999 265.025 448.439 277.253 427.118 277.604H426.648C415.048 277.604 406.59 274.101 400.834 266.922C391.202 254.898 389.41 232.659 395.754 204.203C409.38 185.787 443.358 185.554 468.261 185.408C477.219 185.35 484.942 185.291 491.197 184.532C525.704 180.067 547.113 150.298 545.497 125.287C544.822 114.984 537.803 81.4216 475.662 81.4216C443.534 81.4216 411.377 96.2184 385.181 123.04C354.816 154.122 335.698 197.491 336.05 234.176C330.323 241.385 322.776 247.981 314.817 252.884L338.37 156.661C345.389 127.271 343.95 106.9 333.994 94.3798C327.122 85.741 316.462 81.3632 302.307 81.3632L302.278 81.3049ZM404.358 175.923C418.601 138.77 444.268 102.581 471.697 97.4734C474.223 97.0064 476.602 96.7729 478.775 96.7729C488.055 96.7729 493.752 100.946 495.691 109.206C498.892 122.894 490.551 144.053 474.546 151.904C468.878 154.676 460.009 156.923 450.612 159.287C435.811 163.023 418.484 167.401 404.329 175.923H404.358Z" fill="#2C2829"/>
</svg>
