<svg width="139" height="23" viewBox="0 0 139 23" fill="none" xmlns="http://www.w3.org/2000/svg">
<path d="M0.968788 9.54118C0.641054 9.61162 0.432474 9.9344 0.502911 10.2621C0.573348 10.5899 0.89613 10.7984 1.22386 10.728L0.968788 9.54118ZM1.22386 10.728C43.8551 1.56563 120.327 1.88157 136.097 1.92201L136.1 0.708085C120.38 0.66777 43.7566 0.345145 0.968788 9.54118L1.22386 10.728ZM136.097 1.92201C136.587 1.92327 136.927 1.93198 137.137 1.94628C137.188 1.94979 137.228 1.9534 137.257 1.95683C137.289 1.96046 137.301 1.96298 137.3 1.96278C137.3 1.96263 137.289 1.96038 137.272 1.95485C137.259 1.9504 137.22 1.93696 137.172 1.90834C137.134 1.88582 137.02 1.81222 136.947 1.65867C136.853 1.46134 136.883 1.2548 136.967 1.10753C137.033 0.992531 137.118 0.933207 137.145 0.91512C137.181 0.89126 137.21 0.878589 137.219 0.874397C137.239 0.865821 137.245 0.865615 137.223 0.871472C137.183 0.882196 137.109 0.898127 136.99 0.918322C136.757 0.958001 136.409 1.00523 135.947 1.05949C134.098 1.27636 130.573 1.58838 125.844 1.97156C116.392 2.73737 102.174 3.78379 87.0426 4.91655C71.9129 6.04917 55.8713 7.26797 42.7776 8.37818C29.7083 9.48632 19.5184 10.4904 16.1367 11.198L16.3853 12.3862C19.6751 11.6979 29.7687 10.6995 42.8802 9.58778C55.9671 8.47814 72.0032 7.25974 87.1332 6.1271C102.261 4.99461 116.485 3.94774 125.942 3.18152C130.667 2.79869 134.214 2.48501 136.088 2.26516C136.556 2.21024 136.93 2.1601 137.194 2.11498C137.324 2.09278 137.442 2.06945 137.537 2.04416C137.582 2.03201 137.641 2.0146 137.699 1.98965C137.728 1.97727 137.772 1.95661 137.819 1.92498C137.858 1.89911 137.951 1.83222 138.021 1.70986C138.109 1.55523 138.14 1.34153 138.043 1.13727C137.967 0.976771 137.845 0.896434 137.796 0.867394C137.695 0.806474 137.593 0.784145 137.557 0.776361C137.459 0.75513 137.339 0.743349 137.219 0.735182C136.968 0.718016 136.595 0.709353 136.1 0.708085L136.097 1.92201ZM16.1367 11.198C15.7132 11.2866 15.3766 11.3698 15.1344 11.4492C15.016 11.488 14.8965 11.5335 14.7941 11.589C14.7432 11.6167 14.677 11.6572 14.6133 11.7144C14.5553 11.7666 14.452 11.8746 14.4052 12.0455C14.3492 12.2495 14.3991 12.4463 14.5004 12.591C14.585 12.7121 14.691 12.7782 14.7506 12.8105C14.8715 12.8761 15.0061 12.9096 15.1052 12.93C15.3209 12.9744 15.6171 13.0033 15.966 13.0233C17.3719 13.104 20.1121 13.0624 23.7929 12.9361C31.1735 12.6827 42.452 12.0837 54.711 11.3994C79.2502 10.0295 107.694 8.31965 116.812 8.34312L116.815 7.12919C107.65 7.1056 79.1453 8.81953 54.6434 10.1873C42.3818 10.8718 31.1165 11.47 23.7513 11.7228C20.0592 11.8496 17.3759 11.8883 16.0355 11.8114C15.6979 11.792 15.4749 11.7667 15.35 11.741C15.2788 11.7264 15.2879 11.7209 15.3293 11.7434C15.3491 11.7541 15.4268 11.7977 15.495 11.8951C15.5797 12.0162 15.6247 12.1883 15.5759 12.3666C15.536 12.5118 15.4517 12.593 15.4247 12.6174C15.392 12.6468 15.3688 12.6583 15.3732 12.656C15.3814 12.6515 15.4214 12.6326 15.5128 12.6027C15.6903 12.5444 15.9748 12.4721 16.3853 12.3862L16.1367 11.198ZM116.812 8.34312C117.953 8.34606 118.731 8.37144 119.194 8.41532C119.308 8.42614 119.396 8.4375 119.462 8.44864C119.495 8.45416 119.52 8.4592 119.537 8.46339C119.556 8.46773 119.562 8.4701 119.56 8.46934C119.56 8.46933 119.537 8.46154 119.504 8.44107C119.475 8.42356 119.397 8.37177 119.334 8.26797C119.258 8.1437 119.228 7.98284 119.271 7.8232C119.308 7.68822 119.383 7.60788 119.415 7.57755C119.473 7.52147 119.516 7.51019 119.473 7.52865C119.445 7.54065 119.396 7.55904 119.317 7.58282C119.162 7.63008 118.936 7.68566 118.636 7.74897C118.039 7.87509 117.195 8.02246 116.129 8.19043C111.864 8.86276 104.221 9.83925 95.2388 11.0727C77.3202 13.5335 54.0641 17.0174 42.1493 21.1179L42.5444 22.2658C54.3214 18.2127 77.4409 14.7423 95.4039 12.2754C104.363 11.045 112.037 10.0643 116.318 9.38956C117.389 9.22075 118.258 9.06948 118.887 8.93669C119.2 8.87056 119.465 8.80662 119.67 8.74451C119.772 8.71359 119.87 8.67983 119.956 8.64224C120.028 8.61111 120.152 8.55279 120.256 8.45226C120.311 8.39971 120.4 8.29779 120.443 8.14189C120.492 7.96132 120.458 7.78018 120.371 7.63628C120.295 7.51285 120.197 7.44209 120.138 7.40626C120.075 7.36747 120.013 7.34202 119.965 7.32501C119.791 7.26349 119.555 7.23021 119.308 7.20681C118.785 7.15724 117.96 7.13214 116.815 7.12919L116.812 8.34312Z" fill="url(#paint0_linear_461_869)"/>
<defs>
<linearGradient id="paint0_linear_461_869" x1="-12.8326" y1="23.9847" x2="28.3586" y2="-81.0481" gradientUnits="userSpaceOnUse">
<stop offset="0.229" stop-color="#FF6819"/>
<stop offset="0.904" stop-color="#FFF491"/>
</linearGradient>
</defs>
</svg>
