<svg width="58" height="58" viewBox="0 0 58 58" fill="none" xmlns="http://www.w3.org/2000/svg">
<circle cx="29" cy="29" r="29" fill="#FFBDBD"/>
<path d="M29.1466 10.1722C29.9331 10.6441 30.1871 11.44 30.4042 12.2469C30.6022 12.9791 30.7483 13.7263 30.9381 14.4613C31.005 14.7189 31.1088 14.9765 31.2385 15.2084C31.4939 15.6627 31.797 15.7508 32.2599 15.5176C32.5344 15.3793 32.7856 15.1949 33.0546 15.0443C33.3769 14.864 33.6923 14.6619 34.0351 14.5318C34.8161 14.2348 35.346 14.464 35.6163 15.2437C35.8089 15.7969 35.9263 16.3759 36.0574 16.9495C36.3605 18.2866 36.6227 19.6345 36.9641 20.962C37.0801 21.4095 37.3382 21.8461 37.6222 22.2217C38.021 22.7479 38.6081 22.8224 39.1243 22.4089C39.5217 22.0902 39.8931 21.7037 40.1675 21.2779C40.6987 20.4521 41.1452 19.5734 41.6423 18.7259C41.8662 18.3449 42.097 17.9611 42.3783 17.6221C42.8671 17.0323 43.5198 17.0946 43.808 17.8038C44.0155 18.3137 44.1726 18.9049 44.1316 19.4419C44.0223 20.8467 43.823 22.2461 43.6018 23.6388C43.3628 25.1412 43.0501 26.6328 42.7866 28.1326C42.7347 28.4323 42.736 28.7455 42.7538 29.0506C42.7743 29.4086 42.9641 29.5456 43.3041 29.4276C43.554 29.3408 43.8162 29.2106 44.0019 29.0303C44.5057 28.5421 44.9686 28.0133 45.4561 27.5075C45.6528 27.3041 45.8494 27.0939 46.0802 26.9325C46.5936 26.5705 47.092 26.7183 47.204 27.3271C47.3091 27.8967 47.3296 28.5014 47.2668 29.0777C46.7424 33.9499 44.8621 38.3109 42.1093 42.3287C40.5867 44.5512 38.488 45.9601 35.8485 46.5459C35.1807 46.6937 34.4843 46.7765 33.8002 46.786C31.2126 46.8253 28.625 46.8321 26.0373 46.8334C24.1994 46.8334 22.3874 46.7371 20.6272 46.0646C19.0323 45.4543 17.6887 44.5553 16.6441 43.2305C13.797 39.6221 11.899 35.5744 11.0605 31.0602C10.8598 29.9795 10.7984 28.8716 10.7151 27.7733C10.6864 27.3949 10.7833 26.9773 11.1848 26.801C11.6163 26.6112 11.9549 26.8891 12.2335 27.1725C12.6473 27.5943 13.0173 28.0594 13.4256 28.4879C13.6618 28.7374 13.924 28.9679 14.1985 29.174C14.4538 29.3666 14.7979 29.6161 15.0642 29.3937C15.2458 29.2418 15.284 28.8377 15.269 28.553C15.2417 28.016 15.1448 27.4804 15.0505 26.9488C14.6832 24.8592 14.2667 22.775 13.9513 20.6772C13.8393 19.9382 13.9486 19.1626 13.9854 18.4045C13.995 18.2052 14.0892 18.0005 14.1821 17.816C14.5412 17.1055 15.1611 17.0024 15.6377 17.6343C16.102 18.25 16.4638 18.9415 16.8625 19.6046C17.2162 20.1945 17.5398 20.8047 17.9154 21.3796C18.1215 21.6956 18.381 21.9898 18.665 22.2407C19.3833 22.878 20.1329 22.7831 20.6081 21.9451C20.9003 21.4298 21.1188 20.8508 21.2554 20.2745C21.5926 18.8561 21.8589 17.4214 22.1648 15.9949C22.2262 15.7088 22.3123 15.424 22.427 15.1542C22.711 14.4816 23.1985 14.2606 23.8949 14.4979C24.1844 14.5969 24.4575 14.7474 24.7251 14.8952C24.9941 15.0443 25.2454 15.226 25.5103 15.3833C26.2422 15.8173 26.6532 15.7047 26.9222 14.8884C27.1939 14.0653 27.3632 13.2096 27.579 12.3676C27.6282 12.1777 27.6828 11.9906 27.7401 11.8035C27.9409 11.1458 28.2522 10.56 28.8503 10.1667H29.148L29.1466 10.1722ZM38.8116 23.0896C37.8421 23.2089 37.2385 22.714 36.8316 21.9112C36.7046 21.6603 36.579 21.3986 36.5107 21.1274C36.2486 20.0928 36.0069 19.0514 35.7652 18.0113C35.5617 17.1394 35.3978 16.2566 35.1616 15.3928C35.021 14.8803 34.7178 14.7664 34.2112 14.9494C33.9572 15.0416 33.7156 15.1732 33.4807 15.3088C33.0956 15.5298 32.7187 15.7671 32.3391 15.9963C31.9609 16.1088 31.5881 16.1346 31.229 15.9298C30.7483 15.4444 30.5571 14.8287 30.4097 14.1873C30.2199 13.3629 30.0424 12.533 29.7993 11.7235C29.6942 11.3709 29.4552 11.0522 29.2435 10.7403C29.1193 10.5559 28.8994 10.5491 28.7738 10.7376C28.5799 11.0278 28.4311 11.3478 28.2631 11.6543C28.087 12.3011 27.9108 12.9479 27.7319 13.5948C27.5749 14.1602 27.4711 14.7474 27.2431 15.283C26.8949 16.102 26.2435 16.2892 25.4543 15.8702C25.2153 15.7427 24.9914 15.5867 24.7565 15.4511C24.4902 15.2966 24.2281 15.1298 23.9468 15.0064C23.3214 14.7325 23.0414 14.8613 22.8148 15.4972C22.7615 15.6464 22.711 15.7996 22.6782 15.9542C22.4024 17.2614 22.1675 18.5768 21.8453 19.8718C21.6514 20.6501 21.4138 21.4434 21.0342 22.1431C20.4074 23.2998 19.2453 23.4245 18.2799 22.5309C18.0642 22.3316 17.8457 22.116 17.6928 21.8692C17.1152 20.9403 16.5703 19.9924 16.0009 19.0595C15.7647 18.6717 15.5203 18.2852 15.2431 17.9272C15.0164 17.6343 14.8184 17.6587 14.6614 17.995C14.5439 18.2459 14.4279 18.532 14.4361 18.8005C14.4647 19.804 14.4688 20.8169 14.619 21.8054C14.9167 23.7703 15.3223 25.7189 15.6445 27.6797C15.7319 28.2153 15.7387 28.7808 15.6746 29.3191C15.6199 29.7815 15.2171 30.0107 14.7624 29.8941C14.4361 29.81 14.0865 29.6785 13.8393 29.4629C13.3122 29.0032 12.8466 28.473 12.3523 27.9753C12.127 27.7488 11.9017 27.5224 11.66 27.3122C11.4579 27.1373 11.3022 27.2309 11.264 27.4614C11.2148 27.7624 11.1657 28.0743 11.1944 28.374C11.4497 31.0019 11.9809 33.5729 13.0228 36.0097C14.0838 38.4926 15.228 40.928 16.9718 43.0528C18.8453 45.3364 21.3619 46.2069 24.1625 46.4686C25.3409 46.5785 26.5385 46.4795 27.7278 46.4768C28.0747 46.4768 28.4201 46.4809 28.767 46.4768C30.6732 46.4578 32.5836 46.5175 34.483 46.3914C36.2021 46.2774 37.8284 45.6916 39.2608 44.7289C40.584 43.8407 41.5563 42.5877 42.3674 41.2439C44.3651 37.9298 45.9245 34.434 46.5335 30.5829C46.67 29.7232 46.7615 28.854 46.8257 27.9861C46.8435 27.7448 46.6837 27.4898 46.6059 27.2417C46.3915 27.3705 46.1402 27.4641 45.9709 27.6377C45.5217 28.0933 45.1093 28.5842 44.6805 29.0601C44.3296 29.3083 43.9991 29.5903 43.6236 29.7924C43.229 30.0053 42.8139 29.9836 42.4602 29.6527C42.3988 29.2594 42.239 28.8513 42.295 28.4743C42.5449 26.7752 42.8822 25.0897 43.1389 23.392C43.3437 22.0346 43.513 20.6704 43.6236 19.3036C43.6591 18.8737 43.4966 18.41 43.3464 17.9896C43.2276 17.6574 42.9996 17.6289 42.7961 17.9096C42.4534 18.3842 42.1694 18.8995 41.8608 19.3971C41.7802 19.5192 41.6942 19.6385 41.6191 19.7646C41.2558 20.3735 40.9145 20.9972 40.528 21.5925C40.1034 22.2488 39.5899 22.8224 38.8116 23.0882V23.0896Z" fill="#610000"/>
<path d="M9 22.4251C9.02868 22.3763 9.05052 22.3234 9.08739 22.2814C9.1543 22.2027 9.22258 22.0793 9.30178 22.0712C9.37415 22.0631 9.4711 22.1729 9.53664 22.2475C9.69641 22.4292 9.84524 22.6204 9.99818 22.8075L10.1402 22.7682C10.1006 22.4197 10.147 22.0305 10.0036 21.7308C9.6254 20.9362 9.89304 20.2257 10.1743 19.5043C10.203 19.4324 10.3095 19.3605 10.3873 19.3497C10.4338 19.3429 10.5498 19.4582 10.5471 19.5124C10.498 20.1918 11.0401 20.5131 11.4347 20.9959C11.7023 19.9938 11.9536 19.0337 12.2185 18.0791C12.254 17.9516 12.3605 17.8432 12.4342 17.7252C12.5448 17.8242 12.7169 17.9042 12.7524 18.0235C12.8466 18.3489 12.9285 18.6907 12.934 19.0283C12.9463 19.8975 13.005 20.7477 13.1661 21.6142C13.457 23.175 13.0077 24.5731 11.7733 25.6552C11.2094 26.1501 10.4092 25.9182 10.0432 25.1724C9.69777 24.4754 9.34684 23.7839 9 23.0896C9 22.8685 9 22.6462 9 22.4251ZM10.7847 25.4572C11.0715 25.6904 11.3214 25.6253 11.5658 25.3799C12.7415 24.1961 13.1511 22.8197 12.6705 21.2006C12.5913 20.9349 12.5681 20.646 12.5585 20.3667C12.5407 19.8704 12.553 19.3727 12.553 18.8751C12.5162 18.8669 12.4793 18.8575 12.4424 18.8493C12.2349 19.5721 12.0259 20.2948 11.8184 21.0176C11.7938 21.0569 11.7665 21.0949 11.746 21.1369C11.5426 21.56 11.3528 21.5695 11.0619 21.1979C10.8229 20.8928 10.5526 20.6108 10.2836 20.3043C10.0951 20.703 10.1525 21.0691 10.3068 21.4271C10.5294 21.9451 10.5348 22.4739 10.4065 23.0109C10.3273 23.3404 10.1402 23.3947 9.87802 23.1723C9.68548 23.0082 9.49295 22.8428 9.24306 22.6272C9.32909 22.8875 9.37415 23.1113 9.47246 23.3093C9.74693 23.8666 10.031 24.4198 10.3382 24.9595C10.4461 25.148 10.6318 25.2931 10.7833 25.4585L10.7847 25.4572Z" fill="#610000"/>
<path d="M40.2781 17.1529C40.6154 16.9821 40.9896 16.7909 41.3746 16.5956C41.5303 17.1841 41.4689 17.7116 41.036 18.1388C40.5608 18.6079 40.3396 19.1937 40.1525 19.808C40.0679 20.086 39.9586 20.3667 39.807 20.6149C39.2718 21.4935 38.2121 21.5315 37.5908 20.7057C37.2126 20.2026 37.1648 19.6195 37.1935 19.0229C37.2058 18.7652 37.2194 18.5049 37.2699 18.254C37.4352 17.4323 37.259 16.6688 36.8876 15.9407C36.2991 14.7853 36.3086 13.6246 36.7811 12.4299C36.9723 11.9458 37.0638 11.4224 37.2112 10.9207C37.2426 10.8163 37.3205 10.7241 37.3778 10.6264C37.4393 10.7173 37.5089 10.8041 37.5608 10.9004C37.7424 11.2461 37.8872 11.615 38.1043 11.9377C38.4374 12.4354 38.5958 12.9547 38.4306 13.5351C38.2668 14.1114 38.4415 14.6145 38.7037 15.1148C39.1106 14.8179 39.508 14.5291 39.904 14.2402L40.0023 14.3094C39.9914 14.4084 39.9928 14.5114 39.9654 14.605C39.818 15.1271 39.8098 15.6315 40.0378 16.1454C40.1621 16.4234 40.188 16.7448 40.2809 17.1489L40.2781 17.1529ZM38.5808 20.8115C38.94 20.9322 39.1939 20.7437 39.3674 20.482C39.5408 20.2189 39.6746 19.9206 39.7743 19.6209C39.9777 19.0066 40.2481 18.4439 40.7014 17.9625C40.9158 17.7347 41.0442 17.4296 41.2108 17.1584L41.0715 17.0404C40.584 17.4214 40.0979 17.8025 39.5544 18.2283C39.6022 17.9964 39.6555 17.8228 39.6719 17.6479C39.706 17.2614 39.762 16.8695 39.7319 16.4858C39.6937 15.9868 39.5804 15.4918 39.4957 14.9725C39.3482 15.1026 39.153 15.264 38.97 15.4376C38.7843 15.6139 38.6232 15.6206 38.4907 15.3901C38.1644 14.8233 37.9336 14.228 38.1261 13.5663C38.3501 12.7974 37.8803 12.3133 37.4475 11.7316C37.371 11.977 37.3164 12.1506 37.2618 12.3242C36.9286 12.8869 36.747 13.5148 36.8289 14.1453C36.9081 14.765 37.1061 15.3833 37.3437 15.9664C37.6222 16.6526 37.7697 17.3346 37.7178 18.075C37.6769 18.6581 37.6537 19.2507 37.7096 19.8311C37.7574 20.3233 38.0674 20.6827 38.5836 20.8128L38.5808 20.8115Z" fill="#610000"/>
<path d="M16.6263 16.5821C17.0401 16.7936 17.4169 16.9875 17.7447 17.1557C17.8471 16.7516 17.9864 16.3732 18.0314 15.9854C18.0833 15.5339 18.0533 15.0715 18.0574 14.6145C18.0574 14.5141 18.0533 14.4124 18.0505 14.3121C18.1584 14.3487 18.2799 14.3636 18.3701 14.426C18.6814 14.6416 18.9832 14.8748 19.3027 15.1121C19.6236 14.666 19.7274 14.1399 19.6086 13.5866C19.4829 13.0035 19.5594 12.4869 19.8912 11.977C20.1275 11.6136 20.2736 11.1919 20.4661 10.8C20.5016 10.7295 20.5672 10.6725 20.6682 10.5505C20.7337 10.7037 20.7897 10.8014 20.8184 10.9058C20.9372 11.3519 20.9973 11.8211 21.1721 12.2442C21.7032 13.527 21.7592 14.784 21.0888 16.0315C20.6464 16.8546 20.6778 17.7238 20.7692 18.6161C20.8157 19.0744 20.8239 19.5558 20.731 20.0019C20.6641 20.3274 20.4593 20.6691 20.2203 20.9077C19.6045 21.522 18.7155 21.4135 18.2595 20.6772C18.0437 20.3287 17.9509 19.907 17.7692 19.5355C17.5508 19.0893 17.3555 18.6107 17.0414 18.2364C16.6304 17.7455 16.5034 17.2384 16.629 16.5821H16.6263ZM20.0756 12.4503C19.7956 12.7418 19.7984 13.1066 19.883 13.451C20.051 14.1399 19.8953 14.7582 19.558 15.3508C19.3928 15.641 19.2576 15.6437 19.0187 15.4077C18.848 15.2382 18.6514 15.0945 18.4766 14.9481C18.4397 15.3915 18.4656 15.7929 18.3632 16.159C18.224 16.6594 18.1707 17.134 18.3455 17.6316C18.4083 17.8093 18.411 18.0086 18.4411 18.1984C18.4083 18.2106 18.3742 18.2228 18.3414 18.235C18.1393 18.014 17.9604 17.7618 17.7283 17.5787C17.4852 17.3889 17.1903 17.2641 16.9172 17.1109C16.8858 17.1353 16.8544 17.1597 16.8243 17.1855C16.9732 17.4269 17.0892 17.6967 17.2763 17.9028C17.7228 18.3951 18.0437 18.9442 18.2308 19.5816C18.3127 19.8595 18.4288 20.1416 18.5913 20.3789C18.7128 20.5552 18.934 20.6637 19.1115 20.802C19.6099 20.8983 20.1493 20.566 20.2763 19.9789C20.3733 19.5314 20.3924 19.05 20.3405 18.5944C20.2299 17.6058 20.3405 16.6824 20.7679 15.7671C21.396 14.4192 21.3223 13.0768 20.5139 11.7682C20.3651 12.0001 20.2217 12.2238 20.0769 12.4476L20.0756 12.4503Z" fill="#610000"/>
<path d="M46.5745 20.8779C46.7779 20.7016 47.0142 20.5606 47.1562 20.3559C47.3009 20.1457 47.3432 19.869 47.4457 19.6277C47.4893 19.5233 47.5685 19.4338 47.6314 19.3388C47.7119 19.4039 47.8335 19.4541 47.8649 19.5368C48.1311 20.265 48.3824 20.9823 47.9959 21.7702C47.858 22.0522 47.9086 22.4251 47.8717 22.7574C47.9181 22.7736 47.9632 22.7885 48.0096 22.8048C48.1625 22.6218 48.31 22.4333 48.4725 22.2597C48.5476 22.1783 48.6541 22.1255 48.7456 22.0604C48.8071 22.1566 48.8876 22.2448 48.9245 22.3492C49.0679 22.7546 48.9969 23.1384 48.7975 23.5167C48.5244 24.0347 48.2677 24.5622 48.0178 25.0924C47.8539 25.4409 47.6355 25.723 47.2572 25.8518C46.8926 25.9752 46.5608 25.9467 46.2618 25.6714C44.8812 24.3954 44.4893 22.8618 44.9645 21.0596C45.0861 20.5959 45.0396 20.0887 45.0847 19.6033C45.1325 19.0826 45.1803 18.5605 45.2677 18.0452C45.2882 17.9259 45.4643 17.8309 45.5681 17.7252C45.6459 17.8513 45.7538 17.9679 45.7948 18.1035C45.9873 18.7571 46.1621 19.4175 46.3437 20.0738C46.4215 20.3531 46.5035 20.6311 46.5745 20.8806V20.8779ZM45.4356 20.882C45.4056 21 45.3824 21.1206 45.3469 21.2373C44.8662 22.8048 45.2718 24.1473 46.3942 25.308C46.7096 25.6565 47.0073 25.7067 47.3473 25.4084C47.5153 25.2619 47.6273 25.0422 47.7379 24.8416C48.0096 24.3493 48.2745 23.853 48.523 23.3486C48.6227 23.1465 48.6678 22.9187 48.7374 22.7018C48.7033 22.6882 48.6691 22.6746 48.635 22.6611C48.4903 22.8089 48.3564 22.9702 48.1967 23.1004C48.0915 23.1859 47.9045 23.3079 47.8335 23.2699C47.7174 23.2076 47.6259 23.034 47.5972 22.893C47.488 22.379 47.529 21.8746 47.731 21.3796C47.869 21.0434 47.9577 20.6921 47.7188 20.3328C47.4989 20.5674 47.3036 20.7884 47.0934 20.9932C46.9281 21.1559 46.7424 21.2983 46.5663 21.4502C46.4379 21.2278 46.3082 21.0067 46.1826 20.783C46.1716 20.7627 46.1785 20.7342 46.1703 20.7111C45.9641 20.105 45.7579 19.5002 45.5517 18.8941L45.437 18.9225C45.437 19.5761 45.437 20.2284 45.437 20.882H45.4356Z" fill="#610000"/>
<path d="M42.4588 29.6554C42.8125 29.9863 43.2276 30.008 43.6223 29.7951C43.9978 29.593 44.3282 29.3096 44.6792 29.0628C44.6983 29.1794 44.742 29.2988 44.731 29.4127C44.4839 32.0786 43.8271 34.6428 42.7401 37.0945C41.6163 39.6303 40.0883 41.8365 37.7779 43.5003C34.9909 45.5059 31.909 46.4347 28.4993 46.4144C28.2426 46.413 27.9845 46.4578 27.7278 46.4809C26.5385 46.4849 25.3409 46.5839 24.1625 46.4727C21.3619 46.2097 18.8466 45.3404 16.9718 43.0569C15.228 40.932 14.0838 38.4966 13.0228 36.0138C11.9809 33.577 11.4497 31.006 11.1944 28.378C11.1657 28.0784 11.2148 27.7651 11.264 27.4654C11.3009 27.2363 11.4579 27.1414 11.66 27.3163C11.9017 27.5251 12.127 27.7529 12.3523 27.9794C12.8466 28.477 13.3122 29.0072 13.8393 29.4669C14.0865 29.6825 14.4361 29.8141 14.7624 29.8981C15.2171 30.0147 15.6186 29.7856 15.6746 29.3232C15.7387 28.7848 15.7333 28.2194 15.6445 27.6838C15.3223 25.723 14.9167 23.7744 14.619 21.8095C14.4688 20.821 14.4647 19.808 14.4361 18.8046C14.4292 18.5374 14.5439 18.2513 14.6614 17.9991C14.8184 17.6628 15.015 17.6384 15.2431 17.9313C15.5216 18.2893 15.7647 18.6757 16.0009 19.0636C16.569 19.9979 17.1152 20.9457 17.6928 21.8732C17.8457 22.12 18.0642 22.3343 18.2799 22.535C19.2453 23.4286 20.4074 23.3025 21.0342 22.1471C21.4138 21.4474 21.6514 20.6542 21.8453 19.8758C22.1675 18.5808 22.4024 17.2641 22.6782 15.9583C22.711 15.8037 22.7615 15.6505 22.8148 15.5013C23.0414 14.8653 23.32 14.7365 23.9468 15.0104C24.2281 15.1338 24.4902 15.3006 24.7565 15.4552C24.9914 15.5908 25.2153 15.7481 25.4543 15.8742C26.2435 16.2919 26.8949 16.1061 27.2431 15.2871C27.4711 14.7514 27.5749 14.1643 27.7319 13.5988C27.9108 12.952 28.0856 12.3052 28.2631 11.6584C28.5075 11.554 28.6577 11.634 28.7383 11.8821C28.838 12.1859 28.9404 12.4882 29.0592 12.7852C29.3241 13.447 29.5795 14.1114 29.8758 14.7596C30.142 15.344 30.6118 15.7291 31.2276 15.9339C31.5867 16.14 31.9595 16.1142 32.3378 16.0003C32.6191 15.9664 32.9003 15.9393 33.1803 15.8973C33.6159 15.8322 33.9163 15.9434 34.1034 16.338C34.2713 16.6905 34.3942 17.0675 34.4953 17.4445C34.7547 18.4167 34.9227 19.4188 35.2531 20.3667C35.6122 21.3946 36.1967 22.318 37.0706 23.0177C37.6414 23.4747 38.2504 23.4937 38.8102 23.0936C39.5872 22.8279 40.102 22.2529 40.5267 21.598C40.9117 21.0027 41.2545 20.3789 41.6177 19.7701C41.6928 19.6439 41.7775 19.5246 41.8594 19.4026C41.9932 19.2954 42.1298 19.191 42.2609 19.0826C42.4807 18.8995 42.6254 18.9578 42.676 19.2236C42.7183 19.4514 42.7756 19.69 42.7483 19.9151C42.6009 21.1315 42.4138 22.3438 42.269 23.5615C42.0943 25.0219 41.9099 26.4837 41.8075 27.9495C41.7638 28.5747 41.7283 29.2852 42.4588 29.6581V29.6554ZM23.4948 31.7966C24.1775 31.3816 24.691 30.8419 24.8043 30.0161C24.8371 29.7815 24.96 29.7151 25.188 29.7449C25.371 29.7693 25.5608 29.7652 25.7438 29.7449C25.8243 29.7368 25.8967 29.6568 25.9718 29.6093C25.9076 29.5469 25.853 29.452 25.7765 29.4289C25.5881 29.372 25.3928 29.3327 25.1962 29.3123C23.4101 29.1171 21.6391 28.8526 19.9609 28.176C19.0555 27.8112 18.1543 27.4397 17.2504 27.0722C17.1411 27.0152 17.0332 26.9583 16.924 26.9013C16.8981 26.9366 16.8721 26.9705 16.8448 27.0058C17.0209 27.1563 17.1957 27.3081 17.3719 27.4587C17.5631 27.5888 17.7447 27.7394 17.9495 27.8411C18.1625 27.9468 18.2226 28.0892 18.2676 28.3184C18.3578 28.7808 18.5216 29.2283 18.6541 29.6812C18.8944 30.4785 19.3983 31.0982 20.0046 31.6474C20.5439 32.2508 21.2608 32.3769 22.0132 32.3444C22.5553 32.3213 23.0865 32.2115 23.4921 31.7966H23.4948ZM40.5963 27.1549C40.3915 27.2363 40.1853 27.3149 39.9818 27.3976C39.0915 27.7556 38.2012 28.1136 37.3109 28.4716C37.2385 28.4865 37.1675 28.5001 37.0952 28.515C36.1079 28.7225 35.1234 28.9435 34.132 29.1347C33.5162 29.254 32.8894 29.3232 32.2709 29.4289C32.1835 29.4439 32.1097 29.5415 32.0292 29.5998C32.1179 29.6486 32.2026 29.7042 32.2954 29.7449C32.3378 29.7625 32.3924 29.749 32.4429 29.7503C32.8726 29.7558 33.1502 29.9551 33.2759 30.3483C33.8699 32.2061 36.4438 32.9098 38.0046 31.6243C38.7433 31.0155 39.2513 30.2385 39.4862 29.3015C39.5025 29.2689 39.5244 29.2378 39.5353 29.2039C39.6951 28.713 40.274 27.7827 40.6223 27.4587C40.7984 27.3054 40.9745 27.1536 41.1507 27.0003C41.122 26.9664 41.0933 26.9312 41.066 26.8973C40.9104 26.9841 40.7533 27.0695 40.5977 27.1563L40.5963 27.1549ZM21.7688 39.3007C21.7906 39.3414 21.8125 39.3821 21.8343 39.4228C22.0788 39.3035 22.3245 39.1841 22.584 39.058C22.6127 39.0879 22.6523 39.134 22.696 39.176C23.3063 39.7469 23.8894 40.3408 24.6882 40.6825C26.5986 41.4988 28.5854 41.6358 30.6145 41.3999C32.4962 41.1815 34.1921 40.5591 35.4047 39.0485C35.6764 39.1828 35.9195 39.3021 36.1612 39.4214C36.1857 39.3902 36.209 39.3591 36.2335 39.3279C36.1857 39.2546 36.153 39.1611 36.0861 39.1123C35.5399 38.7163 35.0346 38.2241 34.4297 37.9583C32.6614 37.1826 30.777 36.9589 28.8516 36.9711C27.0123 36.982 25.2303 37.2545 23.5303 37.961C22.8298 38.2525 22.2372 38.7055 21.7688 39.3007ZM24.3195 25.8775C24.2854 25.9074 24.2513 25.9372 24.2158 25.967C24.2854 26.0972 24.3305 26.2491 24.4274 26.3549C25.016 27.0003 25.6031 27.6499 26.219 28.2696C26.4402 28.4919 26.7351 28.6438 27.0055 28.8133C27.0642 28.8499 27.2144 28.8486 27.2335 28.8147C27.2731 28.7442 27.2895 28.6208 27.2513 28.5557C27.142 28.3645 27.0287 28.1638 26.8703 28.0173C26.1452 27.3515 25.4051 26.6993 24.665 26.0511C24.5708 25.9684 24.4356 25.9331 24.3195 25.8762V25.8775ZM33.6964 26.0118C33.6719 25.9887 33.6459 25.9657 33.6213 25.9426C33.5135 25.9901 33.3865 26.0159 33.3018 26.0891C32.6109 26.6817 31.9199 27.2756 31.2467 27.8885C31.0597 28.0594 30.9217 28.2885 30.7852 28.5055C30.736 28.5842 30.7592 28.7076 30.7497 28.812C30.8507 28.8065 30.9682 28.8309 31.0501 28.7889C31.2467 28.6872 31.4584 28.5842 31.6059 28.4282C32.29 27.7068 32.9577 26.9678 33.6254 26.2315C33.6732 26.1786 33.6746 26.0864 33.6978 26.0131L33.6964 26.0118Z" fill="#FF9999"/>
<path d="M27.7278 46.4781C27.9845 46.4551 28.2426 46.409 28.4993 46.4117C31.909 46.432 34.9909 45.5045 37.7779 43.4976C40.0883 41.8338 41.6163 39.6289 42.7401 37.0918C43.8257 34.6415 44.4825 32.0773 44.731 29.41C44.742 29.2961 44.6983 29.1767 44.6792 29.0601C45.1066 28.5842 45.5203 28.0933 45.9695 27.6377C46.1389 27.4654 46.3901 27.3719 46.6045 27.2417C46.6823 27.4898 46.8421 27.7448 46.8244 27.9862C46.7615 28.854 46.6687 29.7232 46.5321 30.5829C45.9218 34.434 44.3624 37.9298 42.366 41.2439C41.5563 42.5877 40.5827 43.8407 39.2595 44.7289C37.8271 45.6903 36.2008 46.2761 34.4816 46.3914C32.5836 46.5175 30.6719 46.4578 28.7656 46.4768C28.4188 46.4808 28.0733 46.4768 27.7265 46.4768L27.7278 46.4781Z" fill="#FF0A0A"/>
<path d="M38.8116 23.0896C38.2517 23.4896 37.6427 23.4706 37.072 23.0136C36.198 22.3139 35.6136 21.3905 35.2545 20.3626C34.924 19.4161 34.7561 18.414 34.4966 17.4404C34.3956 17.0634 34.2727 16.6851 34.1047 16.3339C33.9176 15.9393 33.6172 15.8281 33.1816 15.8932C32.9017 15.9352 32.6204 15.9624 32.3391 15.9963C32.7187 15.7657 33.0956 15.5284 33.4807 15.3088C33.7156 15.1745 33.9572 15.0416 34.2112 14.9494C34.7178 14.765 35.0223 14.8803 35.1616 15.3928C35.3978 16.2566 35.5617 17.138 35.7652 18.0113C36.0069 19.0514 36.2486 20.0914 36.5107 21.1274C36.579 21.3986 36.7046 21.659 36.8316 21.9112C37.2399 22.7153 37.8435 23.2089 38.8116 23.0896Z" fill="#FF0A0A"/>
<path d="M42.4588 29.6554C41.7283 29.2811 41.7638 28.5706 41.8075 27.9468C41.9099 26.481 42.0943 25.0192 42.269 23.5588C42.4138 22.3411 42.6009 21.1288 42.7483 19.9124C42.7756 19.6873 42.7183 19.4487 42.676 19.2209C42.6254 18.9537 42.4807 18.8954 42.2609 19.0798C42.1298 19.1897 41.9932 19.2941 41.8594 19.3999C42.168 18.9022 42.4534 18.3869 42.7948 17.9123C42.9982 17.6303 43.2263 17.6601 43.3451 17.9923C43.4953 18.4127 43.6564 18.8764 43.6223 19.3063C43.5117 20.6732 43.3423 22.0373 43.1375 23.3947C42.8808 25.0924 42.5449 26.7779 42.2936 28.477C42.2376 28.854 42.3988 29.2622 42.4588 29.6554Z" fill="#FF0A0A"/>
<path d="M31.229 15.9298C30.6131 15.7264 30.1434 15.3399 29.8771 14.7555C29.5822 14.1073 29.3255 13.4429 29.0606 12.7811C28.9418 12.4842 28.8393 12.1818 28.7397 11.878C28.6577 11.6285 28.5075 11.5499 28.2645 11.6543C28.4324 11.3465 28.5813 11.0278 28.7752 10.7376C28.9008 10.5491 29.1206 10.5559 29.2449 10.7403C29.4552 11.0522 29.6942 11.3709 29.8007 11.7235C30.0437 12.533 30.2212 13.3629 30.411 14.1873C30.5585 14.8287 30.7511 15.4444 31.2303 15.9298H31.229Z" fill="#FF0A0A"/>
<path d="M10.7847 25.4572C10.6345 25.2917 10.4474 25.1467 10.3396 24.9582C10.0323 24.4185 9.74829 23.8652 9.47383 23.3079C9.37551 23.1099 9.33045 22.8848 9.24442 22.6258C9.49568 22.8414 9.68685 23.0069 9.87938 23.1709C10.1402 23.3933 10.3286 23.3377 10.4078 23.0096C10.5362 22.4726 10.5294 21.9437 10.3081 21.4257C10.1538 21.0678 10.0979 20.7003 10.2849 20.303C10.5539 20.6094 10.8243 20.8915 11.0633 21.1966C11.3541 21.5681 11.5439 21.56 11.7474 21.1356C11.7679 21.0935 11.7952 21.0569 11.8198 21.0162C11.8921 21.5315 11.9809 22.0454 12.0328 22.5634C12.0942 23.1682 11.9386 23.7242 11.5931 24.2313C11.3159 24.6354 11.0537 25.049 10.7847 25.4572Z" fill="#FF9999"/>
<path d="M10.7847 25.4572C11.0537 25.0477 11.3159 24.6341 11.5931 24.2313C11.9399 23.7255 12.0942 23.1682 12.0328 22.5634C11.9809 22.0454 11.8921 21.5315 11.8198 21.0162C12.0273 20.2935 12.2362 19.5707 12.4438 18.848C12.4807 18.8561 12.5175 18.8656 12.5544 18.8737C12.5544 19.3714 12.5421 19.869 12.5599 20.3653C12.5694 20.6447 12.5926 20.9335 12.6718 21.1993C13.1525 22.8184 12.7428 24.1947 11.5671 25.3785C11.3227 25.624 11.0728 25.6891 10.7861 25.4558L10.7847 25.4572Z" fill="#FF0A0A"/>
<path d="M38.5808 20.8115C38.0647 20.6813 37.7561 20.3219 37.7069 19.8297C37.6496 19.2493 37.6741 18.6568 37.7151 18.0737C37.767 17.3333 37.6209 16.6512 37.341 15.9651C37.1047 15.382 36.9067 14.7636 36.8262 14.1439C36.7456 13.5134 36.9272 12.8869 37.259 12.3228C37.696 12.9737 37.7602 13.7209 37.6577 14.445C37.5512 15.2016 38.0046 15.82 38.6805 16.0749C38.9427 16.1739 39.0478 16.3122 38.9987 16.601C38.8935 17.2153 38.8894 17.8147 39.2963 18.3584C39.3851 18.4778 39.3728 18.7137 39.3319 18.8778C39.2035 19.3877 39.0533 19.8934 38.8812 20.3897C38.828 20.5457 38.6819 20.6718 38.5781 20.8115L38.5808 20.8115Z" fill="#FF9999"/>
<path d="M38.5808 20.8115C38.6846 20.6718 38.8307 20.547 38.884 20.3898C39.0547 19.8921 39.2062 19.3877 39.3346 18.8778C39.3755 18.7137 39.3892 18.4764 39.2991 18.3584C38.8908 17.8147 38.8949 17.2153 39.0014 16.601C39.0506 16.3122 38.9454 16.1739 38.6832 16.0749C38.006 15.82 37.5526 15.2016 37.6605 14.445C37.7629 13.7209 37.6987 12.9737 37.2618 12.3228C37.3164 12.1492 37.371 11.9743 37.4475 11.7302C37.8817 12.3106 38.3501 12.7961 38.1261 13.5649C37.9336 14.2267 38.163 14.822 38.4907 15.3888C38.6232 15.6193 38.7843 15.6125 38.97 15.4362C39.153 15.2627 39.3482 15.1013 39.4957 14.9711C39.5804 15.4905 39.6937 15.9841 39.7319 16.4844C39.762 16.8682 39.706 17.2601 39.6719 17.6465C39.6568 17.8228 39.6036 17.995 39.5544 18.2269C40.0979 17.8011 40.5854 17.4201 41.0715 17.039L41.2108 17.157C41.0442 17.4269 40.9158 17.7333 40.7014 17.9611C40.2481 18.4425 39.9777 19.0053 39.7743 19.6195C39.6746 19.9192 39.5421 20.2189 39.3674 20.4806C39.1939 20.741 38.94 20.9294 38.5808 20.8101V20.8115Z" fill="#FF0A0A"/>
<path d="M19.1102 20.8033C18.9326 20.665 18.7114 20.5565 18.5899 20.3803C18.4274 20.143 18.3113 19.8609 18.2294 19.5829C18.0423 18.9456 17.7214 18.3964 17.2749 17.9042C17.0879 17.6981 16.9718 17.4282 16.823 17.1868C16.8544 17.1624 16.8858 17.138 16.9158 17.1123C17.1889 17.2655 17.4839 17.3889 17.7269 17.5801C17.9604 17.7631 18.1379 18.0154 18.34 18.2364C18.3728 18.2242 18.4069 18.212 18.4397 18.1998C18.4097 18.0099 18.4069 17.812 18.3441 17.633C18.168 17.1353 18.2226 16.6607 18.3619 16.1603C18.4643 15.7942 18.4383 15.3928 18.4752 14.9494C18.65 15.0959 18.8453 15.2396 19.0173 15.4091C19.2549 15.6437 19.3915 15.6423 19.5567 15.3522C19.894 14.7596 20.0496 14.1412 19.8817 13.4524C19.7984 13.1079 19.7943 12.7432 20.0742 12.4516C20.3719 13.1052 20.2913 13.7982 20.2954 14.4829C20.2981 14.9874 20.1698 15.4511 19.8735 15.8688C19.4898 16.4071 19.3204 17.0133 19.3218 17.6696C19.3232 18.1727 19.36 18.6771 19.3245 19.1775C19.2863 19.7226 19.1839 20.2623 19.1088 20.8047L19.1102 20.8033Z" fill="#FF9999"/>
<path d="M19.1102 20.8033C19.1853 20.2609 19.2877 19.7212 19.3259 19.1761C19.3614 18.6757 19.3259 18.1713 19.3232 17.6682C19.3204 17.0119 19.4911 16.4058 19.8748 15.8674C20.1712 15.4511 20.2995 14.986 20.2968 14.4816C20.2927 13.7968 20.3733 13.1039 20.0756 12.4503C20.2189 12.2265 20.3637 12.0014 20.5125 11.7709C21.3223 13.0795 21.3946 14.4219 20.7665 15.7698C20.3405 16.6851 20.2285 17.6086 20.3391 18.5971C20.3896 19.0527 20.3705 19.5341 20.2749 19.9816C20.1479 20.5687 19.6099 20.901 19.1102 20.8047V20.8033Z" fill="#FF0A0A"/>
<path d="M45.4356 20.882L45.4356 18.9225L45.5503 18.8941C45.7565 19.5002 45.9627 20.105 46.1689 20.7111C46.1771 20.7342 46.1689 20.7627 46.1812 20.783C46.3082 21.0067 46.4366 21.2278 46.5649 21.4502C46.7411 21.2983 46.9254 21.1559 47.092 20.9932C47.3023 20.7871 47.4975 20.566 47.7174 20.3328C47.9564 20.6908 47.8676 21.042 47.7297 21.3796C47.5276 21.8746 47.4866 22.379 47.5959 22.893C47.6259 23.034 47.7174 23.2062 47.8321 23.2699C47.9031 23.3079 48.0902 23.1872 48.1953 23.1004C48.3551 22.9702 48.4889 22.8089 48.6336 22.6611C48.6678 22.6746 48.7019 22.6882 48.7361 22.7018C48.6664 22.9174 48.6214 23.1465 48.5217 23.3486C48.2745 23.853 48.0082 24.3493 47.7365 24.8416C47.6259 25.0422 47.5139 25.2619 47.346 25.4084C47.006 25.7053 46.7069 25.6552 46.3929 25.308C46.5103 25.0002 46.5868 24.668 46.7547 24.3914C47.0538 23.9005 47.2695 23.4693 46.9049 22.8821C46.7219 22.5879 46.7711 22.1539 46.7124 21.7634C46.0952 21.9112 45.7716 21.5749 45.5572 21.0596C45.5299 20.9945 45.4766 20.9416 45.4343 20.8833L45.4356 20.882Z" fill="#FF0A0A"/>
<path d="M45.4356 20.882C45.4766 20.9403 45.5312 20.9945 45.5585 21.0583C45.7729 21.5736 46.0965 21.9098 46.7137 21.762C46.7725 22.1526 46.7233 22.5879 46.9063 22.8808C47.2709 23.4666 47.0538 23.8991 46.7561 24.39C46.5868 24.6666 46.5117 24.9988 46.3942 25.3067C45.2718 24.1459 44.8662 22.8048 45.3469 21.2359C45.3824 21.1193 45.407 20.9986 45.4356 20.8806L45.4356 20.882Z" fill="#FF9999"/>
<path d="M21.7688 39.3007C22.2372 38.7055 22.8298 38.2512 23.5303 37.961C25.2303 37.2545 27.0123 36.982 28.8516 36.9711C30.7784 36.9589 32.6628 37.1826 34.4297 37.9583C35.0346 38.2241 35.5399 38.7163 36.0861 39.1123C36.153 39.1611 36.1857 39.2546 36.2335 39.3279C36.209 39.3591 36.1857 39.3902 36.1612 39.4214C35.9195 39.3021 35.6764 39.1828 35.4047 39.0485C34.1921 40.5591 32.4948 41.1815 30.6145 41.3999C28.5854 41.6358 26.5972 41.4988 24.6882 40.6825C23.8894 40.3408 23.3063 39.7469 22.696 39.176C22.6523 39.134 22.6127 39.0879 22.584 39.058C22.3245 39.1841 22.0788 39.3035 21.8343 39.4228C21.8125 39.3821 21.7906 39.3414 21.7688 39.3007ZM22.9568 38.8383C23.4429 39.4052 23.9946 39.8513 24.6623 40.1442C24.7715 40.1916 24.9327 40.1984 25.0446 40.1564C26.1657 39.7387 27.325 39.5462 28.5185 39.515C30.0492 39.4757 31.5512 39.6113 32.9932 40.1659C33.0779 40.1984 33.198 40.2161 33.2759 40.1822C33.9709 39.8743 34.5553 39.4228 35.0469 38.8383C32.7474 37.1338 25.2822 37.1365 22.9568 38.8383ZM32.6218 40.3774C30.2089 39.8011 27.7947 39.812 25.3846 40.3774C27.7961 41.2588 30.2076 41.2615 32.6218 40.3774Z" fill="#610000"/>
<path d="M39.4848 29.2988C39.2513 30.2358 38.7433 31.0128 38.0032 31.6216C36.4425 32.9071 33.8685 32.2034 33.2745 30.3456C33.1489 29.9524 32.8712 29.753 32.4415 29.7476C32.3924 29.7476 32.3364 29.7612 32.2941 29.7422C32.2012 29.7029 32.1166 29.6473 32.0278 29.5971C32.1084 29.5374 32.1807 29.4412 32.2695 29.4262C32.8881 29.3205 33.5148 29.2513 34.1307 29.132C35.1206 28.9408 36.1065 28.7198 37.0938 28.5123C37.1648 28.4974 37.2372 28.4838 37.3095 28.4689C38.3815 28.058 39.452 27.6471 40.5226 27.2336C40.5526 27.2214 40.5717 27.1807 40.5949 27.1536C40.7506 27.0668 40.9076 26.9813 41.0633 26.8946C41.092 26.9285 41.1207 26.9637 41.148 26.9976C40.9718 27.1508 40.7957 27.3027 40.6195 27.4559C40.2959 27.6594 39.8535 27.7936 39.6828 28.0851C39.4889 28.416 39.5394 28.8879 39.4848 29.2974V29.2988ZM37.4748 28.9232C36.209 29.3313 34.9213 29.6378 33.5462 29.6907C33.9463 30.5992 34.5717 31.1633 35.4675 31.4291C35.8444 31.4426 36.2322 31.5213 36.5954 31.4562C37.8093 31.2406 38.8403 29.8168 39.1434 28.279C38.5658 28.5014 38.0196 28.713 37.4748 28.9232Z" fill="#610000"/>
<path d="M17.3732 27.4573C17.1971 27.3068 17.0223 27.1549 16.8462 27.0044C16.8721 26.9691 16.8981 26.9352 16.9254 26.9C17.0346 26.9569 17.1425 27.0139 17.2517 27.0708C17.3596 27.1508 17.4552 27.2525 17.5753 27.3068C19.8011 28.3035 22.061 29.1781 24.5421 29.3096C24.9327 29.33 25.3177 29.4588 25.7055 29.5374C25.7014 29.5754 25.6973 29.6134 25.6919 29.6513C25.5499 29.6513 25.3983 29.6812 25.2658 29.6459C24.8726 29.5429 24.777 29.7381 24.6664 30.0731C24.5353 30.4677 24.3127 30.8446 24.0642 31.1823C23.8812 31.4318 23.5958 31.6081 23.3569 31.8169C22.9568 31.9552 22.5662 32.1478 22.1539 32.2223C21.3605 32.3661 20.6627 32.0583 20.0073 31.646C19.401 31.0969 18.8971 30.4772 18.6568 29.6798C18.5749 29.2866 18.4424 28.8947 18.422 28.4974C18.3864 27.8085 17.888 27.6377 17.3746 27.4559L17.3732 27.4573ZM22.0159 29.3557C20.9686 29.0235 19.9199 28.6913 18.8371 28.3482C18.9641 28.6994 19.0678 29.0235 19.1989 29.3367C19.5717 30.2276 20.163 30.9246 21.0492 31.3504C22.2604 31.9077 24.1188 31.0507 24.381 29.7151C23.8607 29.6296 23.3405 29.5415 22.8189 29.4601C22.5526 29.4181 22.2836 29.3896 22.0159 29.3544V29.3557Z" fill="#610000"/>
<path d="M24.3195 25.8775C24.4356 25.9345 24.5722 25.9698 24.665 26.0525C25.4065 26.7006 26.1452 27.3529 26.8703 28.0187C27.0301 28.1651 27.1434 28.3672 27.2513 28.557C27.2895 28.6235 27.2731 28.7469 27.2335 28.816C27.2144 28.8499 27.0642 28.8499 27.0055 28.8147C26.7351 28.6452 26.4402 28.4933 26.219 28.2709C25.6031 27.6512 25.016 27.003 24.4274 26.3562C24.3305 26.2505 24.2854 26.0986 24.2158 25.9684C24.2499 25.9386 24.284 25.9087 24.3195 25.8789V25.8775Z" fill="#610000"/>
<path d="M33.6964 26.0118C33.6732 26.085 33.6719 26.1786 33.6241 26.2301C32.9563 26.9678 32.29 27.7055 31.6045 28.4269C31.457 28.5828 31.2454 28.6859 31.0487 28.7876C30.9668 28.8296 30.8494 28.8052 30.7483 28.8106C30.7579 28.7076 30.7347 28.5842 30.7838 28.5042C30.9204 28.2872 31.0583 28.058 31.2454 27.8872C31.9186 27.2742 32.6095 26.6803 33.3004 26.0877C33.3851 26.0145 33.5121 25.9887 33.62 25.9413C33.6445 25.9643 33.6705 25.9874 33.6951 26.0104L33.6964 26.0118Z" fill="#610000"/>
<path d="M23.3555 31.8183C23.5945 31.6094 23.8812 31.4331 24.0628 31.1836C24.31 30.8446 24.5339 30.4677 24.665 30.0744C24.777 29.7395 24.8726 29.5442 25.2645 29.6473C25.3983 29.6825 25.5485 29.6527 25.6905 29.6527C25.6946 29.6147 25.6987 29.5768 25.7042 29.5388C25.3164 29.4601 24.9313 29.3313 24.5408 29.311C22.0596 29.1808 19.7997 28.3048 17.574 27.3081C17.4552 27.2553 17.3582 27.1522 17.2504 27.0722C18.1543 27.441 19.0555 27.8112 19.9609 28.176C21.6404 28.854 23.4115 29.1171 25.1962 29.3123C25.3915 29.334 25.5881 29.372 25.7765 29.4289C25.853 29.452 25.9076 29.5469 25.9718 29.6093C25.8953 29.6568 25.8243 29.7368 25.7438 29.7449C25.5608 29.7639 25.371 29.768 25.188 29.7449C24.96 29.7137 24.8357 29.7815 24.8043 30.0161C24.691 30.8419 24.1775 31.3816 23.4948 31.7966C23.4484 31.8033 23.4019 31.8115 23.3569 31.8183H23.3555Z" fill="#610000"/>
<path d="M40.5963 27.1549C40.5717 27.182 40.554 27.2241 40.5239 27.2349C39.4534 27.6485 38.3815 28.0594 37.3109 28.4702C38.2012 28.1123 39.0915 27.7543 39.9818 27.3963C40.1867 27.3136 40.3915 27.2349 40.5963 27.1536V27.1549Z" fill="#610000"/>
<path d="M23.3555 31.8183C23.4019 31.8115 23.4484 31.8033 23.4934 31.7966C23.0879 32.2115 22.5567 32.3213 22.0146 32.3444C21.2608 32.3769 20.5439 32.2495 20.0059 31.6474C20.6614 32.061 21.3591 32.3688 22.1525 32.2237C22.5649 32.1491 22.9554 31.9566 23.3555 31.8183Z" fill="#FF0A0A"/>
<path d="M17.3732 27.4573C17.888 27.639 18.3864 27.8085 18.4206 28.4987C18.4411 28.896 18.5735 29.2866 18.6555 29.6812C18.5216 29.2269 18.3578 28.7794 18.269 28.3184C18.2253 28.0892 18.1639 27.9468 17.9509 27.8411C17.746 27.7394 17.5644 27.5875 17.3732 27.4587V27.4573Z" fill="#610000"/>
<path d="M39.4848 29.2988C39.5408 28.8879 39.4903 28.416 39.6828 28.0865C39.8535 27.795 40.2973 27.6607 40.6195 27.4573C40.2713 27.7814 39.6923 28.7116 39.5326 29.2025C39.5217 29.2364 39.4998 29.2676 39.4834 29.3001L39.4848 29.2988Z" fill="#610000"/>
<path d="M22.9568 38.8383C25.2822 37.1365 32.7474 37.1338 35.0469 38.8383C34.5567 39.4214 33.9709 39.873 33.2759 40.1822C33.198 40.2161 33.0779 40.1998 32.9932 40.1659C31.5512 39.6113 30.0492 39.4757 28.5185 39.515C27.3236 39.5448 26.1657 39.7387 25.0446 40.1564C24.9327 40.1984 24.7715 40.193 24.6623 40.1442C23.9946 39.8513 23.4429 39.4052 22.9568 38.8383Z" fill="#FF9999"/>
<path d="M25.3846 40.3774C27.7961 41.2588 30.2076 41.2615 32.6218 40.3774C30.2089 39.8011 27.7947 39.812 25.3846 40.3774Z" fill="#FF0A0A"/>
<path d="M35.4675 31.4291C34.5717 31.1619 33.9477 30.5992 33.5462 29.6907C34.9213 29.6378 36.209 29.3313 37.4748 28.9232C37.5922 28.9164 37.7083 28.9082 37.8776 28.8974C37.4051 29.7408 36.9204 30.5178 36.1653 31.0819C35.9604 31.2352 35.701 31.3152 35.4661 31.4291H35.4675Z" fill="#FF9999"/>
<path d="M35.4675 31.4291C35.7024 31.3152 35.9618 31.2352 36.1666 31.0819C36.9204 30.5178 37.4065 29.7408 37.879 28.8974C37.7096 28.9082 37.5922 28.915 37.4761 28.9232C38.021 28.713 38.5672 28.5028 39.1448 28.279C38.8416 29.8168 37.8107 31.2406 36.5968 31.4562C36.2335 31.5213 35.8457 31.4426 35.4689 31.4291H35.4675Z" fill="#FF0A0A"/>
<path d="M21.0492 31.3518C20.1616 30.9246 19.5703 30.2276 19.1989 29.3381C19.0678 29.0249 18.9641 28.7008 18.8371 28.3496C19.9199 28.6926 20.9686 29.0249 22.0159 29.3571C22.3942 29.4588 22.7738 29.5618 23.152 29.6635C23.1684 29.7029 23.1848 29.7422 23.2012 29.7815C22.4843 30.3049 21.7674 30.8297 21.0492 31.3531V31.3518Z" fill="#FF9999"/>
<path d="M21.0492 31.3518C21.7661 30.8284 22.4829 30.3036 23.2012 29.7802C23.1848 29.7408 23.1684 29.7015 23.152 29.6622C22.7738 29.5605 22.3942 29.4574 22.0159 29.3557C22.2836 29.391 22.5526 29.4195 22.8189 29.4615C23.3405 29.5429 23.8594 29.631 24.381 29.7164C24.1202 31.0507 22.2617 31.9091 21.0492 31.3518Z" fill="#FF0A0A"/>
</svg>
