<svg width="58" height="58" viewBox="0 0 58 58" fill="none" xmlns="http://www.w3.org/2000/svg">
<circle cx="29" cy="29" r="29" fill="#E9E9FE"/>
<path d="M28.9909 43.5C27.4159 43.468 25.8449 43.4074 24.2954 43.1131C23.1648 42.8982 22.1113 42.4683 21.1089 41.9045C20.3716 41.4901 19.6837 41.0128 19.1001 40.4027C18.4344 39.7072 17.9817 38.8751 17.6383 37.9867C17.0975 36.5863 16.6769 35.1528 16.5261 33.6527C16.404 32.437 16.3546 31.219 16.7219 30.0341C17.1879 28.5307 17.7726 27.0719 18.5248 25.6842C18.9686 24.8652 19.5905 24.1873 20.32 23.6175C20.9292 23.1419 21.5693 22.7043 22.214 22.2761C23.4783 21.4362 24.8951 20.9754 26.3735 20.6823C27.2983 20.4987 28.227 20.3571 29.1767 20.3786C30.2973 20.4039 31.3869 20.6178 32.4714 20.8735C33.9793 21.2284 35.3351 21.9041 36.5872 22.798C37.3034 23.3094 38.0162 23.8236 38.6059 24.4866C38.9649 24.89 39.2861 25.3171 39.5374 25.7938C40.2447 27.1363 40.8044 28.5395 41.2654 29.9812C41.5794 30.9644 41.5916 31.9812 41.5317 33.0002C41.4263 34.7924 40.952 36.4976 40.2941 38.1592C39.6672 39.7431 38.6021 40.9434 37.1087 41.7789C36.3386 42.2098 35.5481 42.5785 34.7049 42.8535C33.683 43.1875 32.629 43.2944 31.5705 43.3749C30.7123 43.4405 29.8508 43.4592 28.9903 43.4989L28.9909 43.5ZM29.8419 21.105C29.4702 21.0879 29.0946 21.0289 28.7274 21.062C27.9812 21.1298 27.2356 21.2245 26.4967 21.3491C25.2424 21.5602 24.0264 21.9063 22.9507 22.6084C22.1851 23.1077 21.4273 23.6235 20.7039 24.1802C19.9373 24.7704 19.3231 25.5023 18.8716 26.3675C18.39 27.2896 18.0067 28.2501 17.6494 29.2234C17.4386 29.7977 17.2561 30.3796 17.1729 30.9875C17.0453 31.9244 17.0619 32.8641 17.1363 33.8037C17.2766 35.5783 17.7953 37.2454 18.6042 38.8266C19.1301 39.8549 19.8657 40.7026 20.8509 41.3264C21.9172 42.0021 23.0794 42.4303 24.3187 42.6662C25.4626 42.8839 26.6176 43.0079 27.7782 43.0922C28.8616 43.171 29.9417 43.1396 31.0202 43.0216C31.0807 43.0205 31.1417 43.0249 31.201 43.0172C31.8701 42.9307 32.5413 42.8574 33.207 42.7516C34.3776 42.5659 35.5037 42.2424 36.5544 41.6764C37.5852 41.1214 38.4606 40.4033 39.0653 39.3953C40.2597 37.4047 40.8632 35.2438 40.9148 32.9296C40.9343 32.0627 40.9359 31.1942 40.7046 30.3499C40.3257 28.9693 39.7881 27.65 39.1352 26.3747C38.7407 25.6042 38.206 24.9446 37.5508 24.3863C37.112 24.0121 36.6471 23.6654 36.175 23.3331C35.3312 22.7396 34.463 22.184 33.475 21.8446C32.73 21.5883 31.9655 21.4103 31.1883 21.2868C30.7411 21.2163 30.2912 21.165 29.8424 21.105H29.8419Z" fill="#1414F0"/>
<path d="M33.1771 17.0069C33.2159 16.8746 33.2536 16.5991 33.3746 16.3665C33.5671 15.995 33.8145 15.6522 34.0397 15.2973C34.3853 14.7523 34.7315 14.2072 35.0793 13.6638C35.1137 13.6104 35.1531 13.5448 35.2058 13.5233C35.2558 13.5029 35.3617 13.5134 35.38 13.5459C35.4172 13.6104 35.4355 13.7052 35.4178 13.7768C35.3634 13.9989 35.2702 14.2127 35.2247 14.4365C35.0161 15.4616 35.1137 16.4552 35.5664 17.4059C35.6652 17.6137 35.7695 17.8192 35.8743 18.0237C36.3614 18.9755 36.4729 19.9493 36.0557 20.9573C35.9986 21.095 35.9631 21.2416 35.9159 21.3838C35.8876 21.4692 35.8654 21.5695 35.7434 21.5541C35.6252 21.5387 35.6408 21.4367 35.6319 21.3546C35.6114 21.1661 35.6036 20.9754 35.5698 20.7897C35.4821 20.308 35.1787 19.9592 34.8397 19.6274C34.4747 19.2698 34.1096 18.9099 33.774 18.5257C33.3846 18.0799 33.2098 17.6208 33.1771 17.0063V17.0069ZM35.4411 19.5971C35.6896 19.8699 35.8671 20.1802 35.9592 20.55C36.0125 20.3334 36.0618 20.1179 36.0507 19.9052C36.0191 19.3122 35.8055 18.7809 35.456 18.2965C34.9684 17.6208 34.7165 16.8597 34.6794 16.0303C34.6672 15.7536 34.6772 15.4764 34.6772 15.1998C34.6672 15.1959 34.6577 15.1926 34.6477 15.1888C34.5795 15.2902 34.5113 15.3916 34.443 15.4924C34.2173 15.8683 33.9782 16.2375 33.7707 16.6228C33.6087 16.9231 33.622 17.2466 33.7352 17.5679C33.8467 17.8854 34.0253 18.1637 34.2544 18.4034C34.6411 18.809 35.0444 19.1992 35.4405 19.596L35.4411 19.5971Z" fill="#1414F0"/>
<path d="M22.8841 15.3602C22.8636 14.8675 22.8115 14.3268 22.5923 13.8159C22.5823 13.7928 22.574 13.7691 22.5674 13.7454C22.5391 13.6473 22.5568 13.5608 22.655 13.5172C22.7526 13.4742 22.8342 13.515 22.8863 13.6027C22.9557 13.7184 23.0106 13.8435 23.0849 13.9559C23.4544 14.5158 23.8311 15.0719 24.1995 15.6324C24.3398 15.8457 24.4752 16.0628 24.5967 16.2866C24.8996 16.8449 24.8801 17.4086 24.595 17.968C24.3343 18.4806 23.9415 18.89 23.536 19.2879C23.3285 19.4918 23.1132 19.688 22.908 19.8942C22.5413 20.2623 22.3965 20.7214 22.3715 21.2268C22.3699 21.2615 22.3715 21.2967 22.3699 21.332C22.3665 21.4252 22.3882 21.537 22.2528 21.5552C22.1269 21.5723 22.1102 21.4637 22.0847 21.3816C21.9682 21.0102 21.8367 20.642 21.7463 20.2645C21.556 19.4682 21.7885 18.7352 22.1269 18.0215C22.3133 17.6285 22.5041 17.2361 22.66 16.8311C22.8342 16.3786 22.8714 15.8969 22.8841 15.3613V15.3602ZM23.3429 15.5784C23.3596 16.6525 23.0639 17.623 22.4203 18.4965C22.0991 18.9325 21.9627 19.4472 21.9477 19.9901L22.0187 20.5538C22.0359 20.5538 22.0531 20.5538 22.0709 20.5538C22.1385 20.1648 22.3216 19.8374 22.5995 19.5629C22.7704 19.3943 22.9596 19.2422 23.121 19.0647C23.4466 18.706 23.7889 18.356 24.0691 17.9636C24.4197 17.472 24.4519 16.9292 24.129 16.3984C23.9004 16.0226 23.6563 15.6555 23.4184 15.2858C23.3956 15.2505 23.3662 15.2191 23.3196 15.1606C23.3285 15.3232 23.3357 15.4511 23.3429 15.5789V15.5784Z" fill="#1414F0"/>
<path d="M14.8723 34.3978C14.7969 34.3736 14.7325 34.3603 14.6748 34.3339C14.3203 34.1713 13.967 34.0054 13.613 33.8406C13.2535 33.6731 12.8863 33.5204 12.5362 33.3353C11.8683 32.9826 11.4611 32.4166 11.2536 31.7029C11.1699 31.4152 11.095 31.1248 11.0162 30.8354C10.7732 29.9437 10.2823 29.2207 9.53001 28.674C9.39188 28.5736 9.2543 28.4722 9.11672 28.3708C9.02297 28.3019 8.96361 28.2121 9.02518 28.1008C9.09231 27.9795 9.20936 27.9862 9.31532 28.0435C9.46122 28.1217 9.61323 28.1967 9.73916 28.3014C10.2567 28.7329 10.8581 29.0272 11.4367 29.3601C11.7757 29.5546 12.1119 29.7607 12.4225 29.9961C12.9579 30.4017 13.2369 30.966 13.2652 31.6252C13.2985 32.4149 13.6263 33.0333 14.2316 33.5282C14.4762 33.7282 14.7065 33.9459 14.9372 34.1619C14.9794 34.2011 15.0105 34.2705 15.011 34.3267C15.011 34.3504 14.9195 34.3747 14.8712 34.3978H14.8723ZM11.3651 30.2953C11.4672 30.6602 11.5948 31.02 11.6653 31.3904C11.8184 32.1912 12.1829 32.8321 12.9407 33.2074C13.1653 33.3303 13.3906 33.4538 13.6152 33.5767C13.6225 33.5651 13.6291 33.5535 13.6363 33.5419C13.6247 33.5271 13.6152 33.51 13.6014 33.4973C13.0677 33.0233 12.8269 32.4347 12.8647 31.7222C12.8974 31.1038 12.6988 30.5747 12.1579 30.2237C11.8683 30.0358 11.5582 29.8787 11.2564 29.7095C11.1937 29.6742 11.1272 29.6461 11.034 29.6009C11.1555 29.8561 11.2603 30.0754 11.3646 30.2948L11.3651 30.2953Z" fill="#1414F0"/>
<path d="M43.1294 34.3995C43.0789 34.3741 42.9885 34.3482 42.9891 34.3256C42.9913 34.2689 43.0218 34.2 43.064 34.1603C43.3064 33.9343 43.5555 33.7161 43.8024 33.4951C44.1646 33.1699 44.5008 32.8216 44.619 32.3328C44.6827 32.0666 44.711 31.7916 44.7421 31.5188C44.8181 30.8497 45.1227 30.3041 45.6724 29.9195C46.0702 29.6412 46.4974 29.4025 46.9206 29.1622C47.3533 28.9164 47.7899 28.6811 48.1766 28.3626C48.3303 28.2364 48.5117 28.1421 48.6859 28.0429C48.7852 27.9862 48.8989 27.9807 48.9677 28.0892C49.0415 28.205 48.9788 28.2981 48.8812 28.3714C48.6687 28.5318 48.4523 28.6872 48.2448 28.8542C47.5386 29.4229 47.1425 30.1768 46.9234 31.0382C46.8507 31.3237 46.7758 31.6097 46.6815 31.8886C46.4718 32.5108 46.0863 33.0052 45.4999 33.3121C45.0472 33.5491 44.5685 33.7359 44.1041 33.9509C43.8451 34.0705 43.5927 34.2033 43.3358 34.3267C43.2742 34.3565 43.2071 34.373 43.1283 34.4006L43.1294 34.3995ZM45.0777 32.4513C44.9729 32.7792 44.812 33.0751 44.5735 33.3276C44.4975 33.408 44.4204 33.4879 44.3321 33.58C44.3676 33.5684 44.3871 33.564 44.4048 33.5552C44.518 33.5006 44.6289 33.4416 44.7438 33.3909C45.6663 32.9826 46.2072 32.2959 46.3598 31.2917C46.4458 30.7274 46.6366 30.1873 46.9334 29.6908C46.945 29.6715 46.95 29.6483 46.9584 29.6268C46.9495 29.6158 46.9406 29.6048 46.9317 29.5943C46.6577 29.7541 46.3836 29.914 46.1101 30.0738C46.0902 30.0765 46.0669 30.0738 46.0513 30.0831C45.6103 30.3554 45.2453 30.6921 45.1759 31.235C45.1243 31.6384 45.1094 32.0462 45.0777 32.4518V32.4513Z" fill="#1414F0"/>
<path d="M17.407 23.343C17.3454 23.5844 17.316 23.8434 17.2151 24.0722C16.8373 24.9264 16.8412 25.7872 17.1102 26.6635C17.1318 26.7346 17.1635 26.815 17.1479 26.8817C17.1313 26.9534 17.0764 27.0509 17.0176 27.068C16.9582 27.0851 16.8373 27.0388 16.8062 26.9842C16.4789 26.4127 16.1499 25.8407 15.8504 25.2543C15.6168 24.7969 15.5236 24.2904 15.5491 23.7828C15.6257 22.2865 15.011 21.0769 14.0269 20.0088C13.9897 19.9686 13.9348 19.9278 13.927 19.8809C13.9154 19.8093 13.9126 19.7079 13.9536 19.6649C13.9947 19.6225 14.0951 19.6335 14.17 19.6285C14.1905 19.6274 14.2144 19.65 14.2344 19.6654C14.8757 20.1659 15.5253 20.6558 16.1538 21.1716C16.6193 21.5536 17.0198 22 17.2156 22.5847C17.2961 22.8244 17.3404 23.0757 17.4065 23.3425L17.407 23.343ZM16.1777 25.2152C16.2803 25.4334 16.3829 25.6516 16.4856 25.8699C16.5011 25.8638 16.5161 25.8578 16.5316 25.8522C16.4645 25.1689 16.5826 24.5219 16.8728 23.8975C16.956 23.7189 16.9887 23.5012 16.9854 23.3022C16.9793 22.863 16.7896 22.48 16.5299 22.1328C16.2087 21.7029 15.7954 21.3667 15.3716 21.0438C15.3522 21.0289 15.3222 21.0289 15.2823 21.0179C15.3661 21.1827 15.4448 21.3276 15.5136 21.477C15.6157 21.698 15.71 21.9228 15.8076 22.146C15.7999 22.1581 15.7832 22.1736 15.7866 22.1818C15.9813 22.7561 15.9663 23.3485 15.9519 23.9421C15.9413 24.3802 16.0068 24.8073 16.1777 25.2146V25.2152Z" fill="#1414F0"/>
<path d="M40.8305 26.9142C40.8988 26.6431 40.9681 26.4182 41.0108 26.1884C41.1329 25.5332 41.134 24.8812 40.8505 24.2617C40.4228 23.3265 40.653 22.496 41.2777 21.7553C41.5756 21.402 41.9423 21.1017 42.3006 20.8046C42.7605 20.4238 43.2437 20.0705 43.7169 19.7057C43.7524 19.6781 43.7907 19.634 43.8284 19.6335C43.9066 19.6324 44.0087 19.6307 44.0553 19.6759C44.0947 19.7139 44.0825 19.8203 44.0697 19.892C44.062 19.9344 44.0104 19.9702 43.9765 20.0071C43.3153 20.7263 42.7749 21.521 42.5702 22.4866C42.4759 22.9319 42.4776 23.3987 42.4554 23.8567C42.4338 24.3003 42.3916 24.7434 42.1969 25.1424C41.9583 25.6313 41.6704 26.0964 41.4069 26.5737C41.3376 26.6999 41.2799 26.8321 41.2155 26.9611C41.1678 27.0581 41.0846 27.1193 40.9842 27.0752C40.916 27.0449 40.8716 26.9611 40.83 26.9153L40.8305 26.9142ZM41.7858 21.8142C41.7669 21.8198 41.7436 21.8203 41.7303 21.8319C41.0757 22.3841 40.8721 23.2978 41.1983 24.0876C41.3187 24.3797 41.3742 24.6977 41.4596 25.0041V25.8324C41.479 25.8352 41.4979 25.8379 41.5173 25.8412C41.5744 25.7382 41.6349 25.6362 41.6887 25.5315C42.0011 24.9264 42.0943 24.2788 42.0521 23.6081C41.9955 22.7148 42.2385 21.8958 42.6684 21.1226C42.6917 21.0807 42.7123 21.0377 42.7339 20.9953C42.4981 21.1463 42.2812 21.3149 42.0765 21.4957C41.9694 21.5905 41.8823 21.7073 41.7864 21.8142H41.7858Z" fill="#1414F0"/>
<path d="M31.0202 43.0216C29.9417 43.1396 28.8616 43.171 27.7782 43.0922C26.6176 43.0079 25.4626 42.8839 24.3187 42.6662C23.0794 42.4303 21.9177 42.0021 20.8509 41.3264C19.8657 40.702 19.1301 39.8544 18.6042 38.8266C17.7953 37.2454 17.2766 35.5783 17.1363 33.8037C17.0619 32.8641 17.0453 31.9244 17.1729 30.9875C17.2556 30.3796 17.4386 29.7971 17.6494 29.2234C18.0067 28.2507 18.3906 27.2896 18.8716 26.3675C19.3231 25.5028 19.9367 24.7704 20.7039 24.1802C21.4273 23.6235 22.1851 23.1083 22.9507 22.6084C24.0264 21.9063 25.2424 21.5607 26.4967 21.3491C27.2356 21.2245 27.9812 21.1298 28.7274 21.062C29.0946 21.0289 29.4702 21.0879 29.8419 21.105C30.0427 21.1501 30.2446 21.1915 30.4444 21.2411C31.9328 21.6103 33.318 22.2254 34.6339 22.9975C35.5598 23.5409 36.3375 24.254 36.986 25.106C37.548 25.8445 37.9952 26.6481 38.3802 27.4885C39.088 29.0344 39.4153 30.6535 39.2983 32.3499C39.1962 33.8318 38.8689 35.2675 38.3385 36.6568C37.9619 37.6439 37.5031 38.5885 36.8623 39.4355C36.0075 40.5648 34.919 41.4339 33.6997 42.1393C33.0584 42.5102 32.3638 42.7703 31.6221 42.8866C31.4196 42.9186 31.221 42.9764 31.0202 43.0222V43.0216ZM22.7543 33.6907C23.6103 33.6709 24.2732 33.3099 24.7825 32.675C25.4061 31.8974 25.6601 31.0002 25.5852 30.011C25.5176 29.1198 25.1891 28.3411 24.5384 27.7145C24.0208 27.2157 23.3984 26.9357 22.6705 26.9727C21.8845 27.0123 21.2631 27.3866 20.7855 27.9994C20.3711 28.5312 20.1508 29.1446 20.061 29.8032C19.9256 30.7979 20.1059 31.731 20.6984 32.5571C21.2038 33.262 21.8911 33.6615 22.7543 33.6902V33.6907ZM32.3993 30.2463C32.4137 31.257 32.6911 32.1146 33.3452 32.8205C33.9954 33.5221 34.7992 33.8368 35.7584 33.6213C36.5245 33.4488 37.0754 32.9715 37.4665 32.3096C37.9341 31.5188 38.0667 30.6596 37.9336 29.7618C37.8254 29.0316 37.5613 28.362 37.0526 27.8065C36.1179 26.7864 34.6672 26.6877 33.612 27.5838C32.7727 28.2964 32.4243 29.2333 32.3999 30.2474L32.3993 30.2463ZM32.7255 34.2655C32.7116 34.2606 32.6978 34.2551 32.6834 34.2501C32.6035 34.3614 32.5186 34.47 32.4448 34.5852C31.7331 35.694 30.7506 36.3846 29.4108 36.5251C28.394 36.632 27.4786 36.3719 26.6487 35.7861C26.1749 35.4515 25.8343 35.0024 25.5192 34.529C25.4549 34.432 25.3828 34.3405 25.314 34.2468C25.3001 34.2529 25.2862 34.2589 25.2718 34.265C25.2718 34.5174 25.2601 34.7704 25.274 35.0222C25.3273 35.9944 25.5686 36.928 25.9098 37.8357C26.2182 38.6557 26.611 39.4311 27.2528 40.055C28.1288 40.9059 29.4169 41.036 30.4005 40.3355C30.9414 39.9503 31.3281 39.4361 31.6288 38.8563C32.356 37.451 32.7488 35.9619 32.7444 34.3763C32.7444 34.3399 32.7322 34.3036 32.7255 34.2672V34.2655Z" fill="#D9D9FD"/>
<path d="M31.0202 43.0216C31.2205 42.9759 31.4191 42.918 31.6221 42.8861C32.3638 42.7698 33.0584 42.5097 33.6997 42.1388C34.919 41.4333 36.0075 40.5648 36.8623 39.435C37.5031 38.5879 37.9619 37.6433 38.3385 36.6563C38.8689 35.2669 39.1962 33.8313 39.2983 32.3493C39.4153 30.6524 39.0875 29.0338 38.3802 27.488C37.9952 26.6475 37.548 25.8434 36.986 25.1055C36.3375 24.2535 35.5603 23.5398 34.6339 22.9969C33.318 22.2248 31.9328 21.6098 30.4444 21.2405C30.2446 21.1909 30.0427 21.1496 29.8419 21.1044C30.2907 21.1645 30.7406 21.2157 31.1877 21.2863C31.9649 21.4092 32.7294 21.5877 33.4744 21.844C34.4625 22.1835 35.3301 22.739 36.1744 23.3326C36.6465 23.6649 37.1114 24.0115 37.5502 24.3857C38.2054 24.944 38.7402 25.6037 39.1346 26.3742C39.7876 27.6494 40.3251 28.9688 40.704 30.3493C40.9359 31.1942 40.9337 32.0627 40.9143 32.9291C40.8627 35.2432 40.2591 37.4041 39.0647 39.3948C38.46 40.4033 37.5846 41.1209 36.5539 41.6758C35.5032 42.2418 34.377 42.5653 33.2065 42.751C32.5408 42.8569 31.8695 42.9302 31.2005 43.0167C31.1411 43.0244 31.0801 43.02 31.0196 43.0211L31.0202 43.0216Z" fill="#6666F5"/>
<path d="M35.4411 19.5971C35.045 19.2003 34.6416 18.8101 34.255 18.4045C34.0259 18.1642 33.8472 17.8865 33.7357 17.569C33.6231 17.2477 33.6092 16.9242 33.7712 16.6239C33.9793 16.2386 34.2184 15.8694 34.4436 15.4935C34.4453 15.5415 34.4558 15.5911 34.4475 15.6374C34.2883 16.4982 34.3992 17.3177 34.8009 18.1019C35.0106 18.512 35.1925 18.9358 35.3817 19.3563C35.415 19.4307 35.4216 19.5172 35.4405 19.5982L35.4411 19.5971Z" fill="#D9D9FD"/>
<path d="M35.4411 19.5971C35.4222 19.5161 35.4155 19.4296 35.3822 19.3552C35.1931 18.9352 35.0111 18.5109 34.8014 18.1008C34.3998 17.3166 34.2888 16.4976 34.448 15.6363C34.4564 15.59 34.4458 15.5404 34.4442 15.4924C34.5124 15.391 34.5806 15.2896 34.6489 15.1888C34.6588 15.1926 34.6683 15.1959 34.6783 15.1998C34.6783 15.4764 34.6677 15.7542 34.6805 16.0303C34.7176 16.8592 34.9695 17.6208 35.4571 18.2965C35.8066 18.7804 36.0202 19.3116 36.0518 19.9052C36.0629 20.1179 36.0136 20.3334 35.9603 20.55C35.8682 20.1802 35.6907 19.8699 35.4422 19.5971L35.4411 19.5971Z" fill="#6666F5"/>
<path d="M21.9477 19.9901C21.9627 19.4478 22.0991 18.9325 22.4203 18.4965C23.0639 17.623 23.3596 16.652 23.3429 15.5784C23.5748 15.9548 23.6946 16.3698 23.7812 16.7986C23.8577 17.1777 23.81 17.5431 23.6281 17.876C23.4999 18.1102 23.3418 18.3389 23.1548 18.5285C22.7188 18.9694 22.3027 19.4213 21.9954 19.9631C21.9876 19.9768 21.9638 19.9812 21.9477 19.9901Z" fill="#D9D9FD"/>
<path d="M21.9477 19.9901C21.9638 19.9812 21.9876 19.9768 21.9954 19.9631C22.3027 19.4213 22.7188 18.9694 23.1548 18.5285C23.3424 18.3389 23.5005 18.1102 23.6281 17.876C23.81 17.5431 23.8577 17.1777 23.7812 16.7986C23.6946 16.3698 23.5748 15.9548 23.3429 15.5784C23.3357 15.4505 23.3285 15.3221 23.3196 15.1601C23.3662 15.2185 23.3956 15.2499 23.4184 15.2852C23.6563 15.6555 23.9004 16.022 24.129 16.3979C24.4519 16.9292 24.4202 17.472 24.0691 17.9631C23.7889 18.3555 23.4466 18.7054 23.121 19.0642C22.9601 19.2416 22.771 19.3938 22.5995 19.5624C22.3216 19.8368 22.1385 20.1642 22.0709 20.5533C22.0537 20.5533 22.0365 20.5533 22.0187 20.5533L21.9477 19.9895L21.9477 19.9901Z" fill="#6666F5"/>
<path d="M11.3651 30.2953C11.2603 30.076 11.156 29.8566 11.0345 29.6015C11.1277 29.6467 11.1943 29.6748 11.257 29.71C11.5588 29.8792 11.8689 30.0363 12.1585 30.2242C12.6993 30.5753 12.8979 31.1049 12.8652 31.7227C12.8275 32.4353 13.0683 33.0239 13.6019 33.4978C13.6158 33.51 13.6252 33.5276 13.6369 33.5425C13.6297 33.5541 13.623 33.5656 13.6158 33.5772C13.3911 33.4543 13.1659 33.3309 12.9412 33.208C12.9212 33.1628 12.9063 33.1143 12.8796 33.0729C12.6799 32.7654 12.5695 32.4265 12.5168 32.0666C12.4874 31.8643 12.4597 31.6615 12.4236 31.4604C12.3726 31.1749 12.2317 30.9357 12.0114 30.7478C11.8367 30.5984 11.6514 30.4607 11.4683 30.3212C11.4423 30.3014 11.4001 30.3036 11.3651 30.2953Z" fill="#6666F5"/>
<path d="M11.3651 30.2953C11.4001 30.3036 11.4423 30.3014 11.4683 30.3212C11.652 30.4607 11.8367 30.5984 12.0114 30.7478C12.2317 30.9357 12.372 31.1749 12.4236 31.4604C12.4597 31.6615 12.4874 31.8643 12.5168 32.0666C12.569 32.4265 12.6799 32.7649 12.8796 33.0729C12.9063 33.1137 12.9207 33.1628 12.9412 33.208C12.1834 32.8327 11.8189 32.1917 11.6658 31.3909C11.5948 31.0206 11.4672 30.6607 11.3657 30.2959L11.3651 30.2953Z" fill="#D9D9FD"/>
<path d="M46.1101 30.0732C46.3842 29.9134 46.6582 29.7536 46.9317 29.5938C46.9406 29.6048 46.9495 29.6158 46.9584 29.6263C46.95 29.6478 46.945 29.6709 46.9334 29.6902C46.6366 30.1868 46.4458 30.7268 46.3598 31.2912C46.2067 32.2948 45.6663 32.9815 44.7438 33.3904C44.6289 33.4411 44.518 33.5006 44.4048 33.5546C44.3871 33.5629 44.3676 33.5673 44.3321 33.5794C44.4203 33.4874 44.4975 33.4075 44.5735 33.327C44.812 33.0751 44.9729 32.7786 45.0777 32.4507C45.1094 32.4298 45.1521 32.416 45.1709 32.3868C45.3684 32.0815 45.4955 31.7459 45.5742 31.3937C45.6796 30.923 45.8322 30.4733 46.1101 30.0727V30.0732Z" fill="#6666F5"/>
<path d="M46.1101 30.0732C45.8322 30.4739 45.6802 30.9241 45.5742 31.3942C45.4949 31.7464 45.3684 32.082 45.1709 32.3874C45.1521 32.4166 45.1094 32.4303 45.0777 32.4513C45.1094 32.0457 45.1243 31.6378 45.1759 31.2344C45.2447 30.6921 45.6103 30.3548 46.0513 30.0826C46.0669 30.0732 46.0907 30.076 46.1101 30.0732Z" fill="#D9D9FD"/>
<path d="M15.8076 22.1466C15.71 21.9234 15.6151 21.6991 15.5136 21.4775C15.4448 21.3282 15.3661 21.1832 15.2823 21.0184C15.3222 21.0295 15.3527 21.0295 15.3716 21.0443C15.796 21.3673 16.2087 21.7029 16.5299 22.1333C16.789 22.4805 16.9787 22.8636 16.9854 23.3028C16.9882 23.5018 16.9554 23.7194 16.8728 23.898C16.5826 24.5224 16.4645 25.1694 16.5316 25.8528C16.5161 25.8589 16.5011 25.8649 16.4856 25.8704C16.3829 25.6522 16.2803 25.434 16.1777 25.2157C16.1882 25.1782 16.2032 25.1419 16.2082 25.1038C16.257 24.7241 16.2686 24.3361 16.3591 23.9663C16.5272 23.2786 16.2531 22.7291 15.8798 22.1973C15.8637 22.1747 15.8321 22.1631 15.8076 22.1466Z" fill="#6666F5"/>
<path d="M15.8076 22.1466C15.8321 22.1631 15.8637 22.1747 15.8798 22.1973C16.2531 22.7291 16.5272 23.2786 16.3591 23.9663C16.2686 24.3356 16.257 24.7241 16.2082 25.1038C16.2032 25.1419 16.1882 25.1782 16.1777 25.2157C16.0068 24.8084 15.9408 24.3813 15.9519 23.9432C15.9663 23.3496 15.9813 22.7566 15.7866 22.1829C15.7838 22.1741 15.8004 22.1592 15.8076 22.1471V22.1466Z" fill="#D9D9FD"/>
<path d="M41.7858 21.8142C41.8818 21.7073 41.9689 21.5905 42.0759 21.4957C42.2812 21.3144 42.4976 21.1463 42.7333 20.9953C42.7117 21.0377 42.6906 21.0807 42.6679 21.1226C42.2379 21.8964 41.995 22.7148 42.0515 23.6081C42.0937 24.2788 42.0005 24.9264 41.6882 25.5315C41.6344 25.6362 41.5739 25.7382 41.5168 25.8412C41.4973 25.8385 41.4785 25.8357 41.4591 25.8324V25.0041C41.4713 25.025 41.4829 25.046 41.4951 25.0675C41.5101 25.0675 41.5251 25.0675 41.54 25.0675C41.54 24.8465 41.5484 24.6255 41.5378 24.4056C41.5212 24.0518 41.4901 23.699 41.4674 23.3458C41.4363 22.8647 41.4918 22.3995 41.7303 21.968C41.7564 21.9212 41.7675 21.866 41.7853 21.8148L41.7858 21.8142Z" fill="#6666F5"/>
<path d="M41.7858 21.8142C41.7681 21.8655 41.7564 21.9206 41.7309 21.9675C41.4923 22.3984 41.4369 22.8636 41.4679 23.3452C41.4907 23.6985 41.5212 24.0518 41.5384 24.405C41.5489 24.6255 41.5406 24.8465 41.5406 25.0669C41.5256 25.0669 41.5106 25.0669 41.4957 25.0669C41.4835 25.046 41.4718 25.025 41.4596 25.0035C41.3742 24.6971 41.3187 24.3791 41.1983 24.087C40.8727 23.2967 41.0757 22.3835 41.7303 21.8313C41.7442 21.8198 41.7669 21.8192 41.7858 21.8137L41.7858 21.8142Z" fill="#D9D9FD"/>
<path d="M22.7543 33.6907C21.8911 33.6621 21.2038 33.2625 20.6984 32.5576C20.1059 31.731 19.9256 30.7985 20.061 29.8037C20.1508 29.1452 20.3711 28.5318 20.7855 27.9999C21.2631 27.3871 21.8845 27.0129 22.6705 26.9732C23.3984 26.9363 24.0203 27.2163 24.5384 27.715C25.1891 28.3422 25.5176 29.1204 25.5852 30.0115C25.6601 31.0008 25.4061 31.898 24.7825 32.6756C24.2732 33.3105 23.6103 33.6714 22.7543 33.6913V33.6907ZM22.0991 30.2997C22.8475 30.2711 23.6009 29.8544 23.9221 29.2653C24.2694 28.6282 23.9853 27.9459 23.2874 27.7382C22.984 27.6478 22.68 27.661 22.3787 27.7404C21.7691 27.9018 21.2709 28.2187 20.9774 28.7908C20.6945 29.3425 20.9109 29.9189 21.49 30.1482C21.6825 30.2242 21.8955 30.2501 22.0997 30.2986L22.0991 30.2997ZM24.4879 31.591C24.4929 31.1275 24.2854 30.7594 23.9864 30.6993C23.5265 30.6073 23.08 30.7048 22.7183 30.9914C22.3843 31.2565 22.2262 31.6467 22.204 32.0743C22.1801 32.5323 22.4653 32.7891 22.923 32.7395C23.2791 32.7009 23.607 32.5731 23.9226 32.4144C24.2932 32.2281 24.4768 31.92 24.4879 31.591ZM20.5109 30.0407C20.3844 31.0889 20.9702 32.3008 21.6942 32.6613C21.4617 31.9861 21.6975 31.4157 22.1008 30.8679C21.4412 30.82 20.897 30.6056 20.5109 30.0402V30.0407ZM25.0066 30.9038C25.2701 30.2804 24.955 28.6007 24.5412 28.3874C24.6865 29.0426 24.448 29.5844 24.0114 30.0931C24.5096 30.1807 24.8208 30.4612 25.0061 30.9038H25.0066Z" fill="#1414F0"/>
<path d="M32.3993 30.2463C32.4237 29.2317 32.7716 28.2953 33.6115 27.5827C34.6672 26.6866 36.1173 26.7853 37.0521 27.8054C37.5613 28.3609 37.8248 29.0305 37.933 29.7607C38.0662 30.6585 37.933 31.5182 37.4659 32.3085C37.0748 32.9704 36.5245 33.4477 35.7578 33.6202C34.7986 33.8362 33.9948 33.521 33.3446 32.8194C32.6906 32.114 32.4137 31.2559 32.3988 30.2452L32.3993 30.2463ZM35.972 30.2777C36.0774 30.2551 36.2859 30.2336 36.4762 30.1642C37.0859 29.941 37.31 29.3463 37.016 28.7704C36.6382 28.0303 35.6263 27.5453 34.8092 27.7123C34.1928 27.8379 33.8311 28.362 33.9582 28.9506C34.0103 29.1909 34.134 29.397 34.3021 29.5745C34.7271 30.0225 35.253 30.2496 35.972 30.2771V30.2777ZM33.5055 31.4896C33.5116 31.8654 33.6614 32.168 33.9848 32.3598C34.3105 32.5527 34.6644 32.6861 35.045 32.7346C35.5498 32.799 35.8466 32.508 35.795 32.0016C35.7279 31.3424 35.3462 30.9005 34.7004 30.7346C34.6422 30.7197 34.584 30.7015 34.5251 30.6894C34.0209 30.5841 33.6808 30.7687 33.5499 31.224C33.5255 31.3094 33.5194 31.4009 33.5049 31.489L33.5055 31.4896ZM35.8965 30.8696C36.3115 31.4157 36.5306 31.99 36.3081 32.6728C37.0476 32.297 37.7106 30.8046 37.4881 30.0391C37.1186 30.6073 36.5622 30.8189 35.8965 30.8701V30.8696ZM33.9388 30.1024C33.7884 29.8203 33.6248 29.5574 33.5049 29.2763C33.379 28.9815 33.3857 28.6646 33.4778 28.329C32.9951 28.7985 32.7055 30.3874 33.0001 30.8933C33.1826 30.4563 33.4955 30.1774 33.9388 30.1024Z" fill="#1414F0"/>
<path d="M32.7255 34.2655C32.7322 34.3019 32.7444 34.3383 32.7444 34.3747C32.7483 35.9602 32.356 37.4499 31.6288 38.8547C31.3286 39.4344 30.942 39.9486 30.4005 40.3339C29.4169 41.0343 28.1288 40.9048 27.2528 40.0533C26.611 39.4295 26.2182 38.6541 25.9098 37.834C25.5686 36.9269 25.3273 35.9933 25.274 35.0206C25.2601 34.7687 25.2718 34.5158 25.2718 34.2633C25.2857 34.2573 25.2995 34.2512 25.314 34.2452C25.3827 34.3394 25.4549 34.4309 25.5192 34.5273C25.8343 35.0007 26.1749 35.4499 26.6487 35.7844C27.4786 36.3708 28.394 36.6304 29.4108 36.5235C30.7506 36.3829 31.7325 35.6924 32.4448 34.5835C32.5186 34.4684 32.604 34.3598 32.6834 34.2485C32.6972 34.2534 32.7111 34.2589 32.7255 34.2639V34.2655ZM30.1437 40.0506C30.1958 40.0208 30.2513 39.9966 30.2996 39.9613C30.7384 39.6395 31.0551 39.2184 31.2959 38.7367C31.7941 37.7398 32.112 36.6844 32.32 35.5943C32.3333 35.5254 32.3416 35.4554 32.3505 35.3959C32.1286 35.6196 31.9222 35.8517 31.6909 36.0556C31.2865 36.4121 30.8099 36.6469 30.2968 36.8106C29.7509 36.9142 29.2 36.9329 28.6447 36.9225C27.7427 36.9054 26.9472 36.6194 26.2715 36.0264C26.0473 35.8296 25.8515 35.6009 25.6485 35.3926C25.664 35.4824 25.6807 35.5899 25.7017 35.6957C25.9275 36.8073 26.2509 37.8864 26.7907 38.8916C27.0886 39.4455 27.4991 39.8985 28.0733 40.1851C28.7884 40.5422 29.4796 40.4942 30.1431 40.05L30.1437 40.0506Z" fill="#1414F0"/>
<path d="M22.0991 30.2997C21.8955 30.2507 21.6825 30.2253 21.4895 30.1493C20.9103 29.92 20.6939 29.3436 20.9769 28.7919C21.2703 28.2193 21.7685 27.9024 22.3782 27.7415C22.6794 27.6616 22.9834 27.6489 23.2869 27.7393C23.9853 27.9465 24.2694 28.6293 23.9215 29.2664C23.6003 29.8555 22.847 30.2716 22.0986 30.3008L22.0991 30.2997Z" fill="#D9D9FD"/>
<path d="M24.4879 31.591C24.4768 31.92 24.2938 32.2281 23.9226 32.4144C23.607 32.5731 23.2791 32.7009 22.923 32.7395C22.4653 32.7891 22.1807 32.5317 22.204 32.0743C22.2262 31.6467 22.3837 31.2565 22.7183 30.9914C23.08 30.7048 23.5265 30.6073 23.9864 30.6993C24.2854 30.7594 24.4929 31.1275 24.4879 31.591Z" fill="#D9D9FD"/>
<path d="M20.5109 30.0407C20.897 30.6062 21.4412 30.8205 22.1008 30.8685C21.6975 31.4157 21.4617 31.9867 21.6942 32.6618C20.9702 32.3014 20.3849 31.0895 20.5109 30.0413V30.0407Z" fill="#6666F5"/>
<path d="M25.0066 30.9038C24.8213 30.4612 24.5101 30.1807 24.0119 30.0931C24.4485 29.5838 24.6865 29.0426 24.5417 28.3874C24.955 28.6007 25.2707 30.2804 25.0072 30.9038H25.0066Z" fill="#6666F5"/>
<path d="M35.972 30.2777C35.253 30.2501 34.7271 30.0231 34.3021 29.575C34.134 29.3976 34.0103 29.1914 33.9582 28.9512C33.8306 28.3626 34.1923 27.8385 34.8092 27.7128C35.6269 27.5458 36.6382 28.0308 37.016 28.7709C37.31 29.3469 37.0865 29.9415 36.4762 30.1647C36.2859 30.2342 36.0774 30.2551 35.972 30.2782L35.972 30.2777Z" fill="#D9D9FD"/>
<path d="M33.5055 31.4896C33.5199 31.4009 33.5255 31.3099 33.5504 31.2245C33.6814 30.7693 34.0214 30.5841 34.5257 30.6899C34.5845 30.702 34.6428 30.7202 34.701 30.7351C35.3462 30.9004 35.7284 31.3424 35.7955 32.0021C35.8471 32.5086 35.5503 32.7996 35.0455 32.7351C34.6649 32.6866 34.311 32.5532 33.9854 32.3603C33.6619 32.1686 33.5122 31.8666 33.5061 31.4901L33.5055 31.4896Z" fill="#D9D9FD"/>
<path d="M35.8965 30.8696C36.5622 30.8189 37.1181 30.6067 37.4881 30.0385C37.7106 30.804 37.0482 32.297 36.3081 32.6723C36.5306 31.99 36.3115 31.4157 35.8965 30.869L35.8965 30.8696Z" fill="#6666F5"/>
<path d="M33.9388 30.1024C33.495 30.1768 33.1826 30.4557 33.0001 30.8933C32.7055 30.3874 32.9951 28.7985 33.4778 28.329C33.3862 28.6646 33.3796 28.9815 33.5049 29.2763C33.6248 29.5574 33.7884 29.8203 33.9388 30.1024Z" fill="#6666F5"/>
<path d="M30.1437 40.0506C29.4802 40.4942 28.7895 40.5422 28.0739 40.1856C27.4997 39.899 27.0892 39.4466 26.7913 38.8921C26.2515 37.8875 25.9281 36.8078 25.7023 35.6962C25.6807 35.5899 25.6646 35.483 25.649 35.3931C25.8521 35.6014 26.0479 35.8302 26.272 36.0269C26.9477 36.6194 27.7432 36.9054 28.6453 36.923C29.2006 36.9335 29.7509 36.9147 30.2973 36.8111C30.3961 36.9263 30.537 37.0261 30.5875 37.1594C30.9603 38.1476 30.8848 39.0845 30.2158 39.9387C30.1886 39.9734 30.1681 40.0137 30.1448 40.0511L30.1437 40.0506Z" fill="#D9D9FD"/>
<path d="M30.1437 40.0506C30.1675 40.0131 30.1875 39.9729 30.2147 39.9382C30.8843 39.0834 30.9592 38.147 30.5864 37.1589C30.5359 37.0255 30.395 36.9258 30.2962 36.8106C30.8094 36.6469 31.2859 36.4121 31.6903 36.0556C31.9217 35.8517 32.128 35.6196 32.3499 35.3959C32.3411 35.4554 32.3327 35.5254 32.3194 35.5943C32.1108 36.6844 31.7935 37.7398 31.2954 38.7367C31.0546 39.2184 30.7378 39.6389 30.299 39.9613C30.2513 39.9966 30.1953 40.0214 30.1431 40.0506H30.1437Z" fill="#6666F5"/>
</svg>
