<svg width="58" height="58" viewBox="0 0 58 58" fill="none" xmlns="http://www.w3.org/2000/svg">
<circle cx="29" cy="29" r="29" fill="#C6FDB3"/>
<path d="M16.7438 21.5853C16.6924 21.5072 16.6477 21.4413 16.6055 21.3738C16.3197 20.9141 16.0091 20.4667 15.7548 19.9908C14.798 18.2002 14.9993 16.4649 16.3064 14.8972C17.2947 13.7119 18.5604 12.8854 19.9181 12.1825C21.5408 11.3421 23.2754 10.8287 25.092 10.5806C25.9551 10.4626 26.815 10.3154 27.6814 10.2324C28.8063 10.125 29.9346 10.1478 31.0553 10.3121C32.4064 10.5098 33.7657 10.6603 35.0869 11.0272C37.065 11.5764 38.8709 12.455 40.4754 13.7176C41.2143 14.2993 41.8471 14.9802 42.2986 15.8068C42.9605 17.0181 43.0226 18.2693 42.4535 19.5173C42.1694 20.1405 41.7726 20.7132 41.4255 21.3079C41.3742 21.3965 41.312 21.4787 41.2366 21.5902C41.486 21.6463 41.7105 21.6894 41.93 21.7488C42.1685 21.8139 42.4063 21.8847 42.6374 21.9717C42.7608 22.0181 42.8884 22.0872 42.9779 22.18C43.0507 22.2548 43.122 22.3931 43.0988 22.4794C43.0764 22.5648 42.9364 22.6762 42.847 22.6779C42.4966 22.6836 42.1437 22.6689 41.7966 22.6234C41.6193 22.5998 41.5672 22.6429 41.5141 22.7975C41.1356 23.9104 40.7438 25.0192 40.3652 26.1321C40.3362 26.2176 40.3445 26.342 40.3884 26.4201C40.6808 26.953 40.9939 27.4745 41.2863 28.0073C41.7958 28.9356 42.3798 29.8362 42.7832 30.8075C44.087 33.9518 43.7946 37.0319 42.2282 40.0241C41.1671 42.0506 39.5485 43.567 37.6581 44.8304C36.8058 45.3999 35.9236 45.9254 34.9511 46.2761C34.0432 46.6039 33.1055 46.7935 32.1322 46.7992C30.4481 46.8097 28.7641 46.835 27.0792 46.8333C26.3884 46.8333 25.6942 46.8097 25.0075 46.7422C24.1833 46.6609 23.3773 46.4624 22.626 46.1134C20.4002 45.0794 18.4428 43.685 16.9103 41.7772C15.3315 39.8117 14.4807 37.5517 14.3929 35.0501C14.3325 33.3116 14.711 31.6389 15.5236 30.0851C15.9693 29.2325 16.4812 28.4125 16.96 27.5762C17.177 27.1962 17.3941 26.8163 17.5937 26.4274C17.6376 26.3412 17.6442 26.2102 17.6136 26.1175C17.2392 25.0111 16.8507 23.9096 16.4762 22.8023C16.4191 22.6331 16.3512 22.6022 16.1731 22.6266C15.8409 22.6722 15.5021 22.6893 15.1674 22.6819C15.0672 22.6795 14.9032 22.5697 14.8883 22.4875C14.8692 22.3874 14.9463 22.2207 15.0357 22.1605C15.2312 22.0303 15.4532 21.9253 15.6785 21.8538C16.014 21.748 16.3611 21.6797 16.743 21.5853H16.7438ZM17.4272 22.8609C17.6094 23.3686 17.7983 23.8738 17.9739 24.383C18.3873 25.5846 18.7932 26.7878 19.2073 27.9894C19.2504 28.1139 19.2479 28.2774 19.4915 28.2302C21.3122 27.8772 23.1453 27.6128 25.0017 27.5233C25.0779 27.5192 25.1756 27.4688 25.2229 27.4094C25.5434 27.0002 25.8524 26.5828 26.1664 26.1696C26.3503 25.9271 26.5259 25.6774 26.7255 25.448C26.9351 25.2063 27.1703 25.0062 27.5224 24.959C28.5355 24.8232 29.5452 24.811 30.5525 24.9859C30.6942 25.0103 30.8507 25.068 30.9543 25.1608C31.1688 25.3536 31.3684 25.5684 31.5457 25.7953C31.9516 26.316 32.3351 26.8537 32.741 27.3744C32.8031 27.4533 32.9324 27.5143 33.0359 27.5249C33.8204 27.6014 34.6081 27.6502 35.3918 27.7324C35.936 27.7893 36.4753 27.8869 37.0162 27.9667C37.4966 28.0513 37.9795 28.1245 38.4559 28.227C38.6431 28.2668 38.7218 28.2123 38.7648 28.0496C38.7781 28 38.7971 27.9512 38.8137 27.9024C39.372 26.2957 39.9287 24.6889 40.4903 23.0838C40.5624 22.8772 40.6609 22.6803 40.757 22.4574C40.6593 22.4354 40.5814 22.4151 40.5027 22.4005C38.5437 22.0352 36.5631 21.8318 34.5775 21.6691C33.5296 21.5837 32.4793 21.5161 31.4289 21.46C30.5434 21.4128 29.6537 21.3388 28.7707 21.3746C26.8489 21.4519 24.9263 21.5544 23.0103 21.7171C21.3644 21.857 19.7275 22.0929 18.0874 22.2931C17.8016 22.328 17.52 22.3972 17.2077 22.4558C17.2947 22.616 17.3609 22.7389 17.4272 22.8617V22.8609ZM38.9562 21.3176C39.3439 21.3599 39.7307 21.4071 40.1192 21.4405C40.1805 21.4454 40.2749 21.4047 40.3064 21.3559C40.7769 20.6188 41.2996 19.9062 41.6881 19.1284C42.1586 18.1872 42.123 17.1946 41.6517 16.2396C41.2135 15.3504 40.54 14.6483 39.7622 14.0398C37.9671 12.6364 35.9194 11.7667 33.6754 11.3461C32.9026 11.2013 32.1148 11.1322 31.3345 11.0289C31.0595 10.9906 30.7853 10.9402 30.5094 10.9158C29.9569 10.867 29.3969 10.7653 28.8502 10.8068C27.6309 10.8987 26.4157 11.0468 25.2022 11.2046C23.3607 11.4438 21.6112 11.9783 19.9918 12.8829C18.7758 13.5622 17.6475 14.3522 16.8059 15.4797C15.8351 16.7814 15.6984 18.1489 16.511 19.5645C16.8647 20.1803 17.2822 20.7604 17.6832 21.3494C17.7229 21.4071 17.8497 21.4429 17.9292 21.434C19.3018 21.281 20.6752 21.1273 22.0461 20.9564C23.4179 20.7856 24.7871 20.6017 26.173 20.5993C27.9175 20.596 29.6612 20.6107 31.4049 20.5993C32.7162 20.5903 34.015 20.7148 35.3122 20.8767C36.5266 21.028 37.7418 21.172 38.9562 21.3185V21.3176ZM39.2403 28.6297C39.1219 28.6972 39.0084 28.8079 38.8833 28.8217C38.6936 28.8428 38.4931 28.8111 38.3026 28.7769C37.8073 28.6874 37.3185 28.5581 36.8215 28.4922C35.7049 28.3433 34.5858 28.2083 33.4642 28.0984C32.8852 28.0415 32.3749 27.9032 32.022 27.4086C31.6004 26.8171 31.1746 26.2281 30.7422 25.6432C30.6958 25.5806 30.5972 25.5195 30.5219 25.5187C29.4997 25.5106 28.4775 25.5106 27.4553 25.5179C27.3857 25.5179 27.2929 25.5741 27.2498 25.6318C26.7586 26.2826 26.2774 26.94 25.787 27.5916C25.5617 27.891 25.2369 28.0098 24.8708 28.0504C23.818 28.1676 22.7635 28.2742 21.7131 28.4125C20.8806 28.5223 20.0547 28.6769 19.2247 28.807C18.9282 28.8534 18.8097 28.7761 18.683 28.5011C18.538 28.1871 18.384 27.8772 18.2307 27.5583C18.1984 27.5835 18.176 27.5932 18.1661 27.6103C17.6036 28.5613 17.018 29.5002 16.4862 30.4683C15.7332 31.8383 15.3671 33.323 15.358 34.8736C15.3447 37.2483 16.1192 39.3903 17.52 41.3062C18.5794 42.7559 19.9727 43.8623 21.5292 44.7596C22.2714 45.1876 23.0393 45.6057 23.8478 45.8791C24.87 46.2248 25.9609 46.3322 27.0461 46.3485C27.8272 46.3607 28.6092 46.3192 29.3912 46.3013C30.4581 46.3843 31.5242 46.3924 32.5812 46.2037C33.1419 46.1036 33.7293 46.054 34.2495 45.8465C35.0463 45.5292 35.8233 45.1412 36.5597 44.7035C38.7358 43.4067 40.5292 41.7455 41.5986 39.4196C42.9182 36.5503 43.0474 33.6622 41.6608 30.7921C41.1306 29.6954 40.4431 28.672 39.826 27.616C39.8168 27.6006 39.7912 27.5941 39.7464 27.5664C39.5758 27.9268 39.4085 28.2782 39.242 28.6297H39.2403Z" fill="#0C2D01"/>
<path d="M11.0348 29.1845C10.9784 29.2911 10.9362 29.4725 10.8625 29.4863C10.7614 29.505 10.6057 29.4229 10.527 29.3366C10.1145 28.8859 10.1584 28.3604 10.3356 27.8373C10.6198 27.0018 11.2369 26.6902 12.1009 26.9237C12.2599 26.9668 12.4181 27.0156 12.5805 27.0441C12.8149 27.0856 12.9309 27.0002 12.9309 26.7651C12.9309 26.591 12.8862 26.4161 12.853 26.2436C12.8182 26.063 12.7586 25.8864 12.737 25.7042C12.6915 25.33 12.8712 25.0591 13.1943 24.8858C13.7294 24.5994 14.547 24.6629 14.9537 25.2316C15.0283 25.3357 15.0946 25.5 15.0606 25.6041C15.0374 25.6741 14.8344 25.7026 14.7077 25.7213C14.5387 25.7465 14.3648 25.7335 14.1958 25.7563C13.9514 25.7896 13.9117 25.8515 13.987 26.0833C14.1105 26.4624 14.1668 26.8399 14.0666 27.2361C13.8628 28.0439 13.2713 28.4499 12.4314 28.3449C12.2674 28.3246 12.105 28.2945 11.9402 28.2782C11.2849 28.214 10.9635 28.5117 11.0356 29.1845H11.0348ZM13.326 26.2745C13.3409 26.4372 13.3558 26.6007 13.3716 26.7634C13.3575 26.7789 13.3359 26.7911 13.3302 26.809C13.1479 27.3768 12.8721 27.5428 12.274 27.4444C12.1191 27.4191 11.9634 27.3947 11.8068 27.3793C11.2709 27.3264 10.9751 27.4997 10.7449 27.9968C10.546 28.3563 10.5419 28.7525 10.7341 28.9461C10.8153 28.2603 11.0489 28.0179 11.753 27.891C11.8267 27.878 11.9012 27.8723 11.9766 27.8658C12.298 27.8373 12.6211 27.8267 12.9392 27.7787C13.4047 27.7088 13.6532 27.459 13.6789 26.9985C13.6938 26.7244 13.6466 26.4429 13.5944 26.1712C13.4958 25.6578 13.7452 25.3739 14.277 25.4162C14.4211 25.4276 14.5669 25.4179 14.7118 25.4179C14.7135 25.3951 14.7143 25.3731 14.716 25.3503C14.4236 25.1876 14.127 25.0469 13.7708 25.1575C13.6913 25.1722 13.6093 25.1803 13.5323 25.2039C13.2838 25.2812 13.1347 25.4333 13.162 25.6318C13.1926 25.8498 13.2697 26.0614 13.3268 26.2753L13.326 26.2745Z" fill="#0C2D01"/>
<path d="M43.8418 26.7691C43.8915 26.5544 43.9346 26.3388 43.9918 26.1264C44.0713 25.8344 44.0357 25.775 43.725 25.7481C43.5246 25.7311 43.3216 25.7302 43.122 25.7075C42.8834 25.6798 42.8271 25.5684 42.9406 25.3593C43.3332 24.6352 44.425 24.5327 44.9908 25.0241C45.2873 25.2812 45.2964 25.6147 45.2119 25.9629C45.1614 26.1704 45.0852 26.3746 45.0595 26.5845C45.009 26.9953 45.1614 27.1173 45.5656 27.0156C45.675 26.988 45.781 26.9522 45.8895 26.9229C46.7328 26.6927 47.3391 26.9888 47.6365 27.7991C47.8212 28.3035 47.861 28.8095 47.5214 29.2781C47.4667 29.3537 47.3905 29.4221 47.3093 29.4701C47.1362 29.5726 47.0012 29.4928 46.9937 29.2919C46.9896 29.1886 46.9979 29.0853 46.9937 28.9819C46.9805 28.5573 46.7245 28.2904 46.2921 28.2782C46.0834 28.2725 45.873 28.3018 45.665 28.3295C44.5658 28.4784 43.8634 27.8723 43.841 26.7691H43.8418ZM45.5557 27.8202C45.9997 27.8633 46.4528 27.8625 46.8529 28.1009C47.1138 28.314 47.2389 28.5971 47.2646 28.9885C47.316 28.8892 47.3425 28.8542 47.3541 28.8152C47.4659 28.4263 47.3267 28.0879 47.118 27.7714C46.9067 27.4501 46.6003 27.3142 46.2101 27.3711C46.032 27.3972 45.8531 27.4183 45.675 27.446C44.9742 27.5542 44.5542 27.145 44.6652 26.4527C44.7 26.2346 44.7621 26.0215 44.8085 25.8051C44.845 25.6334 44.8466 25.4683 44.7017 25.3341C44.3885 25.0444 43.5983 25.0664 43.2512 25.4203C43.426 25.4203 43.5585 25.4325 43.6878 25.4179C43.9346 25.3894 44.1483 25.4423 44.3281 25.6147C44.3529 25.7831 44.3977 25.9523 44.3952 26.1207C44.3935 26.2566 44.3297 26.3908 44.3032 26.5267C44.1674 27.2109 44.4763 27.699 45.0968 27.7861L45.5557 27.8218V27.8202Z" fill="#0C2D01"/>
<path d="M47.1801 19.4839C47.4642 19.5506 47.9521 19.6653 48.4392 19.7817C48.5775 19.8142 48.7225 19.8354 48.8484 19.8931C48.9155 19.9241 48.9503 20.0241 49 20.0925C48.9188 20.1274 48.8368 20.195 48.7573 20.1909C48.5577 20.1811 48.3605 20.116 48.1617 20.1144C47.6564 20.1112 47.2687 20.3861 47.094 20.8507C47.0285 21.0231 46.9796 21.2013 46.9175 21.3746C46.664 22.0767 45.998 22.455 45.3544 22.2939C45.0637 22.2215 44.8085 22.3695 44.6271 22.6022C44.4076 22.8845 44.2146 23.179 44.1599 23.5459C44.1475 23.6313 44.0323 23.7013 43.9644 23.7786C43.8915 23.707 43.778 23.6476 43.7515 23.5622C43.4757 22.6754 43.7847 21.7814 44.5642 21.2656C44.748 21.1444 44.9899 21.0842 45.2144 21.0508C45.6269 20.9882 45.6501 20.9849 45.6882 20.5887C45.7578 19.8655 46.2258 19.4587 47.1801 19.4831V19.4839ZM45.6791 21.5674C45.4314 21.6121 45.1846 21.6699 44.9353 21.6967C44.6685 21.726 44.478 21.8546 44.3281 22.0604C44.237 22.2418 44.1458 22.424 44.0547 22.6055C44.0746 22.6152 44.0953 22.6258 44.1152 22.6356C44.1318 22.6234 44.1533 22.6136 44.1649 22.5981C44.5095 22.1141 44.9916 21.927 45.5805 21.9229C45.7288 21.9221 45.9144 21.844 46.0154 21.739C46.1662 21.5837 46.2987 21.386 46.3658 21.1834C46.5414 20.6546 46.7394 20.1535 47.2754 19.8508H46.857C46.3923 19.9013 46.1786 20.1315 46.1811 20.5781C46.1811 20.6871 46.1861 20.7962 46.1894 20.9052C46.1612 21.2314 45.974 21.4397 45.6783 21.5674H45.6791Z" fill="#0C2D01"/>
<path d="M11.0215 19.4766C11.796 19.4782 12.2334 19.8752 12.2955 20.6123C12.3245 20.9556 12.361 21.0166 12.6857 21.0345C13.7104 21.0907 14.3855 22.1808 14.3308 22.9349C14.3159 23.14 14.2927 23.3474 14.2364 23.5435C14.2099 23.6346 14.0939 23.7005 14.0185 23.7786C13.9539 23.6997 13.8504 23.6281 13.8321 23.5394C13.751 23.1416 13.5439 22.8145 13.2821 22.5143C13.1048 22.3118 12.8762 22.2434 12.6128 22.289C12.0015 22.3939 11.5094 22.1841 11.2104 21.6544C11.0919 21.4437 11.0141 21.2086 10.9387 20.9776C10.715 20.2942 10.1658 19.9826 9.45096 20.1445C9.36398 20.164 9.27369 20.1998 9.18837 20.1933C9.12044 20.1876 9.02187 20.1396 9.00282 20.0876C8.98625 20.0412 9.04589 19.9436 9.09891 19.9045C9.16103 19.859 9.25133 19.8484 9.33085 19.8305C9.85685 19.7125 10.382 19.597 10.9089 19.4823C10.9519 19.4725 10.9983 19.4766 11.0215 19.4758V19.4766ZM12.6103 21.6715C12.2392 21.5381 11.859 21.4144 11.7878 20.9515C11.7911 20.8637 11.7944 20.775 11.7977 20.6871C11.8234 20.0843 11.5542 19.8232 10.9362 19.8492H10.6968C11.3222 20.3992 11.3156 20.4016 11.6204 21.1997C11.69 21.3819 11.7911 21.5739 11.9335 21.7016C12.0644 21.8196 12.2682 21.9156 12.4438 21.9213C12.9963 21.94 13.4544 22.1108 13.7899 22.5558C13.8123 22.5851 13.847 22.6046 13.876 22.6291L13.9257 22.5998C13.8653 22.4631 13.8048 22.3264 13.7443 22.1889C13.5008 21.7334 13.0858 21.639 12.6111 21.6715H12.6103Z" fill="#0C2D01"/>
<path d="M29.3903 46.3013C28.6084 46.3192 27.8264 46.3607 27.0452 46.3485C25.9601 46.3322 24.8692 46.2248 23.847 45.8791C23.0385 45.6057 22.2706 45.1876 21.5284 44.7596C19.9719 43.8623 18.5786 42.7559 17.5191 41.3062C16.1184 39.3903 15.3439 37.2475 15.3571 34.8736C15.3663 33.323 15.7324 31.8383 16.4854 30.4683C17.0172 29.501 17.6028 28.5613 18.1653 27.6103C18.1752 27.5932 18.1976 27.5835 18.2299 27.5583C18.3831 27.878 18.5372 28.1879 18.6822 28.5011C18.8097 28.7761 18.9274 28.8542 19.2239 28.807C20.0539 28.6769 20.8798 28.5223 21.7123 28.4125C22.7626 28.2734 23.8171 28.1668 24.87 28.0504C25.2361 28.0098 25.5608 27.891 25.7861 27.5916C26.2765 26.94 26.7578 26.2818 27.249 25.6318C27.2929 25.5741 27.3849 25.5187 27.4545 25.5179C28.4766 25.5106 29.4988 25.5106 30.521 25.5187C30.5964 25.5187 30.695 25.5806 30.7414 25.6432C31.1738 26.2273 31.5995 26.8163 32.0212 27.4086C32.3732 27.9032 32.8843 28.0415 33.4633 28.0984C34.5849 28.2083 35.7041 28.3433 36.8207 28.4922C37.3185 28.5581 37.8073 28.6874 38.3018 28.7769C38.4931 28.8111 38.6928 28.8428 38.8825 28.8217C39.0075 28.8079 39.121 28.6972 39.2395 28.6297C39.2809 28.6956 39.3389 28.7566 39.3621 28.829C39.4822 29.2097 39.6064 29.5897 39.7067 29.9753C40.0041 31.1199 40.173 32.2743 39.9974 33.4596C39.8483 34.4652 39.5716 35.4382 39.2428 36.3973C38.2736 39.2309 36.5647 41.5836 34.3323 43.5808C33.1916 44.601 31.9359 45.4625 30.4622 45.9702C30.1085 46.0922 29.7465 46.1915 29.3887 46.3013H29.3903ZM34.271 34.1219C34.4897 33.8314 34.7092 33.541 34.9262 33.2497C34.9908 33.1627 35.0215 33.0561 34.889 33.0236C34.8301 33.0089 34.7324 33.0846 34.6736 33.1415C34.2528 33.5516 33.8626 33.9949 33.417 34.3757C32.3268 35.3072 31.0735 35.9393 29.6504 36.2224C28.4518 36.4616 27.3029 36.3753 26.2616 35.6692C26.221 35.6415 26.1639 35.6367 26.1142 35.622C26.1001 35.6497 26.0868 35.6765 26.0728 35.7042C26.6924 36.429 27.4959 36.8561 28.446 37.0433C28.9488 37.1946 29.464 37.2157 29.9809 37.1588C31.742 36.9635 33.0086 36.006 33.9927 34.6246C34.1037 34.4692 34.179 34.2903 34.2702 34.1219H34.271Z" fill="#9DFD7C"/>
<path d="M38.9562 21.3176C37.7418 21.1704 36.5266 21.0272 35.3122 20.8759C34.015 20.714 32.7162 20.5895 31.4049 20.5985C29.6612 20.6107 27.9167 20.596 26.173 20.5985C24.7871 20.6009 23.417 20.7848 22.0461 20.9556C20.6752 21.1265 19.3026 21.2802 17.9292 21.4332C17.8497 21.4421 17.7221 21.4063 17.6832 21.3486C17.2822 20.7596 16.8647 20.1795 16.511 19.5637C15.6984 18.1481 15.8351 16.7806 16.8059 15.4789C17.6467 14.3513 18.7758 13.5614 19.9918 12.8821C21.6112 11.9774 23.3607 11.4421 25.2022 11.2038C26.4149 11.0468 27.6309 10.8979 28.8502 10.806C29.3978 10.7645 29.9569 10.867 30.5094 10.915C30.7861 10.9394 31.0595 10.989 31.3345 11.0281C31.7089 11.1029 32.0808 11.1899 32.4577 11.251C34.6628 11.6089 36.5506 12.5363 38.0301 14.2122C38.6555 14.92 39.1508 15.6969 39.3695 16.6162C39.4698 17.0384 39.5161 17.4745 39.57 17.9065C39.705 18.9966 39.5849 20.0575 39.1575 21.0768C39.1194 21.1688 39.0249 21.2379 38.9562 21.3176Z" fill="#9DFD7C"/>
<path d="M37.0162 27.9658C36.4744 27.8861 35.9352 27.7893 35.3918 27.7315C34.6081 27.6494 33.8204 27.5998 33.0359 27.5241C32.9315 27.5143 32.8023 27.4533 32.741 27.3736C32.3351 26.8529 31.9516 26.3152 31.5457 25.7945C31.3684 25.5675 31.1688 25.3528 30.9543 25.16C30.8515 25.0672 30.6942 25.0095 30.5525 24.985C29.5452 24.8093 28.5355 24.8215 27.5224 24.9582C27.1703 25.0054 26.9351 25.2055 26.7255 25.4471C26.5259 25.6766 26.3503 25.9263 26.1664 26.1687C25.8524 26.5828 25.5434 27.0002 25.2229 27.4086C25.1756 27.468 25.0787 27.5192 25.0017 27.5225C23.1453 27.612 21.3122 27.8772 19.4915 28.2294C19.2479 28.2766 19.2496 28.1123 19.2073 27.9886C18.7932 26.7878 18.3873 25.5838 17.9739 24.3822C17.7983 23.8729 17.6094 23.3669 17.4272 22.8601C18.543 22.7617 19.6571 22.6551 20.7738 22.568C21.8978 22.4802 23.0219 22.3842 24.1477 22.3435C25.3272 22.3012 26.5093 22.3459 27.6889 22.3069C30.2791 22.2215 32.8603 22.2947 35.429 22.6461C36.2152 22.7535 36.9482 23.0163 37.5944 23.4743C38.1328 23.8559 38.2927 24.2602 38.0939 24.8736C37.8437 25.6465 37.538 26.4022 37.2638 27.1678C37.1702 27.4297 37.0982 27.699 37.0162 27.9642V27.9658Z" fill="#9DFD7C"/>
<path d="M29.3903 46.3013C29.7482 46.1915 30.1102 46.0922 30.4639 45.9702C31.9375 45.4625 33.1933 44.6018 34.334 43.5808C36.5664 41.5836 38.2753 39.2309 39.2445 36.3973C39.5725 35.4382 39.8491 34.4652 39.9991 33.4596C40.1755 32.2743 40.0057 31.1199 39.7083 29.9753C39.6081 29.5897 39.4847 29.2089 39.3637 28.829C39.3414 28.7574 39.2826 28.6956 39.2411 28.6297C39.4076 28.2782 39.575 27.9268 39.7456 27.5664C39.7903 27.5941 39.816 27.6006 39.8251 27.616C40.4423 28.672 41.1298 29.6954 41.6599 30.7921C43.0466 33.6622 42.9174 36.5503 41.5978 39.4196C40.5284 41.7455 38.735 43.4067 36.5589 44.7035C35.8233 45.142 35.0463 45.5292 34.2486 45.8465C33.7284 46.0532 33.142 46.1036 32.5803 46.2037C31.5225 46.3916 30.4572 46.3843 29.3903 46.3013Z" fill="#34C502"/>
<path d="M37.0162 27.9658C37.0982 27.6998 37.1702 27.4305 37.2638 27.1694C37.538 26.4039 37.8445 25.6481 38.0939 24.8752C38.2918 24.2618 38.1328 23.8575 37.5944 23.4759C36.9482 23.0179 36.2151 22.756 35.429 22.6478C32.8603 22.2963 30.2791 22.2231 27.6889 22.3085C26.5093 22.3476 25.3264 22.3028 24.1477 22.3451C23.0219 22.3858 21.8978 22.4818 20.7738 22.5697C19.6571 22.6567 18.5422 22.7633 17.4272 22.8617C17.3609 22.7389 17.2947 22.6169 17.2077 22.4558C17.5191 22.3972 17.8008 22.328 18.0874 22.2931C19.7275 22.0929 21.3652 21.857 23.0103 21.7171C24.9263 21.5544 26.8489 21.4519 28.7707 21.3746C29.6546 21.3388 30.5434 21.4128 31.4289 21.46C32.4793 21.5161 33.5296 21.5837 34.5775 21.6691C36.5622 21.8318 38.5428 22.0352 40.5027 22.4005C40.5822 22.4151 40.6601 22.4354 40.757 22.4574C40.6618 22.6803 40.5632 22.8772 40.4903 23.0838C39.9287 24.6889 39.372 26.2957 38.8137 27.9024C38.7963 27.9512 38.7781 28 38.7648 28.0496C38.7226 28.2115 38.6431 28.2668 38.4559 28.227C37.9795 28.1245 37.4966 28.0513 37.0162 27.9667L37.0162 27.9658Z" fill="#34C502"/>
<path d="M38.9562 21.3176C39.0241 21.2379 39.1185 21.1688 39.1575 21.0768C39.5841 20.0575 39.705 18.9966 39.57 17.9065C39.5161 17.4745 39.4698 17.0384 39.3695 16.6162C39.1508 15.6969 38.6555 14.92 38.0301 14.2122C36.5498 12.5363 34.6628 11.6089 32.4577 11.251C32.0808 11.1899 31.7089 11.1029 31.3345 11.0281C32.1156 11.1314 32.9026 11.2005 33.6754 11.3453C35.9194 11.7659 37.9671 12.6356 39.7622 14.0389C40.54 14.6467 41.2135 15.3487 41.6517 16.2387C42.1222 17.1938 42.1586 18.1863 41.6881 19.1276C41.2996 19.9053 40.7769 20.618 40.3064 21.3551C40.2749 21.4039 40.1805 21.4445 40.1192 21.4397C39.7307 21.4063 39.3439 21.3599 38.9562 21.3168V21.3176Z" fill="#34C502"/>
<path d="M13.77 25.1567C14.1262 25.0461 14.4236 25.1868 14.7152 25.3495C14.7135 25.3723 14.7127 25.3943 14.711 25.417C14.5661 25.417 14.4203 25.4268 14.2761 25.4154C13.7443 25.3739 13.495 25.657 13.5936 26.1704C13.6458 26.4421 13.693 26.7244 13.6781 26.9977C13.6524 27.4582 13.4039 27.708 12.9383 27.7779C12.6202 27.8259 12.2964 27.8365 11.9758 27.865C11.9012 27.8715 11.8259 27.8772 11.7521 27.8902C11.0489 28.0171 10.8153 28.2595 10.7333 28.9453C10.5402 28.7517 10.5444 28.3563 10.744 27.9959C10.7788 27.9878 10.8194 27.9894 10.8467 27.9707C11.2617 27.6819 11.7256 27.5843 12.2276 27.603C12.4422 27.6103 12.66 27.5835 12.8746 27.5591C13.0982 27.5339 13.2465 27.3956 13.3119 27.1946C13.3558 27.0588 13.3533 26.9074 13.3716 26.7626C13.3567 26.5999 13.3417 26.4364 13.326 26.2737C13.3244 26.1639 13.326 26.0548 13.321 25.945C13.3103 25.714 13.3591 25.5025 13.5588 25.3617C13.6673 25.2844 13.7998 25.2397 13.9332 25.1738C13.8711 25.1665 13.8205 25.1608 13.7692 25.1551L13.77 25.1567Z" fill="#34C502"/>
<path d="M13.3716 26.7634C13.3533 26.9082 13.3567 27.0588 13.3119 27.1954C13.2465 27.3964 13.0982 27.5347 12.8746 27.5599C12.66 27.5843 12.443 27.6111 12.2276 27.6038C11.7256 27.5859 11.2617 27.6827 10.8467 27.9715C10.8202 27.9902 10.7788 27.9886 10.744 27.9968C10.9743 27.4997 11.27 27.3264 11.806 27.3793C11.9625 27.3947 12.1183 27.4191 12.2732 27.4444C12.8712 27.5428 13.1471 27.3768 13.3293 26.809C13.3351 26.7911 13.3567 26.7789 13.3707 26.7634H13.3716Z" fill="#9DFD7C"/>
<path d="M13.77 25.1567C13.8205 25.1624 13.8711 25.1681 13.934 25.1754C13.8007 25.2405 13.6689 25.2861 13.5596 25.3633C13.36 25.5041 13.3103 25.7156 13.3219 25.9466C13.3268 26.0557 13.3252 26.1655 13.3268 26.2753C13.2697 26.0614 13.1926 25.8498 13.162 25.6318C13.1338 25.4333 13.2838 25.2812 13.5323 25.2039C13.6093 25.1803 13.6913 25.1722 13.7708 25.1575L13.77 25.1567Z" fill="#9DFD7C"/>
<path d="M44.3281 25.6131C44.1483 25.4414 43.9338 25.3886 43.6878 25.4162C43.5585 25.4309 43.426 25.4187 43.2512 25.4187C43.5975 25.0648 44.3885 25.0428 44.7017 25.3324C44.8475 25.4675 44.845 25.6318 44.8085 25.8035C44.763 26.0199 44.7008 26.2338 44.6652 26.451C44.5542 27.1434 44.9742 27.5526 45.675 27.4444C45.8531 27.4167 46.032 27.3956 46.2101 27.3695C46.6003 27.3126 46.9059 27.4484 47.118 27.7698C47.3267 28.0862 47.4659 28.4247 47.3541 28.8135C47.3425 28.8526 47.3168 28.8876 47.2646 28.9868C47.2397 28.5955 47.1147 28.3124 46.8529 28.0993C46.7949 28.0285 46.7527 27.9284 46.6773 27.8918C46.317 27.7161 45.9359 27.7519 45.5557 27.8186L45.0968 27.7828C45.1026 27.7714 45.1167 27.7551 45.1125 27.7494C45.1059 27.7389 45.0893 27.734 45.0761 27.7275C44.4565 27.433 44.2452 26.9587 44.444 26.3119C44.4813 26.1923 44.5294 26.0727 44.5426 25.9499C44.5592 25.7937 44.5484 25.6326 44.3281 25.6115V25.6131Z" fill="#34C502"/>
<path d="M44.3281 25.6131C44.5492 25.6334 44.56 25.7953 44.5426 25.9515C44.5294 26.0744 44.4813 26.194 44.444 26.3136C44.2444 26.9603 44.4556 27.4346 45.0761 27.7291C45.0893 27.7356 45.1059 27.7405 45.1125 27.7511C45.1158 27.7568 45.1026 27.773 45.0968 27.7844C44.4763 27.6974 44.1674 27.2093 44.3032 26.5251C44.3306 26.3884 44.3935 26.2542 44.3952 26.1191C44.3977 25.9507 44.3529 25.7823 44.3281 25.6131Z" fill="#9DFD7C"/>
<path d="M45.5557 27.8202C45.9359 27.7543 46.317 27.7177 46.6773 27.8934C46.7518 27.93 46.7949 28.0301 46.8529 28.1009C46.4528 27.8625 45.9997 27.8625 45.5557 27.8202Z" fill="#9DFD7C"/>
<path d="M46.8579 19.85H47.2762C46.7402 20.1527 46.5423 20.6538 46.3667 21.1826C46.2996 21.3852 46.167 21.5828 46.0163 21.7382C45.9144 21.8432 45.7297 21.9213 45.5814 21.9221C44.9924 21.9262 44.5103 22.1133 44.1657 22.5973C44.1541 22.6136 44.1326 22.6225 44.116 22.6347C44.0961 22.625 44.0754 22.6144 44.0555 22.6046C44.1467 22.4232 44.2378 22.241 44.3289 22.0596C44.7406 21.9392 45.1531 21.8212 45.5623 21.6943C45.6104 21.6797 45.641 21.6105 45.6799 21.5666C45.9748 21.4389 46.1629 21.2314 46.191 20.9044C46.2291 20.8515 46.2838 20.8035 46.3037 20.7449C46.4172 20.4032 46.5853 20.0949 46.8587 19.8492L46.8579 19.85Z" fill="#34C502"/>
<path d="M46.8579 19.85C46.5845 20.0957 46.4164 20.4032 46.3029 20.7457C46.283 20.8043 46.2292 20.8523 46.1902 20.9052C46.1877 20.7962 46.1828 20.6871 46.1819 20.5781C46.1795 20.1307 46.3932 19.9013 46.8579 19.8508L46.8579 19.85Z" fill="#9DFD7C"/>
<path d="M45.6791 21.5674C45.6402 21.6113 45.6095 21.6805 45.5615 21.6951C45.1523 21.8228 44.7398 21.94 44.3281 22.0604C44.4772 21.8546 44.6685 21.726 44.9353 21.6967C45.1854 21.6691 45.4314 21.6113 45.6791 21.5674Z" fill="#9DFD7C"/>
<path d="M13.7435 22.1889C13.804 22.3256 13.8644 22.4623 13.9249 22.5998L13.8752 22.6291C13.8462 22.6046 13.8106 22.5851 13.7891 22.5558C13.4536 22.1108 12.9955 21.9408 12.443 21.9213C12.2674 21.9156 12.0644 21.8196 11.9327 21.7016C11.7902 21.5739 11.6892 21.3819 11.6196 21.1997C11.3148 20.4016 11.3214 20.3992 10.696 19.8492H10.9354C11.2907 20.0404 11.521 20.3292 11.6478 20.705C11.6776 20.7929 11.7397 20.8694 11.7869 20.9515C11.859 21.4144 12.2392 21.5381 12.6095 21.6715C12.9532 21.8456 13.297 22.0197 13.6433 22.1914C13.6698 22.2044 13.7095 22.1914 13.7435 22.1897V22.1889Z" fill="#34C502"/>
<path d="M11.7878 20.9515C11.7405 20.8694 11.6776 20.7929 11.6486 20.705C11.5218 20.3284 11.2916 20.0396 10.9362 19.8492C11.555 19.8232 11.8234 20.0843 11.7977 20.6871C11.7944 20.775 11.7911 20.8637 11.7878 20.9515Z" fill="#9DFD7C"/>
<path d="M13.7435 22.1889C13.7095 22.1906 13.6698 22.2036 13.6433 22.1906C13.2978 22.0197 12.9541 21.8448 12.6095 21.6707C13.0841 21.6382 13.4991 21.7325 13.7427 22.1881L13.7435 22.1889Z" fill="#9DFD7C"/>
<path d="M28.446 37.0441C27.495 36.857 26.6915 36.4307 26.0728 35.705C26.0868 35.6773 26.1001 35.6505 26.1142 35.6228C26.1639 35.6383 26.221 35.6424 26.2616 35.67C27.3037 36.3762 28.4518 36.4624 29.6504 36.2232C31.0735 35.9401 32.3268 35.308 33.417 34.3765C33.8626 33.9958 34.2536 33.5524 34.6736 33.1424C34.7316 33.0854 34.8293 33.0106 34.889 33.0244C35.0215 33.0561 34.9917 33.1635 34.9262 33.2506C34.7092 33.5418 34.4897 33.8322 34.271 34.1227C33.9786 34.4286 33.6953 34.745 33.3905 35.0395C32.4884 35.91 31.4778 36.608 30.2336 36.9326C29.6438 37.0864 29.0482 37.1035 28.446 37.0441Z" fill="#0C2D01"/>
<path d="M28.446 37.0441C29.0482 37.1035 29.6438 37.0864 30.2336 36.9326C31.4778 36.608 32.4884 35.91 33.3905 35.0395C33.6953 34.745 33.9778 34.4286 34.271 34.1227C34.1791 34.2911 34.1037 34.4701 33.9935 34.6254C33.0086 36.0068 31.742 36.9643 29.9818 37.1596C29.4649 37.2165 28.9496 37.1954 28.4468 37.0441L28.446 37.0441Z" fill="#34C502"/>
</svg>
