<svg width="58" height="58" viewBox="0 0 58 58" fill="none" xmlns="http://www.w3.org/2000/svg">
<circle cx="29" cy="29" r="29" fill="#EADAFB"/>
<path d="M9 27.679C9.01876 27.6026 9.04377 27.5269 9.05627 27.4499C9.16187 26.8077 9.4356 26.2391 9.81146 25.7156C9.9511 25.5212 10.0887 25.3233 10.245 25.1428C10.8966 24.393 11.055 23.5433 10.8425 22.5831C10.6715 21.8097 10.4972 21.0314 10.5124 20.2309C10.5326 19.2055 10.9376 18.3766 11.8443 17.8607C12.284 17.6101 12.7578 17.3921 13.2428 17.2519C14.3085 16.945 15.0435 16.3097 15.4569 15.2836C15.5667 15.0108 15.7105 14.747 15.8668 14.497C16.4712 13.5299 17.3272 13.1786 18.4283 13.4806C18.9056 13.6119 19.3614 13.8215 19.8254 13.9999C20.1367 14.1201 20.4424 14.2561 20.7557 14.3707C21.5602 14.6664 22.2806 14.5137 22.9129 13.9402C23.345 13.548 23.8438 13.2744 24.3989 13.1009C25.8766 12.6378 27.346 12.6621 28.7862 13.2363C29.1544 13.3827 29.4795 13.6382 29.8193 13.8521C29.9409 13.9291 30.0444 14.0347 30.1604 14.1214C30.662 14.4984 31.2233 14.6324 31.8208 14.4387C32.3704 14.2603 32.897 14.0111 33.4416 13.8174C33.8786 13.6618 34.3212 13.5015 34.7755 13.4175C35.6447 13.2564 36.3332 13.6001 36.8396 14.3047C37.0077 14.5387 37.1384 14.8004 37.2759 15.0545C37.3961 15.276 37.5052 15.503 37.6149 15.73C37.9408 16.4014 38.466 16.8422 39.1656 17.0873C39.5102 17.2081 39.8548 17.3296 40.1952 17.4615C40.3946 17.5386 40.5898 17.6295 40.7795 17.7281C41.8577 18.2898 42.3802 19.193 42.3149 20.3934C42.278 21.0752 42.1315 21.7514 42.0335 22.4297C41.9911 22.7226 41.9348 23.0135 41.9071 23.3079C41.8529 23.8827 42.0529 24.3861 42.3802 24.845C42.647 25.2192 42.936 25.5795 43.1902 25.9621C43.6029 26.5848 43.8461 27.2693 43.819 28.0254C43.7988 28.585 43.6293 29.1154 43.432 29.6354C43.2687 30.0651 43.0958 30.4907 42.9374 30.9225C42.665 31.6668 42.6247 32.4208 42.8672 33.1837C42.9394 33.4115 42.995 33.6447 43.0548 33.8766C43.2236 34.5292 43.1298 35.1513 42.7553 35.7039C42.4705 36.1246 42.1294 36.5086 41.8056 36.9022C41.6257 37.1216 41.4325 37.3292 41.2415 37.5395C40.5565 38.2935 40.2445 39.187 40.2279 40.1972C40.2029 41.7252 39.5595 42.9527 38.3924 43.9184C37.8713 44.3495 37.2509 44.587 36.6076 44.7543C34.2962 45.3555 31.9903 45.9949 29.6164 46.3046C28.6563 46.4295 27.6809 46.4573 26.711 46.4879C25.1499 46.5372 23.593 46.44 22.0611 46.1289C20.7029 45.8533 19.3516 45.5388 18.0045 45.2097C17.143 44.9987 16.2607 44.8126 15.4493 44.4703C13.7256 43.7421 12.8162 42.3716 12.6356 40.5151C12.6022 40.1701 12.5821 39.8244 12.5411 39.48C12.457 38.7809 12.1374 38.1859 11.6914 37.6555C11.2732 37.1591 10.832 36.6814 10.4166 36.1823C10.0143 35.6991 9.69474 35.1617 9.72114 34.5091C9.73642 34.1363 9.79965 33.7524 9.91914 33.3997C10.2478 32.4277 10.154 31.4988 9.77741 30.5622C9.51758 29.9159 9.31611 29.2452 9.09448 28.5836C9.05072 28.4496 9.03126 28.308 9 28.1705C9 28.0067 9 27.8428 9 27.679ZM28.2318 46.0248C28.5653 46.0047 28.9036 46.0158 29.2301 45.9595C30.348 45.7665 31.4679 45.5784 32.5746 45.3347C33.8606 45.0521 35.1382 44.7272 36.4124 44.3933C37.699 44.0566 38.6355 43.2727 39.2351 42.0842C39.5651 41.4302 39.6457 40.7283 39.6693 40.0111C39.6992 39.0912 39.9597 38.247 40.5356 37.5187C40.801 37.1827 41.0942 36.8689 41.3714 36.5419C41.6361 36.2295 41.9091 35.9226 42.1544 35.5949C42.5143 35.1138 42.6303 34.5737 42.4691 33.9849C42.4191 33.8023 42.3788 33.617 42.3211 33.4378C42.0106 32.4728 42.0738 31.5252 42.442 30.5886C42.6261 30.1193 42.8054 29.6479 42.9804 29.1751C43.3924 28.0657 43.2486 27.0333 42.5407 26.0822C42.36 25.8392 42.1822 25.5941 41.9967 25.3553C41.3784 24.561 41.2019 23.6814 41.4242 22.6997C41.5868 21.9819 41.7306 21.2577 41.8355 20.5295C41.9786 19.5367 41.543 18.7105 40.6621 18.2294C40.4196 18.0968 40.1605 17.9919 39.9034 17.8899C39.6457 17.7878 39.381 17.7024 39.1184 17.6143C38.2124 17.3116 37.5316 16.752 37.1224 15.8786C37.0258 15.6731 36.9292 15.4676 36.8188 15.2697C36.675 15.0115 36.5353 14.7477 36.3602 14.5109C36.0789 14.1305 35.7009 13.8951 35.2139 13.8576C34.8214 13.8271 34.4462 13.909 34.0836 14.0395C33.6209 14.2061 33.1686 14.4005 32.7108 14.5803C32.1467 14.8018 31.57 14.9455 30.9566 14.8574C30.4959 14.772 30.1076 14.5422 29.7574 14.2457C29.4768 14.0083 29.1857 13.7937 28.8397 13.6584C28.1297 13.3814 27.3932 13.2002 26.636 13.1613C25.7168 13.1141 24.8387 13.348 23.9821 13.6681C23.6194 13.8035 23.3297 14.0423 23.0386 14.2846C22.4606 14.7657 21.8048 14.9962 21.053 14.8469C20.7335 14.7838 20.4194 14.6817 20.111 14.5734C19.5295 14.3686 18.9647 14.1062 18.3727 13.9409C17.4418 13.6813 16.7915 13.9694 16.2816 14.7921C16.1919 14.9365 16.1169 15.0899 16.0398 15.2413C15.9398 15.4378 15.839 15.6335 15.7466 15.8335C15.3319 16.7332 14.6413 17.313 13.7062 17.624C13.2643 17.7712 12.8211 17.9232 12.4001 18.1183C11.367 18.5973 10.9085 19.3471 11.0127 20.4774C11.0745 21.1446 11.2385 21.8027 11.3677 22.463C11.4684 22.9774 11.5761 23.4877 11.4767 24.016C11.3684 24.5902 11.0662 25.0651 10.725 25.524C10.4958 25.8322 10.2616 26.1391 10.0623 26.4661C9.62804 27.1791 9.50438 27.9518 9.7531 28.7537C9.93859 29.3542 10.1567 29.9457 10.3853 30.5317C10.7605 31.4925 10.8452 32.4582 10.5208 33.4503C10.4353 33.7128 10.3714 33.9849 10.3283 34.2571C10.2332 34.8569 10.4728 35.3589 10.8431 35.8032C11.2065 36.2385 11.5865 36.6606 11.9652 37.0827C12.7023 37.904 13.142 38.8454 13.1719 39.9646C13.1809 40.3103 13.1907 40.6623 13.2629 40.9983C13.5992 42.5653 14.4864 43.6789 16.0127 44.244C16.2781 44.3426 16.5456 44.444 16.82 44.5106C18.0379 44.8078 19.2537 45.116 20.4799 45.375C21.5762 45.6068 22.6787 45.8394 23.791 45.9623C25.2646 46.1255 26.7513 46.0762 28.2332 46.0213L28.2318 46.0248Z" fill="#4E0099"/>
<path d="M41.7209 13.0558C41.9154 13.0558 42.1099 13.0641 42.3044 13.0544C43.0381 13.0176 43.7724 13.0266 44.4804 13.2349C44.8006 13.3286 45.1188 13.482 45.3905 13.6743C45.8393 13.9916 45.7761 14.4811 45.2779 14.7178C44.7979 14.9462 44.2754 15.0045 43.7523 15.0434C43.1611 15.0879 42.5705 15.1309 41.9786 15.1607C41.2311 15.1982 40.4919 15.126 39.77 14.9254C39.142 14.7511 38.9259 14.2658 39.2309 13.6841C39.3789 13.4015 39.5852 13.1502 39.7631 12.8829C39.902 12.6739 40.057 12.4719 40.1695 12.249C40.2973 11.9956 40.2279 11.8929 39.9472 11.9054C39.6589 11.9186 39.3726 11.9769 39.0836 11.9921C38.7022 12.0123 38.3187 12.0206 37.9366 12.0116C37.7289 12.0067 37.6483 11.795 37.8067 11.6457C38.0019 11.4617 38.2201 11.2937 38.4528 11.1611C39.0767 10.8043 39.7679 10.639 40.4759 10.5953C41.4687 10.5342 42.4649 10.5196 43.4598 10.5002C43.6439 10.4967 43.837 10.5446 44.0121 10.6078C44.3018 10.7119 44.3991 10.9889 44.2115 11.2312C44.0364 11.4569 43.8266 11.6707 43.5932 11.8332C43.1437 12.1449 42.6664 12.4163 42.1995 12.7038C42.0356 12.8044 41.8688 12.9016 41.7028 13.0009C41.7091 13.0196 41.7153 13.0384 41.7216 13.0571L41.7209 13.0558ZM38.6494 11.7089C38.862 11.6901 39.0739 11.6638 39.2872 11.654C39.5936 11.6395 39.9048 11.5992 40.2049 11.6381C40.5669 11.6853 40.7093 11.9845 40.5495 12.3129C40.4321 12.5545 40.2869 12.7843 40.1341 13.0051C39.9583 13.2578 39.752 13.489 39.5741 13.7396C39.2893 14.1409 39.4088 14.4845 39.8861 14.6088C40.1584 14.6796 40.4432 14.7025 40.7218 14.747C40.8087 14.7581 40.8962 14.7845 40.9817 14.7789C41.7737 14.7241 42.5664 14.6796 43.3563 14.5998C43.8377 14.5512 44.3143 14.4512 44.7902 14.3617C44.9069 14.3394 45.0139 14.2686 45.164 14.2041C45.0667 14.1284 45.016 14.0687 44.9514 14.0409C44.7145 13.9402 44.4804 13.8215 44.2323 13.7611C43.4271 13.5639 42.6032 13.6195 41.7841 13.6125C41.6493 13.5855 41.5117 13.5695 41.3804 13.5299C40.9407 13.398 40.8365 13.0516 41.1283 12.6947C41.2033 12.6031 41.2943 12.5253 41.3777 12.4413C41.773 12.2206 42.1697 12.0019 42.5629 11.7769C42.9019 11.5832 43.2375 11.384 43.571 11.1812C43.6467 11.1354 43.7071 11.0646 43.8044 10.9792C43.687 10.9535 43.6161 10.9313 43.5432 10.923C42.4594 10.7945 41.3811 10.8445 40.3057 11.016C39.6867 11.1146 39.0892 11.2896 38.5119 11.5312C38.3986 11.5784 38.293 11.6429 38.1832 11.6992C38.1916 11.7221 38.1999 11.7443 38.2083 11.7672C38.3548 11.7478 38.5021 11.729 38.6487 11.7096L38.6494 11.7089Z" fill="#4E0099"/>
<path d="M46.6737 17.9815C46.8161 17.9815 46.9585 17.985 47.1009 17.9815C47.5303 17.9697 47.9589 17.9732 48.3716 18.1107C48.5071 18.1558 48.6384 18.2224 48.7614 18.2967C48.9003 18.38 49.0156 18.496 48.9983 18.6751C48.9802 18.8646 48.8364 18.9611 48.6752 19.0063C48.4522 19.0687 48.2236 19.1243 47.9937 19.1451C47.2732 19.2111 46.5521 19.311 45.8289 19.1715C45.7059 19.1479 45.5822 19.1236 45.462 19.0875C45.1216 18.9861 44.9924 18.7244 45.1432 18.4002C45.2272 18.2197 45.3571 18.0614 45.4655 17.892C45.553 17.7552 45.6461 17.6205 45.7253 17.4789C45.792 17.3602 45.7358 17.2963 45.61 17.3039C45.3905 17.3178 45.1723 17.3498 44.9535 17.3609C44.7729 17.3699 44.5901 17.3685 44.4095 17.356C44.2685 17.3463 44.2247 17.2394 44.3206 17.1352C44.4046 17.0443 44.5082 16.9665 44.6138 16.9006C44.9848 16.6708 45.3988 16.5569 45.8282 16.5271C46.4117 16.4861 46.9974 16.4708 47.5824 16.4514C47.6942 16.4479 47.8096 16.466 47.9186 16.493C48.1945 16.5618 48.2653 16.7575 48.075 16.9658C47.9367 17.1172 47.7727 17.2526 47.6011 17.3664C47.2982 17.5671 46.98 17.7448 46.6681 17.9329C46.6695 17.9489 46.6709 17.9656 46.6723 17.9815H46.6737ZM46.1019 18.9785C46.17 18.9875 46.2388 19.0104 46.3048 19.0042C46.9863 18.9361 47.6678 18.866 48.3487 18.7876C48.455 18.7751 48.5557 18.7188 48.6585 18.682C48.6613 18.6584 48.6634 18.6348 48.6662 18.6119C48.5022 18.5439 48.3424 18.4335 48.1729 18.4161C47.6109 18.3578 47.0454 18.3328 46.4812 18.2953C46.186 18.1454 46.1609 18.1016 46.2242 17.8503C46.393 17.7122 46.55 17.5559 46.7327 17.4393C46.9766 17.2845 47.2433 17.1644 47.4955 17.0221C47.6192 16.9526 47.7324 16.8652 47.8631 16.777C47.2802 16.4903 44.9396 16.7957 44.5728 17.2109C44.7333 17.1922 44.8694 17.1762 45.0056 17.1602C45.2251 17.1484 45.4447 17.1248 45.6642 17.1269C45.9317 17.1297 46.0491 17.3213 45.9407 17.5601C45.9018 17.6455 45.8573 17.7302 45.8025 17.8059C45.6586 18.0044 45.5016 18.194 45.3613 18.3953C45.1994 18.6272 45.2703 18.8306 45.5433 18.8973C45.7246 18.9417 45.915 18.9521 46.1012 18.9771L46.1019 18.9785Z" fill="#4E0099"/>
<path d="M43.96 22.1887C43.753 22.2075 43.5459 22.2332 43.3382 22.2436C43.209 22.2498 43.0721 22.2561 42.9492 22.2228C42.8192 22.1874 42.8776 22.0797 42.9478 22.0423C43.2 21.9083 43.4515 21.7187 43.721 21.6826C44.2914 21.6063 44.8729 21.6056 45.4502 21.5945C45.5482 21.5924 45.692 21.6694 45.733 21.7514C45.7622 21.809 45.676 21.9666 45.5996 22.0256C45.3564 22.213 45.0938 22.3755 44.8382 22.5456C44.7784 22.5852 44.7145 22.6192 44.6221 22.6733C44.9722 22.6914 45.287 22.6838 45.5933 22.731C45.8038 22.7629 46.0178 22.8448 46.2033 22.951C46.4423 23.0892 46.4159 23.3447 46.1519 23.4308C45.9046 23.5113 45.6392 23.5502 45.3787 23.5759C44.8527 23.6273 44.3254 23.671 43.8044 23.5238C43.4862 23.4336 43.3917 23.2281 43.5522 22.9392C43.6189 22.8191 43.7085 22.7115 43.7842 22.5963C43.8558 22.4873 43.9225 22.3762 43.992 22.2658L43.9593 22.1901L43.96 22.1887ZM44.5908 22.9455C44.249 22.8296 44.215 22.7504 44.397 22.4949L45.5086 21.8256C45.5002 21.8062 45.4926 21.7875 45.4843 21.768C44.6763 21.6958 43.8822 21.7264 43.1249 22.0763H43.9857C44.1684 22.1485 44.1747 22.2846 44.0878 22.4241C43.9697 22.6143 43.8287 22.7907 43.7023 22.976C43.5536 23.1933 43.6057 23.3176 43.8634 23.3739C43.9927 23.3961 44.1226 23.4426 44.2497 23.437C44.6825 23.4183 45.1161 23.3898 45.5475 23.3482C45.7323 23.3301 45.9129 23.2711 46.0956 23.2308C46.0956 23.2017 46.097 23.1725 46.097 23.1434C45.947 23.0913 45.7997 23.0087 45.6461 22.9934C45.296 22.9594 44.9431 22.9587 44.5915 22.9448L44.5908 22.9455Z" fill="#4E0099"/>
<path d="M28.2318 46.0248C26.7499 46.0789 25.2632 46.1282 23.7896 45.9658C22.678 45.8429 21.5755 45.6096 20.4785 45.3784C19.2523 45.1195 18.0365 44.8112 16.8186 44.5141C16.5442 44.4474 16.2774 44.3461 16.0113 44.2475C14.4857 43.6824 13.5978 42.5681 13.2615 41.0018C13.1893 40.6658 13.1803 40.3138 13.1705 39.9681C13.14 38.8496 12.7002 37.9082 11.9638 37.0862C11.5851 36.6641 11.2051 36.242 10.8418 35.8067C10.4708 35.3623 10.2318 34.8597 10.327 34.2605C10.37 33.9884 10.4339 33.7156 10.5194 33.4538C10.8438 32.4617 10.7591 31.496 10.3839 30.5351C10.1554 29.9492 9.9372 29.3577 9.75171 28.7571C9.50369 27.9546 9.62666 27.1826 10.0609 26.4696C10.2603 26.1426 10.4944 25.835 10.7236 25.5274C11.0648 25.0692 11.367 24.5944 11.4754 24.0195C11.5747 23.4912 11.467 22.9809 11.3663 22.4665C11.2371 21.8062 11.0724 21.1481 11.0113 20.4809C10.9071 19.3506 11.3656 18.6008 12.3987 18.1218C12.8204 17.9267 13.2636 17.7739 13.7048 17.6275C14.6399 17.3164 15.3305 16.7367 15.7452 15.837C15.8376 15.637 15.9384 15.4405 16.0384 15.2448C16.1155 15.0934 16.1906 14.94 16.2802 14.7956C16.7901 13.9729 17.4411 13.6848 18.3713 13.9444C18.9633 14.1096 19.5274 14.3721 20.1096 14.5769C20.4181 14.6852 20.7321 14.7865 21.0517 14.8504C21.8034 14.9997 22.4592 14.7692 23.0372 14.2881C23.3283 14.0458 23.618 13.8076 23.9807 13.6716C24.8373 13.3515 25.7154 13.1175 26.6346 13.1647C27.3919 13.2036 28.1283 13.3848 28.8383 13.6618C29.185 13.7972 29.4754 14.0117 29.7561 14.2492C30.1062 14.5456 30.4953 14.7754 30.9552 14.8608C31.2734 15.0337 31.6193 15.0434 31.9674 15.0275C32.6788 14.9941 33.3638 14.8296 34.0356 14.5998C34.4337 14.4637 34.8388 14.4832 35.2223 14.6269C35.8309 14.8546 36.1643 15.3156 36.254 15.9598C36.3498 16.6485 36.6819 17.2116 37.2328 17.6288C37.5427 17.8635 37.8776 18.0697 38.218 18.2592C38.6751 18.5133 39.1517 18.7334 39.6137 18.9792C40.1646 19.2722 40.494 19.7297 40.5537 20.3545C40.578 20.6093 40.5975 20.8794 40.5412 21.1251C40.4224 21.6458 40.2626 22.1582 40.1028 22.6685C39.7485 23.7987 39.7791 24.8755 40.4002 25.9294C40.7406 26.507 40.9886 27.1402 41.2568 27.7581C41.4749 28.2614 41.4444 28.7738 41.1859 29.2556C40.9212 29.7492 40.635 30.2318 40.3529 30.7157C40.1577 31.051 39.9743 31.3953 39.9736 31.7911C39.9736 32.2243 40.0111 32.6582 40.0333 33.0914C40.0889 34.1703 39.8214 35.1263 38.9739 35.8594C38.7495 36.0531 38.5174 36.2371 38.2909 36.4287C37.5955 37.0168 37.2259 37.7367 37.3454 38.674C37.3857 38.9905 37.3975 39.3168 37.3697 39.6348C37.2843 40.6221 36.7743 41.3809 36.04 42.014C35.0847 42.8374 34.0391 43.5303 32.9338 44.1302C31.5221 44.8952 30.0687 45.5631 28.4909 45.9207C28.4013 45.9408 28.3179 45.9908 28.2318 46.0269L28.2318 46.0248ZM18.5429 29.3855C18.6819 29.3598 18.8215 29.3341 18.9605 29.3084C18.9605 29.2785 18.9605 29.2494 18.9605 29.2195C18.8021 29.1751 18.6465 29.105 18.4853 29.0897C17.7544 29.021 17.1417 28.7106 16.6018 28.226C16.4163 28.0601 16.1982 27.9303 15.9953 27.7838C15.9835 27.7963 15.971 27.8088 15.9592 27.8213C16.037 27.9379 16.1141 28.0546 16.1919 28.1719C16.2315 28.2955 16.2538 28.4288 16.3142 28.5405C16.5935 29.0543 17.05 29.3341 17.6064 29.4563C17.9212 29.525 18.2407 29.5417 18.5429 29.3855ZM34.3226 29.391C34.3386 29.4007 34.3531 29.4146 34.3698 29.4202C34.9784 29.6396 35.8725 29.391 36.3081 28.8481C36.4554 28.6648 36.5284 28.4218 36.6347 28.2066C36.7139 28.0782 36.7931 27.949 36.8723 27.8206C36.8584 27.8081 36.8445 27.7956 36.8306 27.7831C36.5444 28.0004 36.2512 28.2108 35.9726 28.4378C35.5731 28.7634 35.1257 28.9703 34.6144 29.0446C34.4344 29.071 34.2566 29.1126 34.0808 29.1557C34.0155 29.1716 33.9565 29.2133 33.8939 29.2438C33.8953 29.2681 33.8974 29.2924 33.8988 29.3174C34.0398 29.3424 34.1815 29.3667 34.3226 29.3917V29.391ZM24.2586 24.8429C24.3086 24.745 24.4079 24.636 24.2878 24.5402C24.1634 24.4409 24.0849 24.568 24.005 24.6423C23.9591 24.6853 23.9182 24.7332 23.8737 24.7783C23.3547 25.3032 22.7385 25.6489 22.0125 25.801C21.0336 26.0058 20.0561 25.9975 19.0814 25.7885C17.7093 25.4941 16.4421 24.9797 15.4062 23.9938C15.3381 23.9293 15.2589 23.8751 15.1797 23.8244C15.1478 23.8043 15.1012 23.8071 15.0616 23.7994C15.0554 23.839 15.0359 23.882 15.0463 23.9168C15.0943 24.0778 15.1505 24.2361 15.204 24.3951C15.3166 24.9304 15.5875 25.3782 15.9752 25.7538C16.5588 26.3196 17.2354 26.7563 17.9524 27.1333C18.7118 27.5325 19.5177 27.7088 20.3771 27.6588C21.4213 27.5984 22.2987 27.1479 23.1164 26.5369C23.5437 26.2175 23.8014 25.7684 24.0689 25.3282C24.1578 25.1817 24.1974 25.0054 24.2593 24.8422L24.2586 24.8429ZM37.6573 24.3479C37.7157 24.166 37.8303 23.9945 37.7852 23.7369C37.6365 23.8453 37.5232 23.9209 37.419 24.0063C37.2627 24.1341 37.121 24.2812 36.9577 24.3979C35.2716 25.6052 33.3958 26.1051 31.3317 25.8871C30.3389 25.7822 29.4921 25.3817 28.8237 24.6277C28.7945 24.5951 28.7633 24.5534 28.7251 24.543C28.6709 24.5277 28.591 24.5145 28.5562 24.543C28.5201 24.5715 28.5 24.6589 28.5159 24.7068C28.5444 24.7943 28.6042 24.8721 28.6507 24.954C28.6834 25.0415 28.7063 25.1338 28.7494 25.2157C29.1655 26.0169 29.7818 26.6119 30.5779 27.043C31.8646 27.7401 33.1804 27.8324 34.5268 27.2714C35.4182 26.9 36.2192 26.3703 36.9133 25.6968C37.2933 25.3275 37.5712 24.8866 37.6587 24.3486L37.6573 24.3479ZM29.8089 37.0508C29.779 36.6842 29.7651 36.3503 29.722 36.0198C29.6157 35.2103 29.2663 34.491 28.8432 33.8079C28.534 33.308 28.0706 32.9901 27.5245 32.7818C27.0751 32.6103 26.6075 32.6263 26.1427 32.6374C25.259 32.6589 24.542 33.0317 24.0376 33.753C23.6757 34.2703 23.4054 34.8437 23.2387 35.4561C22.9844 36.3905 23.0094 37.3368 23.1491 38.2859C23.2324 38.8517 23.4555 39.3321 23.939 39.6702C24.5219 40.0785 25.1624 40.311 25.8773 40.3235C26.0844 40.327 26.2935 40.2958 26.4991 40.3145C27.1626 40.3749 27.7906 40.2597 28.3916 39.9785C29.1357 39.63 29.6136 39.0808 29.7026 38.2414C29.7456 37.8346 29.7762 37.4271 29.8095 37.0501L29.8089 37.0508Z" fill="#E6CCFF"/>
<path d="M28.2318 46.0248C28.3179 45.9887 28.4013 45.9387 28.4909 45.9186C30.0687 45.561 31.5228 44.8932 32.9338 44.1281C34.0391 43.5282 35.0847 42.8361 36.04 42.012C36.7743 41.3788 37.2843 40.62 37.3697 39.6327C37.3968 39.3155 37.3857 38.9885 37.3454 38.6719C37.2259 37.7346 37.5955 37.0147 38.2909 36.4266C38.5174 36.235 38.7502 36.051 38.9739 35.8573C39.8214 35.1242 40.0882 34.1682 40.0333 33.0893C40.0111 32.6561 39.9736 32.2222 39.9736 31.789C39.9736 31.3933 40.1577 31.0489 40.3529 30.7136C40.635 30.2297 40.9212 29.7472 41.1859 29.2535C41.4451 28.771 41.4756 28.2587 41.2568 27.756C40.9886 27.1381 40.7406 26.505 40.4002 25.9273C39.7791 24.8735 39.7485 23.7967 40.1028 22.6664C40.2626 22.1561 40.4224 21.6438 40.5412 21.1231C40.5968 20.8773 40.578 20.6079 40.5537 20.3524C40.494 19.7269 40.1646 19.2701 39.6137 18.9771C39.1517 18.7313 38.6751 18.5119 38.218 18.2572C37.8776 18.0676 37.5427 17.8614 37.2328 17.6268C36.6819 17.2095 36.3498 16.6465 36.254 15.9578C36.1643 15.3135 35.8309 14.8525 35.2223 14.6248C34.8388 14.4811 34.4337 14.4609 34.0356 14.5977C33.3645 14.8275 32.6788 14.992 31.9674 15.0254C31.6193 15.042 31.2734 15.0316 30.9552 14.8587C31.5686 14.9469 32.1453 14.8032 32.7094 14.5817C33.1672 14.4019 33.6195 14.2082 34.0822 14.0409C34.4442 13.9104 34.82 13.8285 35.2125 13.859C35.6996 13.8965 36.0775 14.1319 36.3589 14.5123C36.5339 14.7491 36.6729 15.0129 36.8174 15.2711C36.9279 15.469 37.0244 15.6752 37.121 15.88C37.5302 16.7534 38.211 17.313 39.117 17.6157C39.3803 17.7038 39.6443 17.7892 39.902 17.8913C40.1598 17.9933 40.4182 18.0982 40.6607 18.2308C41.5423 18.7126 41.9772 19.5381 41.8341 20.5309C41.7292 21.2591 41.5854 21.9832 41.4228 22.7011C41.2005 23.6821 41.377 24.5624 41.9953 25.3567C42.1815 25.5955 42.3586 25.8406 42.5393 26.0835C43.2472 27.0347 43.391 28.067 42.979 29.1765C42.8033 29.6493 42.6247 30.1207 42.4406 30.59C42.0724 31.5266 42.0092 32.4742 42.3197 33.4392C42.3774 33.6191 42.4177 33.8044 42.4677 33.9863C42.6289 34.575 42.5129 35.1152 42.153 35.5963C41.9084 35.924 41.6347 36.2302 41.37 36.5433C41.0928 36.8703 40.7996 37.1841 40.5342 37.5201C39.9583 38.2484 39.6978 39.0926 39.6679 40.0125C39.6443 40.729 39.5644 41.4316 39.2337 42.0856C38.6334 43.2734 37.6969 44.0573 36.411 44.3947C35.1368 44.7286 33.8592 45.0528 32.5732 45.3361C31.4658 45.5798 30.3459 45.7679 29.2287 45.9609C28.9022 46.0172 28.5632 46.006 28.2304 46.0262L28.2318 46.0248Z" fill="#A242FF"/>
<path d="M41.377 12.4413C41.2936 12.5253 41.2019 12.6038 41.1276 12.6947C40.8358 13.0516 40.94 13.398 41.3797 13.5299C41.5104 13.5688 41.6486 13.5855 41.7834 13.6125C41.8612 13.6368 41.9397 13.6584 42.0168 13.6854C42.2002 13.7507 42.3927 13.8 42.5643 13.8889C42.8047 14.0138 42.8137 14.1721 42.5823 14.3075C42.3677 14.4339 42.1384 14.5665 41.8987 14.6151C41.5138 14.6942 41.1151 14.706 40.7218 14.747C40.4425 14.7025 40.1577 14.6796 39.8861 14.6088C39.4088 14.4838 39.29 14.1402 39.5741 13.7396C39.752 13.4883 39.959 13.2578 40.1341 13.0051C40.2876 12.7843 40.4321 12.5538 40.5495 12.3129C40.7086 11.9852 40.5669 11.6853 40.2049 11.6381C39.9048 11.5992 39.5929 11.6395 39.2872 11.654C39.0739 11.6645 38.862 11.6901 38.6494 11.7089C39.126 11.57 39.5957 11.3992 40.0806 11.3034C40.4592 11.2285 40.8566 11.2264 41.245 11.2333C41.4721 11.2375 41.7056 11.3014 41.9223 11.377C42.1113 11.443 42.103 11.5103 41.9765 11.6658C41.7702 11.9186 41.5771 12.1817 41.3777 12.4406L41.377 12.4413Z" fill="#E6CCFF"/>
<path d="M41.377 12.4413C41.5757 12.1824 41.7695 11.9199 41.9758 11.6665C42.1023 11.511 42.1113 11.4437 41.9216 11.3777C41.7049 11.302 41.4715 11.2375 41.2443 11.234C40.8559 11.2271 40.4585 11.2292 40.0799 11.3041C39.595 11.3999 39.1246 11.5707 38.6487 11.7096C38.5021 11.729 38.3548 11.7478 38.2083 11.7672C38.1999 11.7443 38.1916 11.7221 38.1832 11.6992C38.2923 11.6429 38.3986 11.5784 38.5119 11.5312C39.0892 11.2896 39.6867 11.1153 40.3057 11.016C41.3811 10.8445 42.4594 10.7945 43.5432 10.923C43.6161 10.9313 43.6877 10.9535 43.8044 10.9792C43.7071 11.0646 43.6467 11.1347 43.571 11.1812C43.2375 11.384 42.9012 11.5832 42.5629 11.7769C42.1697 12.0019 41.773 12.2199 41.3777 12.4413L41.377 12.4413Z" fill="#A242FF"/>
<path d="M40.7218 14.747C41.1151 14.7067 41.5138 14.6942 41.8987 14.6151C42.1384 14.5658 42.367 14.4339 42.5823 14.3075C42.813 14.1714 42.8047 14.0131 42.5643 13.8889C42.3927 13.8 42.2009 13.7507 42.0168 13.6854C41.9404 13.6584 41.8612 13.6368 41.7834 13.6125C42.6025 13.6195 43.4264 13.5639 44.2317 13.7611C44.4797 13.8215 44.7138 13.9402 44.9507 14.0409C45.0153 14.0687 45.0667 14.1284 45.1633 14.2041C45.0132 14.2693 44.9062 14.3401 44.7895 14.3617C44.3129 14.4512 43.837 14.5512 43.3556 14.5998C42.5664 14.6796 41.773 14.7248 40.981 14.7789C40.8955 14.7845 40.808 14.7581 40.7211 14.747H40.7218Z" fill="#A242FF"/>
<path d="M46.2249 17.8496C46.1616 18.1009 46.1867 18.1447 46.4819 18.2946C46.5354 18.3099 46.5882 18.3259 46.6417 18.3412C46.7744 18.3786 46.9133 18.4016 47.0377 18.4571C47.1155 18.4918 47.1711 18.5751 47.2364 18.6362C47.1635 18.6855 47.0961 18.748 47.0169 18.7813C46.937 18.8139 46.8453 18.816 46.7591 18.8341C46.5403 18.8813 46.3214 18.9299 46.1026 18.9778C45.9164 18.9521 45.726 18.9424 45.5447 18.898C45.2717 18.8306 45.2015 18.6279 45.3627 18.396C45.503 18.1947 45.66 18.0051 45.8038 17.8066C45.8587 17.7309 45.9032 17.6462 45.9421 17.5608C46.0505 17.3213 45.9338 17.1304 45.6656 17.1276C45.4461 17.1255 45.2265 17.1484 45.007 17.1609C45.2349 17.0957 45.4586 17.0033 45.6906 16.9714C46.0137 16.9276 46.3423 16.9151 46.6688 16.9158C46.8682 16.9158 46.9203 17.0457 46.7925 17.2033C46.7153 17.2984 46.5903 17.3553 46.5097 17.449C46.4034 17.5726 46.3193 17.7156 46.2256 17.8503L46.2249 17.8496Z" fill="#E6CCFF"/>
<path d="M46.2249 17.8496C46.3187 17.7149 46.4027 17.5719 46.509 17.4483C46.5896 17.3546 46.714 17.2977 46.7918 17.2026C46.9196 17.045 46.8675 16.9151 46.6681 16.9151C46.3416 16.9151 46.0123 16.9269 45.6899 16.9707C45.4579 17.0026 45.2342 17.095 45.0063 17.1602C44.8701 17.1762 44.7339 17.1922 44.5735 17.2109C44.9403 16.7957 47.2802 16.4903 47.8638 16.777C47.7331 16.8652 47.6199 16.9526 47.4962 17.0221C47.244 17.1644 46.978 17.2845 46.7334 17.4393C46.5507 17.5553 46.393 17.7115 46.2249 17.8503V17.8496Z" fill="#A242FF"/>
<path d="M46.1019 18.9785C46.3207 18.9306 46.5396 18.8813 46.7584 18.8348C46.8446 18.816 46.937 18.8146 47.0162 18.782C47.0961 18.7494 47.1635 18.6869 47.2357 18.6369C47.1704 18.5758 47.1148 18.4925 47.037 18.4578C46.9127 18.4023 46.7737 18.3786 46.641 18.3418C46.5875 18.3266 46.5347 18.3113 46.4812 18.2953C47.0454 18.3328 47.6109 18.3578 48.1729 18.4161C48.3424 18.4335 48.5022 18.5439 48.6662 18.6119C48.6634 18.6355 48.6613 18.6591 48.6585 18.682C48.555 18.7181 48.4543 18.7751 48.3487 18.7876C47.6678 18.866 46.9863 18.9354 46.3048 19.0042C46.2388 19.0111 46.1693 18.9882 46.1019 18.9785Z" fill="#A242FF"/>
<path d="M43.8627 23.3745C43.605 23.3176 43.5529 23.1933 43.7016 22.9767C43.828 22.7914 43.969 22.615 44.0871 22.4248C44.174 22.2852 44.1677 22.1492 43.985 22.077C44.2428 21.9367 44.5068 21.868 44.8326 22.0082C44.7437 22.0909 44.6763 22.1429 44.6214 22.2068C44.5415 22.2991 44.4713 22.3991 44.3963 22.4956C44.2143 22.7511 44.2483 22.8302 44.5901 22.9462C44.7472 22.9976 44.9042 23.0489 45.1154 23.1177C45.0042 23.169 44.9472 23.2114 44.8847 23.2218C44.5443 23.2773 44.2032 23.3253 43.8621 23.3752L43.8627 23.3745Z" fill="#E6CCFF"/>
<path d="M44.397 22.4949C44.4713 22.3984 44.5422 22.2984 44.6221 22.2061C44.677 22.1429 44.7444 22.0902 44.8333 22.0075C44.5075 21.8673 44.2442 21.936 43.9857 22.0763H43.1249C43.8822 21.7264 44.6763 21.6951 45.4843 21.768C45.4926 21.7875 45.5002 21.8062 45.5086 21.8256L44.397 22.4949Z" fill="#A242FF"/>
<path d="M43.8627 23.3745C44.2039 23.3239 44.545 23.2767 44.8854 23.2211C44.9479 23.2107 45.0056 23.1683 45.1161 23.117C44.9049 23.0482 44.7478 22.9969 44.5908 22.9455C44.9424 22.9594 45.2953 22.9601 45.6454 22.9941C45.799 23.0094 45.9463 23.092 46.0963 23.1441C46.0963 23.1732 46.0949 23.2024 46.0949 23.2315C45.9122 23.2718 45.7316 23.3315 45.5468 23.3489C45.1154 23.3905 44.6825 23.419 44.249 23.4377C44.1212 23.4433 43.9913 23.3968 43.8627 23.3745Z" fill="#A242FF"/>
<path d="M29.8089 37.0508C29.7755 37.4271 29.7449 37.8353 29.7019 38.2421C29.6129 39.0815 29.135 39.6307 28.3909 39.9792C27.7899 40.2603 27.1619 40.3756 26.4984 40.3152C26.2935 40.2964 26.0837 40.3277 25.8766 40.3242C25.1617 40.3117 24.5212 40.0791 23.9383 39.6709C23.4548 39.3321 23.2317 38.8517 23.1484 38.2866C23.0087 37.3375 22.9837 36.3912 23.238 35.4568C23.4047 34.8444 23.6757 34.271 24.037 33.7537C24.5413 33.0331 25.2583 32.6603 26.142 32.6381C26.6068 32.6263 27.0744 32.611 27.5239 32.7825C28.0699 32.9907 28.5333 33.3087 28.8425 33.8086C29.2656 34.4924 29.615 35.211 29.7213 36.0205C29.7644 36.351 29.7783 36.6849 29.8082 37.0515L29.8089 37.0508ZM28.1887 39.4363C28.6202 39.2453 28.9752 38.9829 29.0787 38.4851C29.2419 37.7034 29.2899 36.9154 29.1975 36.1212C29.1051 35.3262 28.7598 34.6292 28.2686 34.0238C27.7476 33.3823 27.0299 33.0671 26.1948 33.1622C25.2708 33.2671 24.5969 33.7642 24.1898 34.6077C24.0349 34.9701 23.8334 35.3207 23.734 35.6977C23.5131 36.5391 23.5958 37.3931 23.7111 38.2449C23.7848 38.7857 24.0647 39.1537 24.5497 39.3918C25.1687 39.6959 25.8023 39.875 26.5068 39.8625C27.1119 39.8514 27.6572 39.6904 28.1887 39.4356V39.4363Z" fill="#4E0099"/>
<path d="M28.65 24.954C28.6035 24.8721 28.5437 24.7943 28.5152 24.7068C28.5 24.6589 28.5194 24.5721 28.5555 24.543C28.591 24.5152 28.6702 24.5284 28.7244 24.543C28.7626 24.5534 28.7938 24.5951 28.823 24.6277C29.4914 25.3817 30.3382 25.7822 31.331 25.8871C33.3951 26.1051 35.2709 25.6052 36.957 24.3979C37.1203 24.2806 37.262 24.1341 37.4183 24.0063C37.5232 23.9209 37.6358 23.8453 37.7845 23.7369C37.8303 23.9945 37.715 24.166 37.6566 24.3479C37.5635 24.4812 37.4711 24.6159 37.3767 24.7485C35.7461 27.0409 32.6906 27.7324 30.3007 26.3488C29.6671 25.9822 29.1162 25.517 28.6493 24.9533L28.65 24.954Z" fill="#4E0099"/>
<path d="M15.2026 24.3951C15.1491 24.2361 15.0929 24.0771 15.0449 23.9168C15.0345 23.882 15.0547 23.839 15.0602 23.7994C15.0998 23.8071 15.1464 23.8043 15.1783 23.8244C15.2575 23.8751 15.3367 23.9293 15.4048 23.9938C16.4407 24.9797 17.7086 25.4934 19.08 25.7885C20.054 25.9975 21.0322 26.0058 22.0111 25.801C22.7371 25.6489 23.3533 25.3032 23.8723 24.7783C23.9168 24.7332 23.9578 24.6853 24.0036 24.6423C24.0835 24.5673 24.1627 24.4409 24.2864 24.5402C24.4066 24.636 24.3072 24.745 24.2572 24.8429C23.6715 25.6406 22.9059 26.2189 22.0104 26.6154C19.6156 27.6748 16.7853 26.7952 15.3284 24.5555C15.2916 24.4986 15.2443 24.4486 15.2026 24.3958V24.3951Z" fill="#4E0099"/>
<path d="M15.2026 24.3951C15.245 24.4486 15.2916 24.4986 15.3284 24.5548C16.7853 26.7945 19.6163 27.6748 22.0104 26.6147C22.9066 26.2182 23.6722 25.6399 24.2572 24.8422C24.1954 25.0054 24.1558 25.1817 24.0668 25.3282C23.7993 25.7684 23.5416 26.2175 23.1143 26.5369C22.2973 27.1479 21.4192 27.5977 20.375 27.6588C19.5156 27.7088 18.7097 27.5325 17.9503 27.1333C17.2334 26.7563 16.5567 26.3196 15.9731 25.7538C15.5854 25.3782 15.3145 24.9297 15.2019 24.3951L15.2026 24.3951Z" fill="#A242FF"/>
<path d="M28.65 24.954C29.1176 25.5177 29.6685 25.9822 30.3014 26.3495C32.6913 27.7331 35.7461 27.0416 37.3773 24.7492C37.4718 24.6166 37.5635 24.4819 37.6573 24.3486C37.5698 24.8866 37.2926 25.3275 36.9119 25.6968C36.2178 26.371 35.4175 26.9 34.5254 27.2714C33.179 27.8324 31.8625 27.7401 30.5765 27.043C29.7804 26.6119 29.1648 26.0169 28.748 25.2157C28.7056 25.1338 28.682 25.0415 28.6493 24.954H28.65Z" fill="#A242FF"/>
<path d="M34.3226 29.391C34.1815 29.366 34.0398 29.3417 33.8988 29.3167C33.8974 29.2924 33.8953 29.2681 33.8939 29.2431C33.9558 29.2133 34.0148 29.1716 34.0808 29.155C34.2573 29.1112 34.4351 29.0696 34.6144 29.0439C35.1257 28.9696 35.5731 28.7634 35.9726 28.4371C36.2512 28.2101 36.5444 27.9997 36.8306 27.7824C36.8445 27.7949 36.8584 27.8074 36.8723 27.8199C36.7931 27.9483 36.7139 28.0775 36.6347 28.2059C36.5791 28.2649 36.5228 28.3239 36.4672 28.3829C35.885 29.0022 35.2063 29.4139 34.3219 29.3903L34.3226 29.391Z" fill="#4E0099"/>
<path d="M16.1919 28.1719C16.1141 28.0553 16.037 27.9386 15.9592 27.8213C15.971 27.8088 15.9835 27.7963 15.9953 27.7838C16.1982 27.9303 16.4163 28.0601 16.6018 28.226C17.1424 28.7106 17.7544 29.021 18.4853 29.0897C18.6465 29.105 18.8021 29.1744 18.9605 29.2195C18.9605 29.2494 18.9605 29.2785 18.9605 29.3084C18.8215 29.3341 18.6819 29.3598 18.5429 29.3855C18.3067 29.3625 18.0629 29.3702 17.8364 29.3112C17.1542 29.132 16.6234 28.7203 16.1919 28.1726V28.1719Z" fill="#4E0099"/>
<path d="M16.1919 28.1719C16.6234 28.7197 17.1542 29.132 17.8364 29.3105C18.0629 29.3702 18.3074 29.3618 18.5429 29.3848C18.2407 29.5417 17.9212 29.5243 17.6064 29.4556C17.05 29.3341 16.5935 29.0536 16.3142 28.5398C16.2531 28.4281 16.2315 28.2948 16.1919 28.1712V28.1719Z" fill="#A242FF"/>
<path d="M34.3226 29.391C35.2063 29.4146 35.8857 29.0022 36.4679 28.3836C36.5235 28.3246 36.5791 28.2656 36.6354 28.2066C36.5284 28.4225 36.4554 28.6648 36.3088 28.8481C35.8732 29.391 34.9798 29.6396 34.3705 29.4202C34.3531 29.4139 34.3386 29.4007 34.3233 29.391L34.3226 29.391Z" fill="#A242FF"/>
<path d="M28.1887 39.4363C27.6565 39.6911 27.1119 39.8521 26.5068 39.8632C25.8023 39.8764 25.1687 39.6966 24.5497 39.3925C24.0647 39.1544 23.7841 38.7864 23.7111 38.2456C23.5958 37.3937 23.5131 36.5391 23.734 35.6984C23.8334 35.3214 24.0349 34.9708 24.1898 34.6084C25.7967 34.4737 27.0778 35.2603 27.6864 36.7495C28.0387 37.6117 28.2144 38.5053 28.1887 39.437L28.1887 39.4363Z" fill="#E6CCFF"/>
<path d="M28.1887 39.4363C28.2144 38.5046 28.038 37.6111 27.6864 36.7488C27.0785 35.2596 25.7974 34.473 24.1898 34.6077C24.5969 33.7642 25.2708 33.2671 26.1948 33.1622C27.0299 33.0671 27.7476 33.383 28.2686 34.0238C28.7598 34.6285 29.1051 35.3262 29.1975 36.1212C29.2899 36.9154 29.2419 37.7034 29.0787 38.4851C28.9752 38.9822 28.6202 39.2446 28.1887 39.4363Z" fill="#A242FF"/>
</svg>
