<svg width="58" height="58" viewBox="0 0 58 58" fill="none" xmlns="http://www.w3.org/2000/svg">
<circle cx="29" cy="29" r="29" fill="#FFF491"/>
<path d="M26.8144 44.499C26.4459 44.4445 26.0795 44.3741 25.71 44.3394C23.7658 44.1541 21.8177 43.9875 19.9364 43.4225C17.5728 42.7128 15.6926 41.3568 14.3805 39.2652C13.5856 37.9974 13.2362 36.5849 13.1643 35.1119C12.9356 30.4491 14.3096 26.2809 17.0886 22.528C18.7401 20.2977 20.6933 18.4341 23.1837 17.1475C25.2287 16.0908 27.3846 15.5496 29.6982 15.6775C31.7602 15.7915 33.6365 16.4774 35.4169 17.4786C37.8284 18.8346 39.6667 20.7715 41.2434 23.0008C43.0178 25.5087 44.1861 28.2465 44.6445 31.2807C44.8861 32.8806 44.967 34.4795 44.7313 36.0902C44.3559 38.6576 43.0198 40.6113 40.9069 42.0843C39.5838 43.0072 38.098 43.5345 36.5213 43.7883C35.0774 44.0212 33.6175 44.159 32.1646 44.3414C31.7772 44.39 31.3898 44.4465 31.0033 44.5H26.8144V44.499ZM29.9638 16.1156C29.0042 15.9719 28.0446 16.0403 27.098 16.1899C25.1299 16.5012 23.3824 17.3566 21.7478 18.453C19.8805 19.7049 18.4376 21.3623 17.1475 23.1763C14.5283 26.8607 13.334 30.9387 13.6486 35.439C13.7534 36.9368 14.2077 38.3305 15.1094 39.5557C16.6362 41.6284 18.7242 42.8268 21.2205 43.362C23.5092 43.8527 25.8318 44.0549 28.1684 44.1303C28.2663 44.1412 28.3651 44.163 28.463 44.163C30.9124 44.161 33.3469 43.9657 35.7624 43.5682C37.1624 43.3373 38.5304 42.9814 39.7736 42.2776C41.7187 41.1783 43.2106 39.6706 43.9325 37.5206C44.4028 36.119 44.4847 34.6678 44.3948 33.2027C44.272 31.1885 43.8746 29.2288 43.1466 27.3445C42.2939 25.1379 40.9828 23.1961 39.476 21.3871C37.5608 19.0874 35.1742 17.4439 32.3064 16.5171C31.5485 16.2722 30.7736 16.0799 29.9638 16.1166V16.1156Z" fill="#5C5300"/>
<path d="M44.6065 21.9838C44.6135 22.6687 44.1162 23.0246 43.5031 22.7292C43.2335 22.5994 42.9979 22.3833 42.7782 22.1751C42.23 21.6537 41.7207 21.0897 41.1545 20.5881C40.6762 20.1648 40.138 19.809 39.6328 19.4145C39.477 19.2935 39.3262 19.1577 39.2024 19.0051C38.5963 18.2616 38.797 17.3358 39.6767 16.9492C40.5854 16.5498 41.4701 16.5745 42.1611 17.3566C42.5815 17.8334 42.9849 18.3459 43.2854 18.901C43.7438 19.7446 44.1112 20.6367 44.5047 21.5129C44.5696 21.6567 44.5736 21.8262 44.6055 21.9838H44.6065ZM43.5091 22.1612C43.6569 22.1999 43.8047 22.2385 43.9525 22.2762C43.9734 22.1236 44.0204 21.9689 44.0094 21.8192C43.9994 21.6795 43.9435 21.5387 43.8826 21.4089C43.5421 20.6734 43.2295 19.922 42.8371 19.2152C42.5285 18.6611 42.1521 18.1338 41.7417 17.6481C41.2244 17.0355 40.2239 16.9889 39.6048 17.5004C39.487 17.5975 39.4181 17.7541 39.3272 17.884C39.2044 18.2418 39.2853 18.559 39.5838 18.7999C40.3707 19.4363 41.1755 20.0499 41.9474 20.7031C42.4906 21.163 42.9899 21.6735 43.5091 22.1612Z" fill="#5C5300"/>
<path d="M13.9341 21.3672C14.1059 19.698 14.6062 18.3419 15.8733 17.3814C16.6891 16.7629 17.6078 16.6013 18.5894 16.972C18.7322 17.0256 18.872 17.0959 18.9998 17.1792C19.5949 17.5628 19.7337 18.2051 19.2854 18.7523C19.0467 19.0437 18.7332 19.3094 18.3996 19.4819C17.8474 19.7674 17.486 20.1837 17.2034 20.716C16.9647 21.166 16.7001 21.6111 16.3886 22.0145C16.0571 22.4447 15.5887 22.7143 15.0375 22.7817C14.691 22.8244 14.3935 22.6648 14.2557 22.3555C14.0979 22.0026 14.013 21.617 13.9341 21.3682V21.3672ZM19.0217 17.8929C18.842 17.7502 18.6832 17.5569 18.4785 17.4736C17.5229 17.0821 16.6662 17.3279 15.9542 18.0099C14.9596 18.9635 14.5033 20.1619 14.5273 21.5308C14.5313 21.737 14.6112 21.955 14.706 22.1434C14.8089 22.3466 14.9976 22.4338 15.2313 22.3159C15.4849 22.1711 15.8044 22.0809 15.9782 21.8718C16.3496 21.4267 16.6841 20.94 16.9617 20.4315C17.2683 19.8695 17.6447 19.4125 18.2189 19.1052C18.4596 18.9763 18.6752 18.7821 18.864 18.5818C19.0377 18.3974 19.1506 18.1625 19.0227 17.8929H19.0217Z" fill="#5C5300"/>
<path d="M44.7054 23.1733C44.9221 23.2516 45.1627 23.2942 45.3524 23.4161C46.0784 23.884 46.8433 24.3053 47.4005 24.9922C47.744 25.4155 48.0485 25.8576 48.1574 26.4048C48.2243 26.7408 48.1883 27.051 47.9067 27.2889C47.6072 27.5407 47.2717 27.515 46.9341 27.392C46.4798 27.2255 46.1303 26.9133 45.8198 26.5564C45.0828 25.7079 44.7363 24.68 44.4697 23.6193C44.3998 23.3418 44.4937 23.207 44.7054 23.1753V23.1733ZM47.6082 26.4057C47.2317 25.3203 46.4409 24.5759 45.5342 23.9266C45.4094 23.8394 45.2855 23.7512 45.1607 23.664C45.3734 24.6433 45.641 25.5751 46.325 26.3066C46.5467 26.5435 46.8363 26.7279 47.1219 26.8885C47.2357 26.9519 47.4873 26.942 47.5602 26.8617C47.6431 26.7695 47.5982 26.5624 47.6082 26.4057Z" fill="#5C5300"/>
<path d="M44.3709 19.6385C45.0269 19.2678 45.672 18.8762 46.342 18.5333C46.8992 18.2478 47.5023 18.0812 48.1414 18.0921C48.4839 18.0981 48.7964 18.1734 48.9522 18.5184C49.077 18.7949 48.9512 19.1637 48.6467 19.4303C48.0785 19.9269 47.3845 20.145 46.6545 20.1876C46.0844 20.2204 45.5032 20.1629 44.934 20.0895C44.7313 20.0637 44.5496 19.8734 44.3579 19.7574C44.3619 19.7178 44.3669 19.6781 44.3709 19.6385ZM45.5921 19.24C45.4193 19.3253 45.2466 19.4115 45.0679 19.5007C45.1018 19.5433 45.1088 19.5632 45.1228 19.5681C45.1557 19.581 45.1907 19.5929 45.2266 19.5969C46.0444 19.698 46.8523 19.6623 47.6251 19.3619C47.8798 19.2628 48.1204 19.1032 48.3301 18.9268C48.5438 18.7464 48.4889 18.6225 48.1963 18.5333C47.9636 18.5372 47.73 18.5283 47.4983 18.5471C46.8003 18.6036 46.1892 18.904 45.5931 19.239L45.5921 19.24Z" fill="#5C5300"/>
<path d="M19.1036 16.7183C19.3782 16.1215 19.6119 15.5635 19.8885 15.0272C20.2679 14.2927 20.6604 13.5592 21.2994 13.006C21.5131 12.8207 21.7608 12.6571 22.0214 12.5481C22.3888 12.3935 22.7413 12.6274 22.7244 13.0259C22.7104 13.349 22.6614 13.7029 22.5117 13.9814C21.7977 15.3048 20.7273 16.2365 19.2794 16.7173C19.2504 16.7272 19.2145 16.7183 19.1036 16.7183ZM19.9304 15.6705C19.8705 15.7835 19.8116 15.8965 19.7257 16.0571C19.8236 16.0303 19.8595 16.0284 19.8855 16.0115C20.5795 15.5823 21.2016 15.0659 21.7318 14.4473C22.0334 14.0954 22.277 13.7059 22.3439 13.239C22.3599 13.127 22.306 13.0041 22.284 12.8871C22.1592 12.9109 22.0334 12.9337 21.9085 12.9575C21.6299 13.2063 21.2874 13.4125 21.0847 13.7118C20.6604 14.3393 20.3099 15.0143 19.9294 15.6705H19.9304Z" fill="#5C5300"/>
<path d="M13.7065 20.0875C12.3934 20.1401 11.1612 20.1212 9.97689 19.697C9.72826 19.6078 9.4886 19.4581 9.2839 19.2896C8.82257 18.9099 8.9404 18.3459 9.51457 18.1705C10.0208 18.0148 10.5361 18.0604 11.0423 18.1843C11.8961 18.3935 12.641 18.8058 13.2601 19.4224C13.4359 19.5969 13.5437 19.8397 13.7065 20.0875ZM12.663 19.8744C12.7738 19.8843 12.8837 19.8932 13.0574 19.9081C12.3554 19.2331 11.6065 18.7821 10.7168 18.6096C10.3803 18.5442 10.0168 18.557 9.67333 18.5967C9.38475 18.6294 9.36279 18.7791 9.57048 19.015C9.72526 19.1201 9.86805 19.2569 10.0378 19.3262C10.8776 19.6672 11.7533 19.8546 12.662 19.8744H12.663Z" fill="#5C5300"/>
<path d="M16.083 16.865C15.3401 16.0085 14.3985 15.3087 13.9501 14.2233C13.8243 13.917 13.7714 13.5621 13.7694 13.2291C13.7664 12.7216 14.2427 12.4519 14.6581 12.7444C14.9786 12.9704 15.2742 13.2826 15.4729 13.6196C15.9252 14.3839 16.2018 15.2245 16.2697 16.1146C16.2877 16.3545 16.2168 16.6013 16.1869 16.8442L16.082 16.865H16.083ZM14.2008 13.356C14.2257 13.5592 14.2147 13.7753 14.2826 13.9636C14.5223 14.6307 14.9177 15.2086 15.389 15.7369C15.5118 15.8856 15.6337 16.0343 15.7824 16.2157C15.8014 16.1334 15.8144 16.1087 15.8114 16.0868C15.6906 15.2988 15.4669 14.5405 15.0725 13.8446C14.9337 13.5998 14.731 13.3807 14.5203 13.1894C14.3236 13.01 14.2307 13.0715 14.1998 13.356H14.2008Z" fill="#5C5300"/>
<path d="M45.1417 14.2154C45.1008 14.7923 44.7613 15.2938 44.3169 15.734C43.8356 16.2108 43.2635 16.5537 42.6164 16.7659C42.5236 16.7966 42.4147 16.8303 42.3278 16.8075C42.2649 16.7906 42.1701 16.6638 42.186 16.6182C42.4547 15.8123 42.6793 14.9846 43.2136 14.2927C43.4672 13.9636 43.7248 13.6385 44.1272 13.4709C44.6794 13.241 45.1457 13.5483 45.1417 14.2144V14.2154ZM44.1632 13.9329C44.0793 13.9824 43.9884 14.0221 43.9135 14.0825C43.3563 14.5306 43.0178 15.1283 42.7412 15.7696C42.6803 15.9173 42.6194 16.066 42.5575 16.2137C43.1287 16.0165 43.601 15.725 43.9934 15.3166C44.284 15.0133 44.5266 14.6773 44.5955 14.253C44.6135 14.141 44.5995 13.9557 44.5316 13.914C44.4448 13.8615 44.289 13.921 44.1632 13.9319V13.9329Z" fill="#5C5300"/>
<path d="M39.3901 16.7867C38.9418 16.4873 38.5394 16.2336 38.1539 15.956C37.5528 15.5218 36.9557 15.0768 36.5812 14.4176C36.4724 14.2263 36.3875 14.0072 36.3535 13.7911C36.2916 13.3986 36.5692 13.1547 36.9656 13.2192C37.424 13.2935 37.8104 13.5324 38.102 13.8625C38.5044 14.3185 38.8719 14.8121 39.2004 15.3226C39.464 15.733 39.5089 16.2108 39.3901 16.7867ZM38.2857 15.6299C38.5234 15.8242 38.761 16.0185 39.0516 16.2564C39.0386 16.1225 39.0436 16.067 39.0266 16.0204C38.778 15.3365 38.4325 14.7041 37.8903 14.2104C37.6247 13.9686 37.3002 13.7733 36.9716 13.6216C36.742 13.5155 36.6761 13.6186 36.7639 13.8774C36.7879 13.9725 36.7949 14.0746 36.8378 14.1599C37.1594 14.8052 37.7335 15.2066 38.2857 15.6279V15.6299Z" fill="#5C5300"/>
<path d="M14.0899 23.1416C14.2277 23.6164 14.1548 23.994 14.024 24.3568C13.8373 24.8772 13.6446 25.3967 13.4159 25.8992C13.2481 26.268 13.0045 26.5961 12.627 26.7953C12.1168 27.0639 11.6395 26.8161 11.6495 26.2432C11.6555 25.9131 11.7403 25.5652 11.8711 25.2599C12.1777 24.5452 12.674 23.9593 13.3051 23.5034C13.5277 23.3418 13.8133 23.2655 14.0899 23.1406V23.1416ZM12.4533 26.4692C12.631 26.3076 12.8397 26.1698 12.9795 25.9815C13.4199 25.3897 13.6286 24.6968 13.8033 23.9921L13.9212 23.6184C13.0784 24.1437 12.4313 24.8158 12.1218 25.7575C12.0748 25.8992 12.0539 26.0558 12.0549 26.2065C12.0569 26.491 12.1647 26.5554 12.4533 26.4702V26.4692Z" fill="#5C5300"/>
<path d="M28.1684 44.1293C25.8318 44.0549 23.5092 43.8517 21.2205 43.3611C18.7242 42.8258 16.6362 41.6284 15.1094 39.5547C14.2077 38.3295 13.7524 36.9368 13.6486 35.438C13.335 30.9377 14.5283 26.8597 17.1475 23.1753C18.4376 21.3603 19.8805 19.7039 21.7478 18.452C23.3824 17.3556 25.1299 16.5012 27.098 16.1889C28.0446 16.0393 29.0042 15.9709 29.9638 16.1146C30.0587 16.1661 30.1506 16.2246 30.2494 16.2663C31.5595 16.8194 32.7937 17.5133 33.8612 18.444C35.1403 19.5592 36.3845 20.716 37.6007 21.8995C38.3337 22.6122 38.9328 23.4479 39.4091 24.3539C40.839 27.0758 41.4771 29.9871 41.4262 33.0441C41.4072 34.2059 41.2384 35.3617 40.7751 36.4461C39.5599 39.29 37.384 41.212 34.658 42.5492C32.624 43.5464 30.3932 43.8497 28.1674 44.1283L28.1684 44.1293ZM31.3917 27.0669C31.5156 26.9945 31.6424 26.9271 31.7642 26.8508C32.8816 26.1441 34.0938 25.8427 35.4149 26.0211C36.2726 26.1371 37.0935 26.373 37.8514 26.7983C38.1869 27.1888 38.5234 27.5804 38.8589 27.9709C38.8809 27.8936 38.8669 27.8361 38.8479 27.7806C38.4065 26.5227 37.4869 25.7069 36.3176 25.1429C35.5587 24.7771 34.7499 24.6393 33.9131 24.8267C32.4203 25.1597 31.4577 26.1302 30.7886 27.4376C30.7257 27.5615 30.6978 27.7033 30.6538 27.8371C30.6808 27.85 30.7077 27.8619 30.7347 27.8748C30.9534 27.6061 31.1731 27.3365 31.3917 27.0679V27.0669ZM26.1114 26.5703C26.5079 27.0025 26.9033 27.4347 27.2997 27.8668C27.3197 27.8569 27.3396 27.847 27.3596 27.8381C27.3197 27.7281 27.2827 27.6161 27.2408 27.507C27.0071 26.8964 26.5987 26.4018 26.1414 25.9537C25.2437 25.0745 24.1722 24.6106 22.8911 24.792C21.5251 24.9853 20.4666 25.7069 19.6618 26.7904C19.4072 27.1333 19.2524 27.5496 19.0527 27.9323C19.0767 27.9461 19.1006 27.959 19.1246 27.9729C19.4911 27.5586 19.8585 27.1432 20.225 26.7289C20.4177 26.6367 20.6034 26.5247 20.8041 26.4563C22.5007 25.8824 24.1962 25.6851 25.8848 26.489C25.9567 26.5237 26.0355 26.5435 26.1114 26.5703ZM23.9026 38.3939C23.8957 38.3642 23.8877 38.3354 23.8807 38.3057C23.6899 38.3215 23.5002 38.3364 23.3095 38.3543C21.8456 38.4871 20.6034 38.0093 19.6508 36.9169C18.9439 36.1061 18.4296 35.1654 18.162 34.1097C18.137 34.0136 18.0991 33.9204 18.0661 33.8252C18.0032 33.9491 17.9922 34.0612 18.0042 34.1712C18.1061 35.0931 18.4056 35.9475 18.8929 36.7405C19.7008 38.0549 20.922 38.6685 22.4268 38.7825C22.956 38.8221 23.4433 38.6378 23.9016 38.3949L23.9026 38.3939Z" fill="#FFF9C2"/>
<path d="M28.1684 44.1293C30.3932 43.8507 32.624 43.5474 34.659 42.5502C37.385 41.213 39.5609 39.291 40.7761 36.4471C41.2394 35.3627 41.4082 34.2069 41.4272 33.0451C41.4771 29.9891 40.84 27.0768 39.4101 24.3549C38.9338 23.4479 38.3346 22.6122 37.6017 21.9005C36.3855 20.718 35.1413 19.5602 33.8622 18.445C32.7937 17.5142 31.5605 16.8204 30.2504 16.2673C30.1516 16.2256 30.0597 16.1661 29.9648 16.1156C30.7756 16.0789 31.5505 16.2702 32.3074 16.5161C35.1742 17.4439 37.5608 19.0864 39.477 21.3861C40.9838 23.1951 42.2949 25.1369 43.1476 27.3435C43.8756 29.2278 44.273 31.1875 44.3958 33.2017C44.4857 34.6668 44.4038 36.118 43.9335 37.5196C43.2116 39.6706 41.7197 41.1773 39.7746 42.2766C38.5304 42.9794 37.1624 43.3363 35.7634 43.5672C33.3479 43.9647 30.9134 44.16 28.464 44.162C28.3661 44.162 28.2673 44.1412 28.1694 44.1293H28.1684Z" fill="#F5DC00"/>
<path d="M43.5091 22.1612C42.9899 21.6735 42.4906 21.163 41.9474 20.7031C41.1765 20.0499 40.3707 19.4363 39.5838 18.7999C39.2853 18.559 39.2044 18.2418 39.3272 17.884C39.5429 17.8731 39.7676 17.8186 39.9733 17.8592C40.83 18.0307 41.549 18.451 42.0762 19.1498C42.7003 19.9765 43.1167 20.9172 43.5131 21.8638C43.5481 21.9481 43.5111 22.0611 43.5081 22.1612H43.5091Z" fill="#FFF9C2"/>
<path d="M43.5091 22.1612C43.5121 22.0611 43.5491 21.9481 43.5141 21.8638C43.1167 20.9162 42.7013 19.9765 42.0772 19.1498C41.55 18.452 40.831 18.0307 39.9743 17.8592C39.7686 17.8186 39.5439 17.8731 39.3282 17.884C39.4191 17.7541 39.488 17.5975 39.6058 17.5004C40.2249 16.9889 41.2254 17.0355 41.7427 17.6481C42.1531 18.1338 42.5295 18.6611 42.8381 19.2152C43.2315 19.922 43.5431 20.6743 43.8836 21.4089C43.9435 21.5387 44.0004 21.6795 44.0104 21.8192C44.0214 21.9699 43.9744 22.1236 43.9535 22.2762C43.8057 22.2375 43.6579 22.1989 43.5101 22.1612H43.5091Z" fill="#F5DC00"/>
<path d="M15.2313 22.3159C14.9976 22.4338 14.8079 22.3456 14.706 22.1434C14.6112 21.956 14.5313 21.737 14.5273 21.5308C14.5033 20.1619 14.9596 18.9635 15.9542 18.0099C16.6652 17.3279 17.5229 17.0821 18.4785 17.4736C18.6832 17.5569 18.842 17.7502 19.0217 17.8929C17.5489 18.0168 16.4595 18.7345 15.8124 20.0409C15.4919 20.6882 15.2952 21.397 15.0405 22.077C14.9696 22.2653 15.0585 22.3218 15.2313 22.3159Z" fill="#F5DC00"/>
<path d="M15.2313 22.3159C15.0595 22.3218 14.9706 22.2653 15.0405 22.077C15.2952 21.397 15.4919 20.6882 15.8124 20.0409C16.4595 18.7345 17.5489 18.0168 19.0217 17.8929C19.1506 18.1635 19.0367 18.3974 18.863 18.5818C18.6752 18.7821 18.4586 18.9763 18.2179 19.1052C17.6437 19.4125 17.2673 19.8695 16.9607 20.4315C16.6831 20.94 16.3486 21.4257 15.9772 21.8718C15.8024 22.0809 15.4839 22.1711 15.2303 22.3159H15.2313Z" fill="#FFF9C2"/>
<path d="M47.6082 26.4057C47.5982 26.5634 47.6441 26.7705 47.5602 26.8617C47.4873 26.942 47.2357 26.9519 47.1219 26.8885C46.8363 26.7279 46.5457 26.5435 46.325 26.3066C45.64 25.5751 45.3724 24.6433 45.1607 23.664C45.2855 23.7512 45.4094 23.8394 45.5342 23.9266C45.5571 23.993 45.5741 24.0614 45.6041 24.1239C46.0185 24.9962 46.6935 25.6782 47.2996 26.4107C47.3865 26.5148 47.4764 26.6159 47.6092 26.7685V26.4048L47.6082 26.4057Z" fill="#F5DC00"/>
<path d="M47.6082 26.4057V26.7695C47.4764 26.6169 47.3855 26.5158 47.2986 26.4117C46.6925 25.6792 46.0185 24.9962 45.6031 24.1249C45.5731 24.0624 45.5561 23.993 45.5332 23.9276C46.4399 24.5769 47.2307 25.3213 47.6072 26.4067L47.6082 26.4057Z" fill="#FFF9C2"/>
<path d="M48.1953 18.5333C48.4869 18.6225 48.5428 18.7464 48.3291 18.9268C48.1204 19.1032 47.8788 19.2628 47.6241 19.3619C46.8513 19.6623 46.0434 19.698 45.2256 19.5969C45.1907 19.5929 45.1547 19.581 45.1218 19.5681C45.1088 19.5632 45.1008 19.5433 45.0669 19.5007C45.2456 19.4115 45.4183 19.3262 45.5911 19.24C45.633 19.2539 45.676 19.2836 45.7169 19.2807C46.4978 19.2261 47.2647 19.1082 47.9696 18.7454C48.0575 18.6998 48.1194 18.6056 48.1943 18.5342L48.1953 18.5333Z" fill="#F5DC00"/>
<path d="M48.1953 18.5333C48.1214 18.6046 48.0585 18.6988 47.9706 18.7444C47.2657 19.1082 46.4988 19.2261 45.7179 19.2797C45.677 19.2826 45.634 19.2529 45.5921 19.239C46.1892 18.904 46.7993 18.6036 47.4973 18.5471C47.729 18.5283 47.9626 18.5372 48.1953 18.5333Z" fill="#FFF9C2"/>
<path d="M21.9085 12.9575C22.0334 12.9337 22.1592 12.9109 22.284 12.8871C22.306 13.0051 22.3609 13.127 22.3439 13.239C22.277 13.7069 22.0334 14.0964 21.7318 14.4473C21.2006 15.0659 20.5795 15.5813 19.8855 16.0115C19.8585 16.0284 19.8226 16.0303 19.7257 16.0571C19.8106 15.8955 19.8705 15.7835 19.9304 15.6705C20.0053 15.6101 20.0912 15.5575 20.1531 15.4862C20.4357 15.162 20.7283 14.8438 20.9849 14.4999C21.3004 14.0776 21.586 13.6345 21.8756 13.1934C21.9155 13.1329 21.8996 13.0368 21.9085 12.9565V12.9575Z" fill="#F5DC00"/>
<path d="M21.9085 12.9575C21.8986 13.0378 21.9145 13.1339 21.8756 13.1944C21.586 13.6345 21.3004 14.0786 20.9849 14.5009C20.7283 14.8448 20.4357 15.162 20.1531 15.4871C20.0912 15.5585 20.0053 15.611 19.9304 15.6715C20.3109 15.0153 20.6614 14.3393 21.0857 13.7128C21.2884 13.4135 21.6299 13.2063 21.9095 12.9585L21.9085 12.9575Z" fill="#FFF9C2"/>
<path d="M9.57048 19.015C9.36279 18.7791 9.38475 18.6294 9.67333 18.5967C10.0168 18.558 10.3803 18.5442 10.7168 18.6096C11.6055 18.7821 12.3554 19.2331 13.0574 19.9081C12.8837 19.8932 12.7738 19.8833 12.663 19.8744C11.8422 19.4938 11.0074 19.1508 10.1017 19.0229C9.92796 18.9981 9.74823 19.017 9.57048 19.015Z" fill="#F5DC00"/>
<path d="M9.57048 19.015C9.74723 19.017 9.92796 18.9981 10.1017 19.0229C11.0074 19.1498 11.8422 19.4938 12.663 19.8744C11.7533 19.8546 10.8776 19.6672 10.0388 19.3262C9.86905 19.2569 9.72626 19.1201 9.57148 19.015L9.57048 19.015Z" fill="#FFF9C2"/>
<path d="M14.2008 13.356C14.2317 13.0715 14.3256 13.011 14.5213 13.1894C14.731 13.3807 14.9347 13.5998 15.0735 13.8446C15.4679 14.5405 15.6906 15.2988 15.8124 16.0868C15.8154 16.1087 15.8024 16.1334 15.7834 16.2157C15.6347 16.0353 15.5118 15.8856 15.39 15.7369C15.3401 15.5833 15.3121 15.4187 15.2382 15.278C14.8997 14.6337 14.5482 13.9963 14.2017 13.356H14.2008Z" fill="#F5DC00"/>
<path d="M14.2008 13.356C14.5472 13.9963 14.8987 14.6337 15.2372 15.278C15.3111 15.4187 15.3401 15.5833 15.389 15.7369C14.9177 15.2086 14.5213 14.6307 14.2826 13.9636C14.2147 13.7753 14.2257 13.5592 14.2008 13.356Z" fill="#FFF9C2"/>
<path d="M44.1632 13.9329C44.289 13.922 44.4448 13.8625 44.5316 13.915C44.5995 13.9557 44.6135 14.141 44.5955 14.254C44.5276 14.6783 44.285 15.0143 43.9934 15.3176C43.602 15.726 43.1297 16.0175 42.5575 16.2147C42.6184 16.067 42.6793 15.9183 42.7412 15.7706C42.7942 15.7528 42.8611 15.7498 42.898 15.7151C43.4043 15.2354 43.8287 14.6922 44.1592 14.0786C44.1791 14.0409 44.1622 13.9824 44.1622 13.9348L44.1632 13.9329Z" fill="#F5DC00"/>
<path d="M44.1632 13.9329C44.1632 13.9814 44.1801 14.0389 44.1602 14.0766C43.8297 14.6902 43.4053 15.2334 42.899 15.7131C42.8621 15.7478 42.7952 15.7508 42.7422 15.7687C43.0188 15.1283 43.3573 14.5296 43.9145 14.0816C43.9894 14.0211 44.0803 13.9814 44.1642 13.9319L44.1632 13.9329Z" fill="#FFF9C2"/>
<path d="M36.7639 13.8783C36.6761 13.6186 36.742 13.5165 36.9716 13.6226C37.3002 13.7743 37.6247 13.9695 37.8903 14.2114C38.4325 14.705 38.778 15.3375 39.0266 16.0214C39.0436 16.068 39.0386 16.1235 39.0516 16.2573C38.761 16.0194 38.5234 15.8252 38.2857 15.6309C38.2528 15.5436 38.2418 15.4356 38.1829 15.3731C37.7146 14.8706 37.2382 14.3769 36.7639 13.8803V13.8783Z" fill="#F5DC00"/>
<path d="M36.7639 13.8783C37.2382 14.375 37.7155 14.8686 38.1829 15.3712C38.2418 15.4346 38.2528 15.5427 38.2857 15.6289C37.7325 15.2076 37.1584 14.8052 36.8378 14.1609C36.7949 14.0756 36.7879 13.9725 36.7639 13.8783Z" fill="#FFF9C2"/>
<path d="M12.4533 26.4692C12.1647 26.5544 12.0569 26.49 12.0549 26.2055C12.0539 26.0558 12.0748 25.8992 12.1218 25.7565C12.4313 24.8148 13.0784 24.1427 13.9212 23.6174L13.8033 23.9911C13.7374 24.0634 13.6535 24.1269 13.6066 24.2101C13.2541 24.8435 12.9066 25.4799 12.5651 26.1193C12.5082 26.2253 12.4892 26.3512 12.4533 26.4682V26.4692Z" fill="#F5DC00"/>
<path d="M12.4533 26.4692C12.4892 26.3522 12.5082 26.2263 12.5651 26.1203C12.9066 25.4809 13.2541 24.8445 13.6066 24.2111C13.6525 24.1279 13.7364 24.0644 13.8033 23.9921C13.6296 24.6958 13.4199 25.3897 12.9795 25.9815C12.8397 26.1698 12.631 26.3086 12.4533 26.4692Z" fill="#FFF9C2"/>
<path d="M20.225 26.7289C19.8585 27.1432 19.4911 27.5586 19.1246 27.9729C19.1006 27.959 19.0767 27.9461 19.0527 27.9323C19.2534 27.5496 19.4072 27.1333 19.6618 26.7904C20.4666 25.7059 21.5251 24.9853 22.8911 24.792C24.1722 24.6106 25.2427 25.0755 26.1414 25.9537C26.5997 26.4018 27.0081 26.8974 27.2408 27.507C27.2827 27.6171 27.3197 27.7281 27.3596 27.8381C27.3396 27.848 27.3197 27.8579 27.2997 27.8668C26.9033 27.4347 26.5079 27.0025 26.1114 26.5703C26.0455 26.4979 25.9846 26.4186 25.9117 26.3552C24.1063 24.7979 21.9635 25.133 20.225 26.7279V26.7289Z" fill="#5C5300"/>
<path d="M31.3917 27.0669C31.1731 27.3355 30.9534 27.6052 30.7347 27.8738C30.7077 27.8609 30.6808 27.849 30.6538 27.8361C30.6978 27.7023 30.7247 27.5606 30.7886 27.4366C31.4577 26.1292 32.4193 25.1597 33.9131 24.8257C34.7499 24.6384 35.5587 24.7761 36.3176 25.1419C37.4869 25.7059 38.4065 26.5207 38.8479 27.7796C38.8669 27.8351 38.8809 27.8916 38.8589 27.9699C38.5234 27.5794 38.1869 27.1878 37.8514 26.7973C36.9816 25.9765 35.9841 25.3917 34.7588 25.3501C33.3309 25.3005 32.2655 26.0132 31.3917 27.0669Z" fill="#5C5300"/>
<path d="M23.9026 38.3939C23.4443 38.6368 22.957 38.8211 22.4278 38.7815C20.923 38.6685 19.7017 38.0539 18.8939 36.7395C18.4066 35.9475 18.1081 35.0931 18.0052 34.1702C17.9932 34.0612 18.0032 33.9492 18.0671 33.8243C18.0991 33.9184 18.138 34.0116 18.163 34.1087C18.4306 35.1644 18.9448 36.1051 19.6518 36.916C20.6044 38.0083 21.8466 38.4871 23.3105 38.3533C23.5012 38.3364 23.6909 38.3206 23.8817 38.3047C23.8887 38.3344 23.8966 38.3632 23.9036 38.3929L23.9026 38.3939Z" fill="#5C5300"/>
<path d="M31.3917 27.0669C32.2655 26.0142 33.3319 25.3005 34.7588 25.3501C35.9831 25.3927 36.9806 25.9765 37.8514 26.7973C37.0935 26.3711 36.2726 26.1351 35.4149 26.0202C34.0938 25.8417 32.8826 26.1431 31.7642 26.8498C31.6434 26.9262 31.5166 26.9945 31.3917 27.0659V27.0669Z" fill="#F5DC00"/>
<path d="M20.225 26.7289C21.9645 25.134 24.1063 24.7989 25.9117 26.3562C25.9856 26.4196 26.0455 26.4989 26.1114 26.5713C26.0355 26.5445 25.9567 26.5237 25.8848 26.49C24.1962 25.6861 22.5007 25.8834 20.8041 26.4573C20.6034 26.5257 20.4177 26.6377 20.225 26.7299V26.7289Z" fill="#F5DC00"/>
</svg>
