<svg width="58" height="58" viewBox="0 0 58 58" fill="none" xmlns="http://www.w3.org/2000/svg">
<circle cx="29" cy="29" r="29" fill="#FED0F6"/>
<path d="M9.3335 18.4304C9.67259 18.1051 10.0124 17.7812 10.3508 17.4544C11.093 16.7383 11.5142 15.8429 11.7971 14.8698C11.8245 14.7755 11.8418 14.6777 11.8835 14.5898C11.9073 14.5395 11.9706 14.4747 12.0138 14.4761C12.057 14.4783 12.1247 14.5488 12.1348 14.5992C12.1895 14.8605 12.232 15.1246 12.2745 15.3888C12.4012 16.1711 12.5545 16.9477 12.9728 17.6365C13.1787 17.9755 13.4278 18.2894 13.6596 18.6132C13.836 18.8601 13.8209 18.9378 13.5387 19.0372C12.8065 19.2948 12.3061 19.8023 11.9656 20.4824C11.7532 20.9064 11.5488 21.3346 11.3414 21.7607C11.3155 21.7621 11.2896 21.7636 11.2637 21.7643C11.2349 21.6376 11.1938 21.5117 11.1787 21.3836C11.0765 20.5227 10.7439 19.7742 10.0981 19.184C9.90081 19.0041 9.67907 18.8522 9.47029 18.6845C9.42061 18.6442 9.37885 18.5938 9.3335 18.5477C9.3335 18.5082 9.3335 18.4693 9.3335 18.4297V18.4304ZM11.5322 16.4706C11.0952 17.3127 10.4897 17.9957 9.61139 18.4542C10.3875 18.7147 10.8727 19.2286 11.1478 19.9534C11.2392 20.201 11.3313 20.4479 11.4321 20.7192C11.9037 19.8102 12.4393 19.0033 13.5675 18.7925C12.4602 17.9619 12.1139 16.811 11.926 15.5493C11.782 15.8861 11.6575 16.1783 11.5329 16.4706H11.5322Z" fill="#6B055B"/>
<path d="M28.8447 8.54252C29.9555 8.54252 31.0686 8.49861 32.1766 8.55475C33.3033 8.61161 34.4271 8.75124 35.5488 8.88512C36.5927 9.00963 37.6287 9.19029 38.6308 9.52713C40.3061 10.0893 41.6654 11.0818 42.7064 12.5112C43.4998 13.6009 43.8036 14.8051 43.5855 16.1402C43.327 17.7222 42.7237 19.1351 41.5725 20.2802C40.8915 20.9582 40.057 21.4087 39.2147 21.8471C38.5776 22.1782 37.9411 22.5128 37.3148 22.8634C37.0887 22.99 36.8799 23.1556 36.6834 23.3262C35.7619 24.1258 35.5473 25.1054 36.039 26.2231C36.3623 26.958 36.8893 27.5338 37.4818 28.0578C38.3256 28.8027 39.3033 29.3469 40.2601 29.9241C40.9699 30.3523 41.6769 30.7892 42.3637 31.2542C43.7323 32.1805 44.5185 33.4595 44.6632 35.1243C44.8202 36.9251 44.6632 38.6705 43.8792 40.3317C43.2586 41.6474 42.4055 42.791 41.4249 43.8563C40.201 45.1857 38.7561 46.1695 37.0563 46.7864C36.3688 47.0361 35.6913 47.3118 35.0124 47.5839C33.6978 48.1122 32.3364 48.4209 30.9181 48.4598C29.2457 48.5051 27.5725 48.5418 25.903 48.3964C25.101 48.3266 24.3083 48.187 23.556 47.8948C22.1024 47.3298 20.6467 46.7648 19.2147 46.148C18.6935 45.9234 18.1996 45.5959 17.7575 45.236C16.034 43.8311 14.6172 42.1764 13.7035 40.1222C13.083 38.7266 12.885 37.2627 12.9742 35.7569C13.0095 35.1603 13.0966 34.5578 13.2428 33.9792C13.5228 32.8729 14.2147 32.0243 15.1384 31.3924C16.1024 30.7324 17.1038 30.1263 18.1031 29.5203C19.0002 28.9769 19.8749 28.4076 20.6179 27.6598C21.0066 27.2682 21.3465 26.8393 21.5848 26.3361C22.1658 25.1104 21.9145 24.0416 20.8468 23.2031C20.2406 22.7273 19.5531 22.3926 18.8699 22.0493C18.4321 21.8291 17.9987 21.6009 17.5696 21.3648C15.777 20.3759 14.728 18.8342 14.2341 16.8779C13.8922 15.5226 13.921 14.2098 14.6654 12.9769C15.0462 12.3464 15.512 11.7835 16.0534 11.284C17.2845 10.1476 18.7496 9.48395 20.3817 9.1759C23.003 8.67927 25.6431 8.4072 28.3155 8.52884C28.4919 8.53676 28.6683 8.52956 28.8447 8.52956C28.8447 8.53388 28.8447 8.5382 28.8447 8.54252ZM37.9339 21.9601C38.345 21.747 38.7611 21.5433 39.1658 21.3188C39.8295 20.9503 40.4811 20.5587 41.0232 20.0189C42.1096 18.9378 42.6884 17.6042 42.9598 16.1143C43.196 14.818 42.8886 13.6743 42.0714 12.6444C40.9937 11.2869 39.6179 10.393 37.9591 9.91796C36.9131 9.61854 35.8382 9.47171 34.7633 9.32992C34.2788 9.26587 33.7907 9.22484 33.304 9.17302C32.9469 9.13487 32.5905 9.07297 32.2327 9.0629C30.9397 9.02835 29.646 9.00532 28.3522 8.98876C26.7626 8.96861 25.1751 9.02403 23.5999 9.25075C22.4508 9.41629 21.2968 9.57248 20.1622 9.81143C18.5279 10.1555 17.1226 10.9486 15.9915 12.1909C15.4105 12.8293 14.9195 13.5253 14.7302 14.3934C14.5531 15.2081 14.6589 16.0063 14.8663 16.7966C15.3371 18.5924 16.2946 20.0355 17.9325 20.9776C18.3738 21.2317 18.8281 21.4656 19.2644 21.7269C19.8915 22.1026 20.5437 22.4473 21.1211 22.89C22.3155 23.8055 22.6071 25.0507 22.0174 26.4369C21.6582 27.2812 21.0513 27.9347 20.3774 28.5357C19.548 29.2756 18.5891 29.8284 17.6632 30.4294C16.9296 30.9058 16.1924 31.3809 15.489 31.8998C14.6301 32.5339 14.0462 33.3681 13.8504 34.4412C13.6942 35.2963 13.6884 36.1578 13.7439 37.0208C13.7957 37.8262 13.9354 38.6143 14.2233 39.3744C14.8072 40.9161 15.7511 42.221 16.8511 43.4302C17.7777 44.4486 18.8123 45.313 20.0966 45.8435C21.1765 46.2897 22.2601 46.7295 23.3465 47.1599C23.6611 47.2844 23.9922 47.3665 24.3162 47.468C24.6524 47.5443 24.9858 47.6551 25.3263 47.6904C26.178 47.7775 27.0326 47.8343 27.8864 47.8941C28.2766 47.9214 28.669 47.9516 29.0592 47.938C29.7251 47.9149 30.3897 47.8516 31.0556 47.8171C32.0923 47.7623 33.1161 47.6342 34.088 47.2513C35.3162 46.7677 36.5408 46.2746 37.7575 45.7622C38.4775 45.4584 39.1406 45.046 39.7237 44.5213C40.8382 43.5194 41.8166 42.3988 42.6042 41.1205C43.0801 40.3489 43.4667 39.532 43.6863 38.6503C44.0045 37.3735 44.0398 36.0779 43.885 34.7745C43.7496 33.6301 43.2111 32.7117 42.3177 31.9984C42.0117 31.7537 41.6992 31.514 41.3717 31.3003C40.4465 30.6964 39.502 30.1227 38.584 29.5081C37.3673 28.6933 36.2629 27.7613 35.6265 26.3908C35.592 26.2858 35.556 26.1814 35.5228 26.0756C35.1888 24.9981 35.3846 24.0366 36.1823 23.2268C36.4278 22.9778 36.7093 22.7604 36.9944 22.556C37.2953 22.3401 37.6208 22.158 37.9354 21.9608L37.9339 21.9601Z" fill="#6B055B"/>
<path d="M17.6762 24.1733C17.6236 24.2316 17.5956 24.2777 17.5552 24.3036C16.9656 24.6879 16.6546 25.2457 16.4926 25.9194C16.34 26.5535 16.3997 27.1912 16.3904 27.8289C16.3904 27.8548 16.3904 27.8807 16.3904 27.9642C16.2658 27.8764 16.1665 27.8145 16.0765 27.7411C15.7395 27.464 15.4156 27.1682 15.0678 26.9062C14.5941 26.5492 14.0282 26.4707 13.4559 26.4369C13.1427 26.4189 12.8295 26.4168 12.5164 26.3966C12.4494 26.3923 12.3853 26.3397 12.3198 26.3088C12.3637 26.2599 12.4041 26.2073 12.4523 26.1641C12.4998 26.1217 12.5725 26.0994 12.6056 26.049C13.147 25.2328 13.5106 24.3511 13.4501 23.3542C13.4292 23.0102 13.2853 22.6741 13.2017 22.3329C13.1722 22.2141 13.1305 22.0903 13.1384 21.9716C13.1521 21.7729 13.3148 21.7038 13.4703 21.8276C13.6229 21.9486 13.7763 22.0767 13.8958 22.2285C14.4278 22.9029 15.1262 23.3305 15.9238 23.6054C16.4516 23.7875 16.9879 23.943 17.5207 24.1107C17.566 24.1251 17.6092 24.146 17.6755 24.1733H17.6762ZM15.417 26.6651C15.6265 26.8752 15.8353 27.0861 16.0779 27.3301C16.0174 26.2023 16.1859 25.1961 16.9843 24.3561C15.7835 24.1517 14.759 23.6565 13.8814 22.8367C13.9123 23.152 13.9404 23.4406 13.9692 23.7292C13.9598 24.5792 13.6056 25.2947 13.0743 25.9367C13.4307 25.9367 13.7583 25.9072 14.0794 25.9432C14.6143 26.0029 15.034 26.3074 15.417 26.6651Z" fill="#6B055B"/>
<path d="M41.2673 27.9023C41.3162 27.1502 41.3393 26.398 41.1161 25.6682C40.9462 25.1126 40.6438 24.644 40.147 24.318C40.0959 24.2841 40.0527 24.2381 39.9685 24.1654C40.2565 24.0754 40.4991 23.9948 40.7453 23.9243C41.6121 23.676 42.4775 23.4212 43.1845 22.8231C43.3825 22.6554 43.5538 22.456 43.7395 22.2732C43.8879 22.1271 44.0318 21.9752 44.1917 21.842C44.2464 21.796 44.3781 21.7593 44.412 21.7888C44.4811 21.85 44.5401 21.9579 44.5423 22.0486C44.5459 22.1602 44.4998 22.2789 44.4544 22.3862C43.9858 23.4975 44.2507 24.5339 44.7691 25.5459C44.8346 25.6733 44.903 25.8021 44.9879 25.9165C45.0592 26.0123 45.1586 26.0864 45.2413 26.1742C45.2817 26.2167 45.3141 26.2678 45.3493 26.3146C45.2961 26.3426 45.2449 26.3908 45.1895 26.3959C44.9879 26.4139 44.7842 26.4355 44.5833 26.4247C43.3918 26.3613 42.4429 26.8479 41.6445 27.6922C41.5516 27.7908 41.4321 27.8649 41.3256 27.9505C41.3069 27.9347 41.2874 27.9189 41.2687 27.9038L41.2673 27.9023ZM43.1514 23.3715C42.4112 23.8818 41.5948 24.21 40.6863 24.3612C41.2241 24.9002 41.4703 25.5387 41.5804 26.2404V27.2848C41.6035 27.2941 41.6265 27.3035 41.6495 27.3121C41.8893 27.0645 42.1211 26.8083 42.3709 26.5722C42.9505 26.0238 43.6402 25.8186 44.4292 25.9439C44.4753 25.9511 44.5236 25.9446 44.615 25.9446C43.8497 25.024 43.5178 24.0207 43.8267 22.8259C43.5754 23.0289 43.3637 23.2002 43.1528 23.3715H43.1514Z" fill="#6B055B"/>
<path d="M46.3378 21.765C46.1557 21.3922 45.967 21.0215 45.7914 20.6451C45.4314 19.8742 44.9044 19.2855 44.0707 19.0127C43.8778 18.9494 43.8511 18.8587 43.9678 18.6881C44.0923 18.5053 44.2262 18.3275 44.363 18.1533C44.9339 17.4293 45.1953 16.5814 45.3493 15.6911C45.4048 15.3701 45.4537 15.0476 45.507 14.7259C45.5142 14.6813 45.5185 14.6309 45.543 14.5949C45.5754 14.5459 45.6258 14.4761 45.6676 14.4761C45.7107 14.4761 45.7741 14.5438 45.7921 14.5949C45.8951 14.89 45.9786 15.1916 46.0858 15.4852C46.3803 16.2957 46.8252 17.0082 47.4688 17.5919C47.7302 17.8287 47.9814 18.0763 48.2341 18.3225C48.3825 18.4671 48.3796 18.5434 48.2212 18.673C48.0146 18.8421 47.7907 18.9918 47.592 19.1703C46.9166 19.7756 46.5934 20.5551 46.4883 21.4397C46.4753 21.5491 46.4429 21.6563 46.4192 21.7643C46.3925 21.7643 46.3659 21.7643 46.34 21.7643L46.3378 21.765ZM45.5524 16.5519C45.3184 17.4336 44.9094 18.2059 44.1334 18.7759C44.2421 18.8133 44.3141 18.8414 44.3875 18.8637C44.7604 18.9767 45.1067 19.1372 45.3709 19.433C45.5308 19.6123 45.6755 19.8059 45.8274 19.993C45.9663 20.2255 46.1053 20.458 46.2586 20.7149C46.556 19.726 46.9404 18.8141 48.07 18.4592C46.8547 17.7956 46.1715 16.7808 45.7647 15.5349C45.6906 15.8904 45.6215 16.2208 45.5524 16.5519Z" fill="#6B055B"/>
<path d="M11.1478 19.9534C10.8735 19.2286 10.3875 18.7147 9.61139 18.4542C10.4897 17.9957 11.0945 17.3134 11.5322 16.4706C11.5797 16.6239 11.6208 16.7793 11.6769 16.9298C11.8907 17.5041 12.1082 18.0778 12.3292 18.65C12.3637 18.7399 12.3889 18.7946 12.2939 18.881C11.9613 19.1818 11.6474 19.5029 11.3241 19.8145C11.2709 19.8656 11.2075 19.9066 11.1485 19.9527L11.1478 19.9534Z" fill="#FDC9F4"/>
<path d="M11.1478 19.9534C11.2068 19.9074 11.2701 19.8663 11.3234 19.8152C11.6467 19.5043 11.9613 19.1833 12.2932 18.8817C12.3889 18.7953 12.3637 18.7406 12.3285 18.6507C12.1082 18.0785 11.8907 17.5048 11.6762 16.9305C11.62 16.78 11.579 16.6246 11.5315 16.4713C11.656 16.1791 11.7813 15.8868 11.9246 15.55C12.1132 16.8117 12.4588 17.9619 13.566 18.7932C12.4379 19.0041 11.9023 19.8116 11.4307 20.7199C11.3299 20.4486 11.2385 20.201 11.1463 19.9541L11.1478 19.9534Z" fill="#F51ED2"/>
<path d="M24.3148 47.4673C23.9915 47.3658 23.6596 47.2837 23.345 47.1592C22.2586 46.7288 21.1751 46.2897 20.0952 45.8428C18.8115 45.3123 17.7763 44.4472 16.8497 43.4295C15.7496 42.2203 14.8065 40.9161 14.2219 39.3737C13.9339 38.6136 13.7943 37.8255 13.7424 37.0201C13.687 36.1571 13.6927 35.2956 13.849 34.4405C14.0455 33.3681 14.6287 32.5332 15.4876 31.8991C16.1909 31.3801 16.9282 30.9051 17.6618 30.4286C18.5876 29.8276 19.5466 29.2749 20.376 28.535C21.0498 27.934 21.6575 27.2805 22.016 26.4362C22.6049 25.05 22.3141 23.8055 21.1197 22.8893C20.543 22.4466 19.89 22.1019 19.2629 21.7262C18.8259 21.4642 18.3724 21.231 17.931 20.9769C16.2939 20.0355 15.3364 18.5917 14.8648 16.7959C14.6575 16.0056 14.5516 15.2074 14.7287 14.3926C14.9174 13.5253 15.4084 12.8286 15.9901 12.1902C17.1211 10.9479 18.5264 10.1548 20.1607 9.81071C21.2961 9.57176 22.4494 9.41557 23.5984 9.25003C25.1737 9.02331 26.7611 8.96789 28.3508 8.98804C29.6445 9.0046 30.9382 9.02691 32.2313 9.06218C32.5891 9.07153 32.9454 9.13415 33.3025 9.1723C33.4595 9.2126 33.615 9.26371 33.7741 9.29178C35.147 9.53361 36.3544 10.1144 37.3882 11.0523C38.2075 11.7951 38.8979 12.6444 39.4688 13.588C40.268 14.908 40.5768 16.346 40.3918 17.8726C40.2442 19.0919 39.674 20.1269 38.8483 21.0237C38.5524 21.3447 38.2377 21.6477 37.9318 21.9586C37.6172 22.1558 37.2917 22.3379 36.9908 22.5539C36.7057 22.7583 36.4242 22.9756 36.1787 23.2247C35.381 24.0344 35.1852 24.996 35.5192 26.0734C35.5516 26.1792 35.5884 26.2836 35.6229 26.3887C35.7136 26.8875 35.8648 27.3704 36.1413 27.7944C36.6546 28.5825 37.183 29.3605 37.7266 30.1285C38.3263 30.9764 38.8461 31.8631 39.1852 32.8484C39.6121 34.0886 39.7532 35.364 39.6733 36.6717C39.5999 37.8694 39.44 39.0541 39.1024 40.205C38.3702 42.704 36.8317 44.5393 34.4955 45.6967C34.0621 45.9112 33.6236 46.1177 33.1765 46.3005C31.9462 46.8029 30.6999 47.2564 29.3565 47.3521C28.4703 47.4147 27.5848 47.4867 26.6978 47.5306C26.1837 47.5558 25.6668 47.5421 25.1514 47.5306C24.8713 47.5248 24.5927 47.4888 24.3126 47.4665L24.3148 47.4673ZM26.3681 23.1707C26.2781 23.0131 26.1881 22.8554 26.0815 22.6683C25.9375 22.9245 26.0153 23.1232 26.1312 23.3038C26.3277 23.6105 26.5905 23.8537 26.9073 24.0366C27.6647 24.4742 28.4724 24.6843 29.3479 24.5433C30.1542 24.4137 30.8771 24.1114 31.422 23.4723C31.5639 23.306 31.6827 23.1246 31.6668 22.8929C31.6625 22.8274 31.6272 22.764 31.6064 22.6993C31.5819 22.6935 31.5581 22.6877 31.5336 22.682C31.4422 23.1505 31.1182 23.4161 30.7547 23.6472C30.5509 23.7127 30.3508 23.8034 30.142 23.8393C29.0261 24.0351 27.9462 23.9149 26.913 23.4341C26.7302 23.3492 26.5502 23.2578 26.3688 23.17L26.3681 23.1707ZM22.7957 19.2344C23.5516 19.2488 24.1154 19.0854 24.6539 18.8112C25.5293 18.3656 26.1737 17.6718 26.7309 16.8851C26.8094 16.7743 26.9332 16.639 26.7892 16.5274C26.6229 16.3986 26.5444 16.5792 26.4588 16.6894C25.7655 17.5804 24.9332 18.2879 23.8238 18.5974C22.9375 18.845 22.0873 18.7802 21.3328 18.1908C20.9562 17.8971 20.6776 17.5192 20.43 17.1154C20.3616 17.0046 20.2925 16.8923 20.2097 16.7923C20.1809 16.7577 20.1067 16.739 20.0606 16.7484C20.0347 16.7534 20.0038 16.8355 20.0102 16.8765C20.0297 16.9909 20.0549 17.109 20.1017 17.2148C20.646 18.4527 21.6028 19.1135 22.795 19.2351L22.7957 19.2344ZM34.6294 19.2337C35.8367 19.1135 36.7871 18.4513 37.3328 17.2248C37.3846 17.109 37.3997 16.9751 37.4213 16.8477C37.4271 16.8139 37.3983 16.752 37.3702 16.7412C37.3378 16.7289 37.2788 16.7469 37.25 16.7721C37.2017 16.8146 37.1658 16.8715 37.1298 16.9254C36.9764 17.1529 36.836 17.3897 36.6712 17.6085C36.1269 18.3297 35.4156 18.7399 34.494 18.7277C33.9023 18.7198 33.3414 18.5722 32.8245 18.2872C32.0765 17.8748 31.4379 17.3335 30.9426 16.6318C30.8699 16.5281 30.7763 16.4281 30.6589 16.5238C30.6114 16.5627 30.6071 16.7297 30.6495 16.7923C31.1679 17.5372 31.7496 18.2203 32.5524 18.6831C33.1586 19.0321 33.7971 19.2538 34.6301 19.2358L34.6294 19.2337Z" fill="#FDC9F4"/>
<path d="M24.3148 47.4673C24.5941 47.4896 24.8735 47.5256 25.1535 47.5313C25.669 47.5421 26.1852 47.5558 26.6999 47.5313C27.5869 47.4874 28.4724 47.4162 29.3587 47.3528C30.7021 47.2578 31.9483 46.8044 33.1787 46.3013C33.6258 46.1184 34.0642 45.9119 34.4976 45.6974C36.8339 44.54 38.3724 42.7047 39.1046 40.2057C39.4415 39.0541 39.6013 37.8701 39.6755 36.6725C39.7561 35.3647 39.615 34.0893 39.1873 32.8492C38.8483 31.8638 38.3285 30.9771 37.7287 30.1292C37.1859 29.3613 36.6575 28.5832 36.1434 27.7951C35.867 27.3711 35.7158 26.8882 35.6251 26.3894C36.2615 27.7598 37.3652 28.6919 38.5826 29.5066C39.5005 30.1213 40.4451 30.6949 41.3702 31.2988C41.6978 31.5126 42.0102 31.7523 42.3162 31.997C43.2104 32.711 43.7482 33.6294 43.8835 34.773C44.0376 36.0765 44.003 37.3721 43.6848 38.6489C43.4652 39.5306 43.0779 40.3475 42.6028 41.1191C41.8151 42.3973 40.8367 43.518 39.7223 44.5199C39.1391 45.0446 38.476 45.457 37.7561 45.7607C36.5401 46.2732 35.3148 46.7662 34.0866 47.2499C33.1146 47.6328 32.0909 47.7616 31.0542 47.8156C30.3882 47.8502 29.7237 47.9135 29.0578 47.9365C28.6676 47.9502 28.2752 47.92 27.885 47.8926C27.0311 47.8329 26.1765 47.776 25.3249 47.6889C24.9843 47.6544 24.651 47.5428 24.3148 47.4665L24.3148 47.4673Z" fill="#F51ED2"/>
<path d="M37.9339 21.9601C38.2399 21.6491 38.5552 21.3461 38.8504 21.0251C39.6762 20.1283 40.2464 19.0933 40.394 17.8741C40.579 16.3475 40.2701 14.9101 39.471 13.5894C38.9001 12.6451 38.2097 11.7958 37.3904 11.0537C36.3565 10.1159 35.1492 9.53505 33.7763 9.29322C33.6172 9.26515 33.4616 9.21404 33.3047 9.17374C33.7914 9.22556 34.2788 9.26658 34.764 9.33064C35.8389 9.47243 36.9138 9.61926 37.9598 9.91868C39.6179 10.393 40.9944 11.2869 42.0722 12.6451C42.8893 13.675 43.196 14.8187 42.9606 16.115C42.6899 17.6042 42.1103 18.9378 41.0239 20.0196C40.4811 20.5602 39.8303 20.9517 39.1665 21.3195C38.7619 21.5441 38.3457 21.7477 37.9346 21.9608L37.9339 21.9601Z" fill="#F51ED2"/>
<path d="M15.417 26.6651C15.034 26.3074 14.6143 26.0029 14.0794 25.9432C13.759 25.9072 13.4307 25.9367 13.0743 25.9367C13.6056 25.294 13.9606 24.5785 13.9692 23.7292C14.0189 23.7386 14.0794 23.7343 14.1175 23.7609C14.2939 23.884 14.4523 24.0366 14.6388 24.1388C15.0225 24.3489 15.4199 24.5332 15.8123 24.7289C15.8792 24.7628 15.9454 24.7988 16.0246 24.8405C15.7359 25.2832 15.5603 25.7431 15.4904 26.2426C15.471 26.3844 15.4415 26.5247 15.417 26.6651Z" fill="#FDC9F4"/>
<path d="M15.417 26.6651C15.4415 26.524 15.471 26.3837 15.4904 26.2426C15.5603 25.7431 15.7352 25.2832 16.0246 24.8405C15.9454 24.7988 15.8799 24.7628 15.8123 24.7289C15.4206 24.5332 15.0225 24.3489 14.6388 24.1388C14.4523 24.0366 14.2939 23.8832 14.1175 23.7609C14.0794 23.7343 14.0189 23.7393 13.9692 23.7292C13.9411 23.4406 13.9123 23.152 13.8814 22.8367C14.759 23.6558 15.7835 24.1517 16.9843 24.3561C16.1859 25.1961 16.0182 26.2023 16.0779 27.3301C15.8353 27.0861 15.6258 26.876 15.417 26.6651Z" fill="#F51ED2"/>
<path d="M41.5797 26.2404C41.4696 25.5387 41.2233 24.9002 40.6855 24.3612C41.5941 24.21 42.4105 23.8825 43.1506 23.3715C43.1478 23.4298 43.1506 23.4888 43.1413 23.5457C43.0606 24.0783 43.1038 24.6008 43.2709 25.1133C43.3047 25.2169 43.3501 25.3163 43.3875 25.4098C43.129 25.4832 42.8706 25.5207 42.646 25.6294C42.2781 25.8086 41.9332 26.0339 41.5783 26.2404H41.5797Z" fill="#FDC9F4"/>
<path d="M41.5797 26.2404C41.9346 26.0346 42.2795 25.8086 42.6474 25.6294C42.8713 25.52 43.1305 25.4832 43.3889 25.4098C43.3522 25.3163 43.3061 25.2169 43.2723 25.1133C43.1053 24.6016 43.0621 24.079 43.1427 23.5457C43.1514 23.4881 43.1492 23.4291 43.1521 23.3715C43.3637 23.2002 43.5747 23.0296 43.8259 22.8259C43.5171 24.0207 43.849 25.024 44.6143 25.9446C44.5236 25.9446 44.4746 25.9511 44.4285 25.9439C43.6402 25.8186 42.9505 26.0245 42.3702 26.5722C42.1204 26.809 41.8886 27.0653 41.6488 27.3121C41.6258 27.3028 41.6028 27.2934 41.5797 27.2848L41.5797 26.2404Z" fill="#F51ED2"/>
<path d="M45.8267 19.993C45.6755 19.8059 45.5308 19.6123 45.3702 19.433C45.106 19.1372 44.759 18.9767 44.3868 18.8637C44.3133 18.8414 44.2413 18.8133 44.1326 18.7759C44.9087 18.2059 45.3177 17.4336 45.5516 16.5519C45.5776 16.5692 45.6136 16.5807 45.6287 16.6044C46.0189 17.2306 46.4091 17.8568 46.7899 18.4894C46.8151 18.5319 46.7835 18.6341 46.746 18.6838C46.5812 18.9019 46.3925 19.1034 46.2349 19.3258C46.0844 19.5381 45.9613 19.7699 45.8267 19.993Z" fill="#FDC9F4"/>
<path d="M45.8267 19.993C45.9613 19.7699 46.0844 19.5381 46.2349 19.3258C46.3925 19.1027 46.5812 18.9019 46.746 18.6838C46.7835 18.6341 46.8159 18.5319 46.7899 18.4894C46.4091 17.8575 46.0189 17.2313 45.6287 16.6044C45.6136 16.58 45.5776 16.5692 45.5516 16.5519C45.6208 16.2208 45.6899 15.8904 45.764 15.5349C46.1715 16.7808 46.854 17.7956 48.0693 18.4592C46.9397 18.8133 46.5552 19.7253 46.2579 20.7149C46.1046 20.458 45.9656 20.2255 45.8267 19.993Z" fill="#F51ED2"/>
<path d="M22.7957 19.2344C21.6035 19.1127 20.6467 18.452 20.1024 17.2141C20.0556 17.1082 20.0311 16.9902 20.011 16.8758C20.0038 16.8347 20.0354 16.7534 20.0614 16.7477C20.1074 16.7383 20.1816 16.757 20.2104 16.7916C20.2932 16.8916 20.3623 17.0039 20.4307 17.1147C20.6783 17.5185 20.957 17.8957 21.3335 18.19C22.088 18.7795 22.9382 18.8443 23.8245 18.5967C24.9332 18.2865 25.7662 17.5797 26.4595 16.6886C26.5452 16.5785 26.6236 16.3979 26.7899 16.5267C26.9339 16.6383 26.8108 16.7736 26.7316 16.8844C26.1737 17.6718 25.53 18.3649 24.6546 18.8105C24.1161 19.0847 23.5516 19.2481 22.7964 19.2337L22.7957 19.2344Z" fill="#6B055B"/>
<path d="M34.6294 19.2337C33.7957 19.2517 33.1578 19.03 32.5516 18.6809C31.7489 18.2188 31.1672 17.5358 30.6488 16.7901C30.6056 16.7282 30.6107 16.5605 30.6582 16.5217C30.7763 16.4259 30.8691 16.5267 30.9418 16.6296C31.4364 17.3314 32.0758 17.8726 32.8238 18.285C33.3414 18.5708 33.9015 18.7176 34.4933 18.7255C35.4149 18.7385 36.1262 18.3275 36.6704 17.6063C36.8353 17.3875 36.9757 17.1507 37.129 16.9233C37.165 16.8693 37.2017 16.8124 37.2493 16.77C37.2781 16.7448 37.3371 16.7261 37.3695 16.739C37.3976 16.7498 37.4256 16.8117 37.4206 16.8455C37.3997 16.9729 37.3839 17.1068 37.3321 17.2227C36.7863 18.4491 35.836 19.1113 34.6287 19.2315L34.6294 19.2337Z" fill="#6B055B"/>
<path d="M30.7547 23.6472C31.1182 23.4161 31.4422 23.1505 31.5336 22.682C31.5581 22.6877 31.5819 22.6935 31.6064 22.6993C31.6272 22.764 31.6625 22.8274 31.6668 22.8929C31.6827 23.1246 31.5632 23.306 31.422 23.4723C30.8771 24.1114 30.1542 24.4137 29.3479 24.5433C28.4724 24.6843 27.6654 24.4734 26.9073 24.0366C26.5905 23.8537 26.3277 23.6105 26.1312 23.3038C26.0153 23.1232 25.9375 22.9253 26.0815 22.6683C26.1888 22.8554 26.2788 23.0131 26.3681 23.1707C26.6287 23.5097 26.9757 23.7364 27.3537 23.9207C28.1024 24.2863 28.8915 24.3101 29.687 24.1452C30.0736 24.0653 30.4494 23.9214 30.7547 23.6472Z" fill="#6B055B"/>
<path d="M30.7547 23.6472C30.4494 23.9214 30.0736 24.0653 29.687 24.1452C28.8922 24.3101 28.1031 24.2856 27.3537 23.9207C26.9757 23.7364 26.6287 23.5097 26.3681 23.1707C26.5495 23.2592 26.7295 23.3499 26.9123 23.4348C27.9454 23.9149 29.0254 24.0351 30.1413 23.8401C30.3508 23.8034 30.5502 23.7134 30.7539 23.6479L30.7547 23.6472Z" fill="#F51ED2"/>
</svg>
