<svg width="58" height="58" viewBox="0 0 58 58" fill="none" xmlns="http://www.w3.org/2000/svg">
<circle cx="29" cy="29" r="29" fill="#BBFDF5"/>
<path d="M28.9446 9.5C29.5264 11.306 30.4234 12.9235 31.3757 14.515C32.458 16.3226 34.0164 17.6703 35.6414 18.9496C38.4414 21.1523 40.8871 23.6736 42.8697 26.6533C44.3794 28.9243 45.1951 31.3773 45.3008 34.1002C45.3609 35.6543 45.4064 37.2083 44.9368 38.7006C43.7456 42.4785 41.2966 45.1266 37.6435 46.6628C36.3613 47.2025 35.019 47.4285 33.6443 47.4463C30.8167 47.4821 27.9907 47.4967 25.1631 47.5C20.6097 47.5049 17.0394 45.6273 14.4978 41.838C13.1149 39.7768 12.4909 37.4879 12.6794 35.0121C12.7883 33.5621 12.9085 32.1007 13.2092 30.6832C13.5732 28.9617 14.5596 27.5035 15.5363 26.0583C17.3709 23.342 19.6249 21.0157 22.238 19.0666C25.2736 16.8022 27.3748 13.8875 28.6911 10.3681C28.7967 10.0868 28.8633 9.78936 28.9462 9.5H28.9446ZM28.722 11.4166C27.5454 14.2272 25.9382 16.7112 23.5202 18.644C21.6595 20.133 19.8118 21.6465 18.2306 23.4558C17.0329 24.8245 15.9701 26.2827 15.0179 27.8286C13.8023 29.8037 13.3262 31.9869 13.2514 34.2644C13.2124 35.4364 13.1767 36.641 13.3961 37.7822C13.9307 40.5571 15.5054 42.7386 17.696 44.465C19.4429 45.8419 21.4141 46.7213 23.6713 46.8205C25.0526 46.8806 26.4371 46.8985 27.8201 46.9359C28.0069 46.9603 28.1954 47.0107 28.3823 47.0058C30.2365 46.9554 32.0891 46.8823 33.9416 46.8416C35.895 46.7977 37.6728 46.2174 39.3043 45.1575C41.9727 43.4262 43.8008 41.0691 44.5776 37.9594C44.9124 36.6166 44.8376 35.2397 44.7239 33.8677C44.5646 31.943 44.2152 30.0801 43.2581 28.3618C41.4705 25.1464 39.0736 22.4625 36.2638 20.1184C35.0207 19.0813 33.7596 18.0523 32.6253 16.9013C31.0653 15.3164 30.0724 13.3462 29.2241 11.306C29.1607 11.1516 29.0843 11.0037 28.9722 10.7598C28.8633 11.0443 28.7902 11.2313 28.7187 11.4182L28.722 11.4166Z" fill="#00665A"/>
<path d="M47.0071 30.5954C47.4215 31.4391 47.8326 32.2714 48.2389 33.1053C48.4631 33.5654 48.7118 34.0189 48.8889 34.4968C49.1132 35.1064 48.9897 35.5161 48.5931 35.7502C48.1609 36.0054 47.6181 35.8883 47.207 35.4413C46.7064 34.8951 46.5651 34.2188 46.6041 33.515C46.6496 32.6794 46.7568 31.8471 46.8527 31.0148C46.8706 30.8555 46.9648 30.7059 47.0071 30.5954ZM47.0396 33.2077C46.96 33.9896 46.9908 34.7342 47.7221 35.243C47.909 35.2706 48.1982 35.3812 48.2584 35.3064C48.3705 35.1698 48.4323 34.887 48.3656 34.7277C48.0244 33.9084 47.636 33.1102 47.2638 32.3039C47.2281 32.3088 47.194 32.3136 47.1582 32.3169C47.1192 32.6144 47.0802 32.9102 47.0412 33.2077H47.0396Z" fill="#00665A"/>
<path d="M11.004 30.5613C11.0674 30.9221 11.1437 31.2798 11.1909 31.6423C11.2591 32.1803 11.316 32.72 11.3615 33.2597C11.4362 34.1262 11.3144 34.939 10.6367 35.5665C10.2646 35.9095 9.76406 35.981 9.41955 35.7664C9.07179 35.5502 8.88816 35.1324 9.07341 34.6399C9.32367 33.9718 9.68281 33.3459 9.9737 32.6908C10.2565 32.0536 10.5083 31.4017 10.7781 30.758C10.8057 30.6929 10.8528 30.6377 10.8902 30.5775C10.9276 30.5726 10.9666 30.5678 11.004 30.5629V30.5613ZM10.4271 32.9444C10.354 33.0874 10.2743 33.2272 10.211 33.3735C9.99807 33.8661 9.77706 34.3554 9.59018 34.8577C9.50243 35.095 9.54306 35.3275 9.86157 35.386C10.4937 35.2852 10.7635 34.8268 10.9211 34.279C11.1177 33.5979 10.9114 32.9411 10.7943 32.1641C10.6383 32.4957 10.5327 32.72 10.4271 32.9444Z" fill="#00665A"/>
<path d="M23.8224 12.2213C24.1279 13.2454 24.3733 14.2793 24.1117 15.3587C23.9752 15.9179 23.6875 16.3925 23.2049 16.7242C22.8783 16.9501 22.5159 17.02 22.1811 16.7632C21.8577 16.5145 21.9 16.1666 22.0576 15.8415C22.2234 15.5001 22.4379 15.1815 22.602 14.8385C23.0131 13.9785 23.4097 13.1121 23.824 12.2196L23.8224 12.2213ZM22.511 15.939C22.4931 16.0365 22.4752 16.1357 22.4509 16.2706C22.992 16.308 23.2228 15.9244 23.4552 15.5862C23.8224 15.0547 23.902 13.9623 23.6242 13.4843C23.4909 13.7802 23.3658 14.0582 23.2406 14.3362C22.9985 14.8694 22.7548 15.4042 22.5126 15.9374L22.511 15.939Z" fill="#00665A"/>
<path d="M34.1691 12.1302C34.2683 12.2651 34.3447 12.3253 34.3577 12.3952C34.5429 13.4437 35.0645 14.3394 35.6187 15.2237C35.7503 15.4351 35.856 15.6643 35.9583 15.8919C36.0965 16.1975 36.1046 16.5031 35.8316 16.7404C35.5537 16.981 35.2287 16.9713 34.9232 16.8087C34.4145 16.5388 34.1236 16.0853 33.9335 15.557C33.6085 14.6531 33.7808 13.7591 33.9823 12.865C34.031 12.6455 34.0944 12.4293 34.1724 12.1302H34.1691ZM34.213 14.1655C34.1366 14.8482 34.3463 15.4351 34.8094 15.9357C35.006 16.0723 35.2043 16.2088 35.4009 16.3438C35.4562 16.2966 35.5098 16.2479 35.5651 16.2007C35.3554 15.2059 34.6648 14.4142 34.3707 13.4567C34.3284 13.4648 34.2878 13.473 34.2455 13.4795C34.2341 13.707 34.2244 13.9363 34.213 14.1638V14.1655Z" fill="#00665A"/>
<path d="M42.9119 19.79C42.8973 21.058 43.4336 22.0399 43.7911 23.077C43.8967 23.3859 43.9455 23.7337 43.9292 24.0605C43.9081 24.4588 43.6026 24.6294 43.2109 24.54C42.3009 24.3303 41.5388 23.025 41.8443 22.1488C42.0897 21.4481 42.3822 20.7638 42.6601 20.0761C42.6893 20.0014 42.7706 19.9477 42.9119 19.7917V19.79ZM42.3448 21.9537C42.0474 22.7909 42.4212 23.3907 43.0354 23.9044C43.1687 23.9629 43.302 24.0198 43.5148 24.1125C43.5035 22.9778 42.8502 22.1439 42.7381 21.1539C42.6974 21.1604 42.6568 21.1653 42.6162 21.1718C42.5268 21.4335 42.4358 21.6936 42.3464 21.9553L42.3448 21.9537Z" fill="#00665A"/>
<path d="M15.1186 19.7819C15.2486 19.9932 15.3169 20.0778 15.3559 20.1737C15.5948 20.7556 15.8255 21.3409 16.0612 21.9244C16.4365 22.8543 15.8921 24.1255 14.9594 24.4945C14.4052 24.7124 14.012 24.4555 14.038 23.8573C14.051 23.5696 14.103 23.2672 14.2086 23.0006C14.6067 22.0009 15.0422 21.0141 15.117 19.7819H15.1186ZM15.104 21.7765C14.9334 22.5373 14.4182 23.207 14.4832 24.0995C14.6214 24.0507 14.7221 24.015 14.8245 23.9792C15.9978 23.1241 15.9116 22.365 15.2828 21.1051C15.2161 21.3604 15.1609 21.5684 15.1056 21.7781L15.104 21.7765Z" fill="#00665A"/>
<path d="M27.8217 46.9343C26.4388 46.8969 25.0542 46.879 23.6729 46.8189C21.4157 46.7197 19.4445 45.8403 17.6976 44.4634C15.507 42.737 13.9307 40.5554 13.3977 37.7805C13.1783 36.6394 13.2141 35.4348 13.2531 34.2627C13.3278 31.9853 13.804 29.8021 15.0195 27.827C15.9718 26.2811 17.0346 24.8229 18.2322 23.4541C19.8134 21.6448 21.6611 20.1314 23.5218 18.6424C25.9399 16.7079 27.5454 14.2256 28.7236 11.415C28.7935 11.6637 28.8715 11.9091 28.9332 12.1611C29.5849 14.8368 30.8313 17.1663 32.8853 19.0358C34.486 20.4939 36.1241 21.9179 37.6581 23.446C39.2182 24.9985 40.4857 26.8012 41.1406 28.9227C41.9418 31.5204 42.1189 34.201 41.6834 36.8897C41.373 38.7982 40.6986 40.5847 39.2686 41.9583C36.0737 45.0275 32.2695 46.7278 27.8249 46.9343H27.8217ZM24.2856 38.2341C24.4594 38.1609 24.6333 38.0861 24.8072 38.013C25.3061 37.8017 25.7904 37.5383 26.3071 37.3871C28.748 36.6703 31.0685 37.0458 33.2949 38.2129C33.5256 38.3332 33.7791 38.4129 34.0213 38.5104C34.0619 38.4454 34.1496 38.3414 34.1334 38.3219C33.9676 38.117 33.81 37.8927 33.6036 37.7366C31.7332 36.3321 29.658 35.7697 27.3472 36.3061C26.1885 36.5743 25.1355 37.0815 24.2401 37.8797C24.0694 38.0325 23.941 38.2341 23.7932 38.4129C23.8208 38.4357 23.85 38.46 23.8777 38.4828L24.2856 38.2373V38.2341ZM35.2531 25.2293C35.1133 24.9643 34.9735 24.701 34.8289 24.4262C34.7883 24.4506 34.7184 24.4799 34.7217 24.4896C34.9248 25.1724 35.1344 25.8535 35.3359 26.507C34.4535 26.3932 33.7889 26.6891 33.5077 27.4629C33.3615 27.8644 33.2916 28.3326 33.3306 28.7568C33.4639 30.2248 34.0814 31.431 35.4871 32.0601C36.7384 32.6209 37.8873 31.9495 37.9961 30.584C38.0449 29.9728 37.9035 29.3469 37.8548 28.7991C38.2318 28.9519 38.7079 29.1454 39.1841 29.3388C39.2036 29.2949 39.2247 29.251 39.2442 29.2071C39.0004 29.0348 38.7583 28.8641 38.5145 28.6918C38.3975 28.5309 38.2984 28.3537 38.1619 28.2123C37.3185 27.3377 36.4686 26.4712 35.6187 25.6016C35.4968 25.4764 35.3749 25.3512 35.2531 25.226V25.2293ZM22.8766 24.9578C21.9959 26.0242 21.1151 27.0906 20.2327 28.157C19.7403 28.513 19.2479 28.8674 18.7555 29.2234L18.7994 29.3339C19.2625 29.1535 19.724 28.973 20.1238 28.8186C20.0702 29.3664 19.971 29.9273 19.971 30.4897C19.971 31.4472 20.6373 32.2161 21.5522 32.2291C22.0089 32.2356 22.5191 32.0731 22.9189 31.839C24.1621 31.1107 24.9112 29.303 24.6349 27.8888C24.4464 26.9199 23.6827 26.3737 22.7093 26.5054C22.6621 26.5119 22.6085 26.4826 22.5516 26.4696C23.1399 25.4114 23.3755 24.7254 23.1821 24.3921C23.0716 24.5969 22.9741 24.7774 22.875 24.9578H22.8766Z" fill="#8AF9EC"/>
<path d="M27.8217 46.9343C32.2662 46.7278 36.0705 45.0275 39.2653 41.9583C40.6954 40.5847 41.3698 38.7982 41.6801 36.8897C42.1173 34.201 41.9402 31.5204 41.1374 28.9226C40.4825 26.7996 39.2149 24.9985 37.6549 23.446C36.1208 21.9196 34.4828 20.4955 32.8821 19.0358C30.8297 17.1663 29.5832 14.8352 28.93 12.1611C28.8682 11.9108 28.7918 11.6637 28.7203 11.415C28.7918 11.228 28.8633 11.0411 28.9738 10.7566C29.086 11.0004 29.1607 11.1484 29.2257 11.3028C30.074 13.3429 31.0653 15.3131 32.627 16.8981C33.7613 18.049 35.0223 19.078 36.2655 20.1152C39.0752 22.4593 41.4721 25.1431 43.2597 28.3586C44.2152 30.0784 44.5662 31.9398 44.7255 33.8645C44.8393 35.2365 44.914 36.6117 44.5792 37.9561C43.8025 41.0659 41.9743 43.423 39.3059 45.1542C37.6744 46.2125 35.8966 46.7945 33.9433 46.8384C32.0891 46.8806 30.2365 46.9522 28.3839 47.0026C28.1971 47.0074 28.0086 46.957 27.8217 46.9327L27.8217 46.9343Z" fill="#01DDC3"/>
<path d="M47.0396 33.2077C47.0786 32.9102 47.1176 32.6144 47.1566 32.3169C47.1923 32.312 47.2265 32.3071 47.2622 32.3039C47.6344 33.1102 48.0227 33.9084 48.364 34.7277C48.4306 34.887 48.3689 35.1698 48.2567 35.3064C48.1966 35.3812 47.9074 35.2706 47.7205 35.243C47.7335 35.0804 47.805 34.8935 47.7497 34.7585C47.5336 34.2335 47.2785 33.723 47.038 33.2094L47.0396 33.2077Z" fill="#01DDC3"/>
<path d="M47.0396 33.2077C47.2801 33.723 47.5352 34.2319 47.7514 34.7569C47.8066 34.8918 47.7351 35.0788 47.7221 35.2414C46.9908 34.7325 46.96 33.988 47.0396 33.2061V33.2077Z" fill="#8AF9EC"/>
<path d="M10.4271 32.9444C10.5327 32.72 10.6383 32.4957 10.7943 32.1641C10.9114 32.9395 11.1177 33.5979 10.9211 34.279C10.7635 34.8252 10.4937 35.2836 9.86157 35.386C10.0111 35.0544 10.1557 34.7195 10.3101 34.3895C10.5311 33.9214 10.5701 33.4402 10.4271 32.9444Z" fill="#01DDC3"/>
<path d="M10.4271 32.9444C10.5701 33.4402 10.5327 33.9214 10.3101 34.3895C10.1541 34.7195 10.0111 35.0544 9.86157 35.386C9.54468 35.3259 9.50243 35.095 9.59018 34.8577C9.77706 34.3554 9.99807 33.8661 10.211 33.3735C10.2743 33.2272 10.354 33.0874 10.4271 32.9444Z" fill="#8AF9EC"/>
<path d="M23.239 14.3378C23.3642 14.0598 23.4893 13.7818 23.6225 13.486C23.9004 13.9623 23.8208 15.0563 23.4535 15.5879C23.2211 15.9244 22.9904 16.3096 22.4492 16.2722C22.4736 16.1357 22.4915 16.0382 22.5094 15.9406C22.9595 15.5017 23.3365 15.0287 23.2374 14.3394L23.239 14.3378Z" fill="#01DDC3"/>
<path d="M23.239 14.3378C23.3382 15.027 22.9611 15.5001 22.511 15.939C22.7531 15.4058 22.9969 14.871 23.239 14.3378Z" fill="#8AF9EC"/>
<path d="M34.213 14.1655C34.2244 13.9379 34.2341 13.7087 34.2455 13.4811C34.2878 13.473 34.3284 13.4648 34.3707 13.4583C34.6664 14.4174 35.3571 15.2075 35.5651 16.2023C35.5098 16.2495 35.4562 16.2983 35.4009 16.3454C35.2043 16.2088 35.006 16.0723 34.8094 15.9374C34.6112 15.3473 34.4113 14.7572 34.213 14.1671L34.213 14.1655Z" fill="#01DDC3"/>
<path d="M34.213 14.1655C34.4113 14.7556 34.6112 15.3457 34.8094 15.9357C34.3463 15.4351 34.1366 14.8482 34.213 14.1655Z" fill="#8AF9EC"/>
<path d="M42.3448 21.9537C42.4342 21.692 42.5252 21.4319 42.6146 21.1702C42.6552 21.1637 42.6958 21.1588 42.7364 21.1523C42.8502 22.1423 43.5035 22.9762 43.5132 24.1109C43.3003 24.0182 43.1671 23.9597 43.0338 23.9028C43.0371 23.1697 42.6747 22.5666 42.3432 21.9521L42.3448 21.9537Z" fill="#01DDC3"/>
<path d="M42.3448 21.9537C42.6763 22.5682 43.0387 23.1713 43.0354 23.9044C42.4212 23.3907 42.0474 22.7909 42.3448 21.9537Z" fill="#8AF9EC"/>
<path d="M15.104 21.7765C15.1592 21.5668 15.2145 21.3587 15.2811 21.1035C15.91 22.3634 15.9978 23.1225 14.8229 23.9776C14.8684 23.8231 14.9236 23.6703 14.9577 23.5143C15.065 23.0315 15.1739 22.5487 15.2568 22.061C15.2714 21.9765 15.1576 21.8708 15.104 21.7749V21.7765Z" fill="#01DDC3"/>
<path d="M15.104 21.7765C15.1576 21.8724 15.2714 21.9781 15.2568 22.0626C15.1739 22.5503 15.065 23.0331 14.9577 23.5159C14.9236 23.672 14.8684 23.8248 14.8229 23.9792C14.7221 24.015 14.6214 24.0507 14.4816 24.0995C14.4166 23.2087 14.9317 22.5389 15.1024 21.7765H15.104Z" fill="#8AF9EC"/>
<path d="M22.8766 24.9578C22.9741 24.7774 23.0716 24.5969 23.1838 24.3921C23.3755 24.7254 23.1415 25.4114 22.5532 26.4696C22.6101 26.4843 22.6638 26.5119 22.7109 26.5054C23.6843 26.3737 24.4464 26.9199 24.6366 27.8888C24.9128 29.3014 24.1621 31.1107 22.9205 31.839C22.5207 32.0731 22.0105 32.2356 21.5538 32.2291C20.6406 32.2161 19.9727 31.4472 19.9727 30.4897C19.9727 29.9289 20.0718 29.3664 20.1254 28.8186C19.7273 28.973 19.2641 29.1535 18.801 29.3339L18.7571 29.2234C19.2495 28.8674 19.7419 28.513 20.2343 28.157C21.38 27.3101 22.2364 26.2225 22.8783 24.9578L22.8766 24.9578ZM23.5364 29.9647C23.5884 30.0037 23.6388 30.0427 23.6908 30.0817C23.8192 29.5778 23.9963 29.0803 24.0597 28.5683C24.1279 28.0221 23.9882 27.4905 23.4584 27.1963C22.9449 26.9102 22.4509 27.1069 22.0105 27.3962C21.0614 28.0188 20.6292 28.9454 20.4992 30.0476C20.9412 30.0687 21.3637 30.3776 21.7878 30.0086C21.8659 29.9403 22.0706 30.0232 22.2152 30.0248C22.3972 30.0248 22.5776 30.0134 22.7596 30.0053C23.018 29.9939 23.2764 29.9793 23.5348 29.9663L23.5364 29.9647ZM23.2455 30.4621C22.7499 30.5076 22.2412 30.8864 21.8415 30.2215C21.4271 30.9254 21.0111 30.4166 20.6097 30.2735C20.4846 31.0343 21.0468 31.6423 21.7212 31.535C22.3859 31.4293 22.8523 31.0197 23.2455 30.4621Z" fill="#00665A"/>
<path d="M38.5145 28.6934C38.7583 28.8658 39.0004 29.0364 39.2442 29.2088C39.2247 29.2526 39.2036 29.2965 39.1841 29.3404C38.7079 29.147 38.2318 28.9535 37.8548 28.8007C37.9035 29.3486 38.0449 29.9744 37.9961 30.5856C37.8873 31.9511 36.7384 32.6209 35.4871 32.0617C34.0814 31.4326 33.4639 30.2264 33.3306 28.7585C33.2916 28.3342 33.3631 27.866 33.5077 27.4645C33.7889 26.6907 34.4535 26.3948 35.3359 26.5086C35.1361 25.8551 34.9264 25.174 34.7217 24.4913C34.7184 24.4815 34.7883 24.4523 34.8289 24.4279C34.9735 24.7026 35.1133 24.9676 35.2531 25.2309C35.4351 25.53 35.5943 25.8454 35.8023 26.1234C36.558 27.1361 37.3608 28.1017 38.5145 28.6951V28.6934ZM37.4891 30.0427C37.3218 28.7991 36.8164 27.7831 35.6447 27.2239C34.7915 26.8175 34.0716 27.2272 33.9286 28.1505C33.8198 28.8576 34.0391 29.4819 34.4064 30.0898C34.473 30.0541 34.5218 30.0053 34.5705 30.0069C35.1767 30.0232 35.7909 29.9939 36.3841 30.0963C36.5986 30.1337 36.7595 30.293 36.9984 30.1288C37.1056 30.0541 37.2779 30.0752 37.4891 30.0427ZM34.7379 30.4605C35.0727 30.9774 35.5049 31.335 36.0721 31.4976C36.7416 31.6894 37.3575 31.2635 37.442 30.5694C37.4696 30.3467 37.364 30.2085 37.1804 30.3629C36.7839 30.6962 36.4475 30.6295 36.0997 30.2313C35.7194 30.94 35.2141 30.4605 34.7379 30.4621V30.4605Z" fill="#00665A"/>
<path d="M24.2856 38.2341L23.8777 38.4795C23.85 38.4568 23.8208 38.4324 23.7932 38.4096C23.941 38.2308 24.0694 38.0293 24.2401 37.8764C25.1355 37.0783 26.1885 36.5727 27.3472 36.3029C29.658 35.7664 31.7316 36.3305 33.6036 37.7334C33.8116 37.8895 33.9676 38.1138 34.1334 38.3186C34.1496 38.3381 34.0603 38.4422 34.0213 38.5072C33.4411 38.1203 32.8919 37.6716 32.2743 37.3563C29.437 35.903 26.9116 36.3354 24.2856 38.2308L24.2856 38.2341Z" fill="#00665A"/>
<path d="M24.2856 38.2341C26.91 36.3386 29.4354 35.9062 32.2743 37.3595C32.8918 37.6749 33.4411 38.1235 34.0213 38.5104C33.7791 38.4113 33.5256 38.3332 33.2949 38.2129C31.0702 37.0458 28.748 36.6703 26.3071 37.3871C25.7904 37.5383 25.3061 37.8017 24.8072 38.013C24.6333 38.0861 24.4594 38.1609 24.2856 38.2341Z" fill="#01DDC3"/>
<path d="M38.5145 28.6934C37.3608 28.1001 36.558 27.1345 35.8023 26.1217C35.5943 25.8421 35.4351 25.5268 35.2531 25.2293C35.3749 25.3545 35.4968 25.4796 35.6187 25.6048C36.467 26.4745 37.3185 27.3409 38.1619 28.2155C38.2984 28.3569 38.3975 28.5341 38.5145 28.6951V28.6934Z" fill="#01DDC3"/>
<path d="M22.8766 24.9578C22.2347 26.2225 21.3783 27.3084 20.2327 28.157C21.1134 27.0906 21.9942 26.0242 22.8766 24.9578Z" fill="#01DDC3"/>
<path d="M23.5364 29.9647C23.278 29.9777 23.0196 29.9923 22.7613 30.0037C22.5792 30.0118 22.3989 30.0232 22.2169 30.0232C22.0706 30.0232 21.8675 29.9386 21.7895 30.0069C21.3653 30.3776 20.9428 30.0671 20.5008 30.0459C20.6308 28.9438 21.0614 28.0172 22.0121 27.3946C22.4541 27.1052 22.9465 26.9102 23.46 27.1946C23.9898 27.4889 24.1296 28.0204 24.0613 28.5666C23.9979 29.0787 23.8192 29.5761 23.6924 30.0801C23.6404 30.0411 23.59 30.002 23.538 29.963L23.5364 29.9647Z" fill="#8AF9EC"/>
<path d="M23.2455 30.4621C22.8523 31.0197 22.3859 31.4309 21.7212 31.535C21.0452 31.6423 20.4846 31.0343 20.6097 30.2735C21.0111 30.4166 21.4271 30.9254 21.8415 30.2215C22.2412 30.8864 22.7515 30.5076 23.2455 30.4621Z" fill="#01DDC3"/>
<path d="M37.4891 30.0427C37.2779 30.0752 37.1056 30.0557 36.9984 30.1288C36.7595 30.293 36.5986 30.1337 36.3841 30.0963C35.7926 29.9939 35.1767 30.0232 34.5705 30.0069C34.5218 30.0069 34.473 30.0541 34.4064 30.0898C34.0391 29.4802 33.8198 28.8576 33.9286 28.1505C34.0716 27.2272 34.7899 26.8175 35.6447 27.2239C36.8164 27.7815 37.3218 28.7991 37.4891 30.0427Z" fill="#8AF9EC"/>
<path d="M34.7379 30.4605C35.2141 30.4605 35.7211 30.94 36.0997 30.2296C36.4475 30.6295 36.7839 30.6946 37.1804 30.3613C37.364 30.2069 37.4696 30.3434 37.442 30.5678C37.3575 31.2619 36.7416 31.6878 36.0721 31.496C35.5049 31.3334 35.0727 30.9758 34.7379 30.4588V30.4605Z" fill="#01DDC3"/>
</svg>
