<svg width="58" height="58" viewBox="0 0 58 58" fill="none" xmlns="http://www.w3.org/2000/svg">
<circle cx="29" cy="29" r="29" fill="#FFD0B8"/>
<path d="M29.8803 47.4986C28.0499 47.4073 26.2196 47.3203 24.3906 47.2248C23.9104 47.1991 23.426 47.1863 22.9558 47.1036C20.5005 46.6701 18.3777 45.5822 16.5387 43.9096C14.8173 42.3454 13.5831 40.4533 12.6085 38.3686C11.0561 35.0491 9.88796 31.6085 9.25728 27.9981C9.00215 26.5408 8.85881 25.075 9.20568 23.6064C9.80769 21.0597 11.8072 19.5725 14.4259 19.8591C15.7246 20.0017 17.0074 20.3211 18.2802 20.632C19.4713 20.9214 20.4245 20.6334 21.2286 19.7294C22.3495 18.4675 23.1837 17.0216 23.9721 15.5472C24.6457 14.2882 25.3538 13.0519 26.3314 11.9982C26.6897 11.6118 27.1054 11.2696 27.5253 10.9487C28.3753 10.3014 29.5965 10.3313 30.478 10.9459C31.2148 11.4592 31.8383 12.0852 32.3242 12.8224C32.9921 13.8376 33.5769 14.9056 34.2248 15.9351C34.963 17.1057 35.7284 18.2579 36.4881 19.4157C36.5655 19.534 36.673 19.6324 36.7676 19.7394C37.5502 20.6391 38.5091 20.9471 39.6787 20.6334C40.5316 20.4052 41.393 20.207 42.2559 20.0145C43.1919 19.8064 44.1407 19.7479 45.0882 19.9162C47.1106 20.2755 48.2043 21.6115 48.7418 23.4709C49.1087 24.7385 49.0342 26.0389 48.8292 27.3208C48.0609 32.1275 46.5574 36.696 43.9974 40.8554C42.1842 43.8012 39.6085 45.8845 36.1842 46.8455C35.082 47.1549 33.9639 47.202 32.8474 47.3104C31.8655 47.4059 30.8736 47.4073 29.8861 47.4501C29.8846 47.4672 29.8832 47.4829 29.8818 47.5L29.8803 47.4986ZM23.8975 46.6644C24.349 46.7186 24.7991 46.8141 25.2506 46.8199C27.5124 46.8441 29.7743 46.874 32.0361 46.8441C33.5468 46.8241 35.0504 46.653 36.4938 46.1725C39.6286 45.1302 41.9506 43.0569 43.586 40.2821C45.9023 36.3524 47.3314 32.0804 48.0997 27.5946C48.3247 26.2785 48.4293 24.9396 48.0438 23.632C47.6051 22.1434 46.7638 20.9984 45.1369 20.6491C43.9515 20.3953 42.7834 20.5421 41.6352 20.8929C41.0017 21.0383 40.3682 21.1781 39.7361 21.3292C38.3686 21.6586 37.2048 21.3121 36.2788 20.2641C35.8244 19.7508 35.3686 19.2246 35.0074 18.6457C34.2406 17.4166 33.5397 16.1461 32.8015 14.8985C32.1149 13.7364 31.3925 12.5956 30.3204 11.7344C30.0738 11.5362 29.78 11.3651 29.4804 11.2724C28.6448 11.0143 27.9883 11.3936 27.4049 11.944C26.4876 12.8067 25.7981 13.8404 25.1732 14.9198C24.5511 15.995 23.985 17.1072 23.3056 18.1452C22.7551 18.9851 22.1173 19.7821 21.4336 20.5207C20.6997 21.3135 19.7279 21.5887 18.6515 21.3962C18.0767 21.2921 17.5062 21.1567 16.9386 21.0155C15.8507 20.7446 14.7657 20.4951 13.629 20.5507C12.392 20.6106 11.3958 21.0882 10.6734 22.1021C10.2377 22.7138 9.96106 23.3896 9.83062 24.1268C9.57262 25.5812 9.75896 27.0199 10.0356 28.4444C10.7078 31.9122 11.866 35.2231 13.3724 38.4171C14.4446 40.6885 15.898 42.6605 17.8861 44.229C19.6534 45.6221 21.6515 46.4448 23.8975 46.6659V46.6644Z" fill="#521C00"/>
<path d="M19.1374 17.9869C18.9725 17.9228 18.6486 17.8643 18.4092 17.6903C17.9276 17.341 17.4847 16.9389 17.0418 16.5411C16.4226 15.9864 15.9983 15.9165 15.2989 16.3785C14.9248 16.6252 14.585 16.9389 14.2726 17.2626C13.8225 17.7288 13.4126 18.2336 12.9811 18.717C12.8091 18.9095 12.6328 19.102 12.4393 19.2745C12.2415 19.4499 11.9749 19.6424 11.7513 19.4299C11.5979 19.2845 11.4933 18.9608 11.542 18.7583C11.7011 18.1096 11.8631 17.4394 12.1713 16.8548C12.6586 15.9337 13.1961 15.0225 13.8397 14.204C14.6997 13.109 15.726 12.9821 17.1206 13.6351C17.6023 13.8604 18.0724 14.1099 18.5511 14.3438C19.3667 14.743 19.7064 14.6646 20.2325 13.9174C20.7915 13.1232 21.3232 12.3105 21.8765 11.5134C22.0012 11.3352 22.156 11.1712 22.3223 11.0272C22.6749 10.7234 23.0576 10.829 23.1278 11.2824C23.1766 11.6018 23.1465 11.9526 23.0662 12.2677C22.9558 12.7026 22.8082 13.1403 22.6018 13.5382C22.0069 14.6831 21.3949 15.821 20.7456 16.9375C20.4288 17.4822 19.9888 17.9313 19.1374 17.9841V17.9869ZM22.1159 13.0605C22.4498 12.647 22.4971 12.1565 22.5143 11.6474C22.1546 12.0538 21.855 12.4858 21.5626 12.9222C21.1742 13.5025 20.8144 14.1014 20.4016 14.6632C20.0289 15.1708 19.4885 15.2806 18.9009 15.1024C18.6185 15.0154 18.3505 14.8742 18.0839 14.743C17.5722 14.4907 17.0805 14.1941 16.5559 13.9759C15.5268 13.5481 14.8144 13.7121 14.1622 14.6119C13.6046 15.3833 13.1159 16.2117 12.6672 17.0515C12.3949 17.5634 12.2573 18.1452 12.0595 18.697C12.1039 18.7213 12.1484 18.7469 12.1942 18.7712C12.4508 18.4732 12.7074 18.1751 12.9639 17.8771C13.3065 17.4893 13.6261 17.0772 13.9974 16.7193C14.3571 16.3728 14.7413 16.0278 15.1684 15.774C16.0313 15.2621 16.6935 15.3576 17.4431 16.0164C17.7743 16.3072 18.0853 16.6209 18.4279 16.8961C19.189 17.5064 19.5659 17.4565 20.1894 16.6979C20.2052 16.678 20.2238 16.6594 20.2367 16.6366C20.8531 15.5216 21.4709 14.4065 22.0829 13.2886C22.1173 13.2259 22.1044 13.1375 22.1144 13.0605H22.1159Z" fill="#521C00"/>
<path d="M40.3467 14.6218C40.1216 14.7544 39.8608 14.8685 39.6501 15.0396C39.2186 15.3918 38.8373 15.8082 38.3916 16.1404C37.4714 16.8263 36.7117 16.7065 35.9964 15.8067C35.8918 15.6756 35.7886 15.5387 35.7098 15.3918C35.0648 14.1855 34.4069 12.9849 33.7962 11.7601C33.5927 11.3508 33.511 10.8789 33.392 10.4297C33.3562 10.2971 33.3433 10.1303 33.392 10.0105C33.4709 9.82229 33.5798 9.56278 33.7346 9.51287C33.8908 9.46154 34.1833 9.57133 34.3051 9.70822C34.6907 10.1417 35.0375 10.6122 35.3744 11.0871C35.7184 11.5719 36.0179 12.0909 36.3648 12.5743C36.8565 13.2587 37.2048 13.3343 37.963 12.9721C38.5836 12.6755 39.1928 12.3547 39.8264 12.0909C40.953 11.6218 41.8388 11.7971 42.6415 12.7083C43.824 14.0515 44.6596 15.5886 45.018 17.351C45.061 17.562 44.9692 17.8871 44.8173 18.0283C44.5765 18.2536 44.2884 18.0597 44.1006 17.86C43.4986 17.217 42.9339 16.5368 42.319 15.9066C41.9506 15.5301 41.5292 15.2022 41.1006 14.8928C40.9114 14.7573 40.6462 14.7245 40.3467 14.6218ZM34.4456 11.656C34.4499 11.7444 34.4255 11.8456 34.4628 11.9183C34.7408 12.4716 35.0132 13.0277 35.3185 13.5652C35.6553 14.1584 35.9835 14.7644 36.3906 15.3091C36.9683 16.0791 37.371 16.1076 38.1164 15.5087C38.5105 15.1922 38.8717 14.8371 39.253 14.5049C39.8364 13.9973 40.5115 13.8989 41.1694 14.2711C41.6911 14.5662 42.1684 14.9612 42.6042 15.3761C43.1001 15.8481 43.5273 16.3914 43.9831 16.9033C44.1121 17.0573 44.2425 17.2098 44.3715 17.3638C44.4073 17.3367 44.4432 17.3111 44.479 17.284C43.9845 15.5872 43.2478 14.013 41.9463 12.7553C41.5163 12.3404 40.9458 12.2278 40.3825 12.4502C39.7576 12.6969 39.1469 12.9878 38.5564 13.3086C37.1073 14.0971 36.5124 13.9545 35.6309 12.56C35.2024 11.8827 34.7652 11.2097 34.3266 10.5381C34.2535 10.4254 34.1532 10.3313 34.0657 10.2287C34.0327 10.2458 33.9998 10.2629 33.9668 10.2786C34.0758 10.752 34.1044 11.2496 34.4441 11.6546L34.4456 11.656Z" fill="#521C00"/>
<path d="M23.8975 46.6644C21.6515 46.442 19.6534 45.6207 17.8861 44.2276C15.898 42.6591 14.4431 40.6885 13.3724 38.4157C11.866 35.2202 10.7078 31.9107 10.0356 28.443C9.75896 27.0185 9.57262 25.5798 9.83062 24.1254C9.96106 23.3896 10.2363 22.7138 10.6734 22.1006C11.3958 21.0868 12.392 20.6091 13.629 20.5493C14.7657 20.4936 15.8521 20.7432 16.9386 21.0141C17.5062 21.1553 18.0753 21.2907 18.6515 21.3948C19.7279 21.5887 20.6997 21.3121 21.4336 20.5193C22.1173 19.7807 22.7551 18.9851 23.3056 18.1438C23.9864 17.1057 24.5511 15.995 25.1732 14.9184C25.7982 13.839 26.4876 12.8052 27.4049 11.9426C27.9897 11.3936 28.6462 11.0143 29.4804 11.271C29.7814 11.3637 30.0738 11.5362 30.3204 11.733C31.3925 12.5942 32.1149 13.7349 32.8015 14.897C33.5397 16.1447 34.2406 17.4152 35.0074 18.6443C35.3686 19.2232 35.8244 19.7493 36.2788 20.2627C37.2048 21.3107 38.3686 21.6572 39.7361 21.3278C40.3682 21.1766 41.0017 21.0369 41.6352 20.8915C42.3562 21.1496 43.0801 21.4034 43.7996 21.6672C45.0079 22.1092 45.7604 22.9761 46.1919 24.1625C46.662 25.4515 46.6706 26.7761 46.5258 28.1065C46.3022 30.1426 45.6974 32.0819 44.8302 33.9312C43.4341 36.9056 41.5994 39.5692 39.0452 41.6938C37.2263 43.2052 35.2468 44.4101 32.866 44.8493C32.1121 44.989 31.3782 45.2271 30.6285 45.3897C29.1436 45.7134 27.6572 46.0328 26.1665 46.3236C25.4169 46.4705 24.6558 46.5518 23.899 46.663L23.8975 46.6644ZM42.0323 26.6478C41.899 26.5736 41.7728 26.4781 41.6309 26.4268C40.113 25.8821 38.7786 25.0936 37.8971 23.6933C37.8655 23.5037 37.8541 23.3069 37.7939 23.1273C37.7652 23.0389 37.6477 22.9775 37.5703 22.9048C37.5201 22.9804 37.4499 23.0503 37.4241 23.1344C37.394 23.2299 37.3954 23.3383 37.3925 23.441C37.3524 24.8369 38.3357 26.3298 39.7002 26.8688C40.7308 27.2752 41.8072 27.4163 42.9038 27.1811C43.2492 27.1069 43.5746 26.9472 43.9802 26.8018C43.2607 26.7447 42.6472 26.6977 42.0337 26.6492L42.0323 26.6478ZM20.0733 23.6962C19.8913 23.8773 19.6835 24.0384 19.533 24.2409C18.8564 25.1577 18.0036 25.8422 16.9443 26.2785C16.7566 26.3555 16.5846 26.4738 16.4054 26.5736C15.6371 26.6549 14.8703 26.7376 14.1106 26.8189C14.8746 27.2238 15.7102 27.3422 16.5917 27.2638C18.3318 27.1112 19.6763 26.3911 20.3572 24.71C20.5965 24.1211 20.7026 23.5165 20.4245 22.8777C20.2941 23.0018 20.2124 23.1401 20.1594 23.2898C20.1135 23.4196 20.1006 23.5607 20.0719 23.6962H20.0733ZM25.9229 36.5919C25.189 36.6034 24.6773 36.9427 24.3376 37.533C23.9735 38.1647 23.833 38.8648 23.9219 39.5863C24.0136 40.3264 24.286 40.968 25.1073 41.1919C25.7093 41.3558 26.2296 41.1334 26.7384 40.8525C28.2305 40.0326 29.7241 40.0283 31.2234 40.8354C31.4613 40.9637 31.7107 41.0849 31.9687 41.1633C32.8674 41.4357 33.6558 41.0265 33.9367 40.1424C34.2363 39.2013 34.0987 38.2987 33.5984 37.4632C33.2831 36.9356 32.8029 36.5877 32.1479 36.6675C31.5072 36.7445 30.8693 36.8629 30.2387 37.0026C29.4131 37.1865 28.5961 37.1965 27.7747 37.0069C27.1584 36.8643 26.5392 36.7288 25.9214 36.5919H25.9229ZM24.8392 30.1555C24.845 27.884 22.9601 26.3911 20.7958 26.9515C18.9424 27.432 17.5564 29.3256 17.6696 31.2249C17.8087 33.589 19.9271 34.9579 22.1216 34.1038C23.727 33.4792 24.8349 31.868 24.8392 30.1541V30.1555ZM40.3237 30.8185C40.2162 29.3156 39.4523 27.9753 37.8612 27.201C35.8273 26.2115 33.5841 27.2966 33.21 29.4069C32.8732 31.309 33.9209 33.2511 35.7083 34.0382C38.0074 35.0491 40.3295 33.5462 40.3252 30.8185H40.3237Z" fill="#FFAB80"/>
<path d="M23.8975 46.6644C24.6529 46.5532 25.4154 46.4719 26.1651 46.3251C27.6558 46.0342 29.1422 45.7148 30.6271 45.3911C31.3768 45.2271 32.1106 44.989 32.8646 44.8507C35.2454 44.4101 37.2248 43.2066 39.0437 41.6952C41.598 39.5706 43.4327 36.9071 44.8287 33.9327C45.6974 32.0833 46.3022 30.1455 46.5244 28.1079C46.6706 26.7761 46.6606 25.4529 46.1904 24.1639C45.7576 22.9775 45.005 22.1106 43.7982 21.6686C43.0786 21.4048 42.3562 21.151 41.6338 20.8929C42.7819 20.5421 43.9501 20.3953 45.1355 20.6491C46.7623 20.9984 47.6051 22.1434 48.0423 23.632C48.4265 24.9396 48.3233 26.2785 48.0982 27.5946C47.3314 32.0804 45.9009 36.3524 43.5846 40.2821C41.9491 43.0584 39.6271 45.1302 36.4924 46.1725C35.049 46.653 33.5454 46.8241 32.0347 46.8441C29.7728 46.874 27.511 46.8441 25.2492 46.8199C24.7977 46.8156 24.3476 46.7186 23.8961 46.6644L23.8975 46.6644Z" fill="#E54F00"/>
<path d="M22.1159 13.0605C22.1058 13.1375 22.1187 13.2245 22.0843 13.2886C21.4723 14.4065 20.856 15.5216 20.2382 16.6366C20.2253 16.6594 20.2081 16.678 20.1909 16.6979C19.5674 17.4565 19.189 17.5064 18.4293 16.8961C18.0867 16.6209 17.7757 16.3072 17.4446 16.0164C16.6935 15.3576 16.0327 15.2621 15.1699 15.774C14.7413 16.0278 14.3586 16.3714 13.9988 16.7193C13.6276 17.0772 13.3079 17.4879 12.9654 17.8771C12.9496 17.8201 12.9023 17.7517 12.9209 17.7103C13.4169 16.6138 13.9171 15.5173 14.7026 14.5848C14.9563 14.2839 15.2989 14.1655 15.6873 14.2825C15.9969 14.3766 16.3094 14.4778 16.596 14.6233C17.1178 14.8856 17.6152 15.195 18.134 15.4645C19.0643 15.9479 19.8555 15.8438 20.5779 15.0952C20.962 14.6974 21.2774 14.234 21.6142 13.7934C21.7934 13.5581 21.951 13.3057 22.1173 13.0619L22.1159 13.0605Z" fill="#FFAB80"/>
<path d="M22.1159 13.0605C21.9482 13.3043 21.7919 13.5567 21.6128 13.792C21.2759 14.2326 20.9606 14.696 20.5765 15.0938C19.8555 15.8424 19.0628 15.9465 18.1326 15.4631C17.6137 15.1936 17.1163 14.8856 16.5946 14.6218C16.3079 14.4764 15.9955 14.3752 15.6859 14.281C15.2974 14.1627 14.9549 14.281 14.7012 14.5833C13.9171 15.5159 13.4154 16.6124 12.9195 17.7089C12.9009 17.7502 12.9467 17.8201 12.9639 17.8757C12.7074 18.1737 12.4508 18.4717 12.1942 18.7697C12.1498 18.7455 12.1054 18.7198 12.0595 18.6956C12.2573 18.1452 12.3949 17.562 12.6672 17.0501C13.1159 16.2088 13.6046 15.3818 14.1622 14.6104C14.813 13.7093 15.5268 13.5467 16.5559 13.9745C17.0805 14.1926 17.5722 14.4892 18.0839 14.7416C18.3505 14.8728 18.6185 15.0154 18.9009 15.1009C19.4885 15.2806 20.0289 15.1708 20.4016 14.6618C20.8144 14.1 21.1742 13.5011 21.5626 12.9207C21.855 12.4844 22.1546 12.0524 22.5143 11.646C22.4971 12.1565 22.4484 12.647 22.1159 13.0591L22.1159 13.0605Z" fill="#E54F00"/>
<path d="M43.9831 16.9018C43.5258 16.3899 43.1001 15.8467 42.6042 15.3747C42.1685 14.9598 41.6911 14.5648 41.1694 14.2696C40.5129 13.8989 39.8378 13.9973 39.253 14.5035C38.8717 14.8343 38.5105 15.1908 38.1164 15.5073C37.371 16.1048 36.9668 16.0777 36.3906 15.3077C35.9821 14.763 35.6553 14.157 35.3185 13.5638C35.0132 13.0263 34.7394 12.4702 34.4628 11.9169C34.4269 11.8442 34.4499 11.743 34.4456 11.6546C35.0117 12.3604 35.5363 13.1033 36.1541 13.7606C36.9482 14.6047 37.6176 14.6446 38.6352 14.0814C39.167 13.7863 39.716 13.5168 40.2721 13.2687C40.8799 12.9977 41.479 13.1175 41.856 13.6323C42.6028 14.6518 43.2678 15.7297 43.9659 16.7849C43.9845 16.8149 43.9788 16.8605 43.9831 16.899V16.9018Z" fill="#FFAB80"/>
<path d="M43.9831 16.9018C43.9773 16.8633 43.9845 16.8177 43.9659 16.7878C43.2693 15.7326 42.6028 14.6546 41.856 13.6351C41.479 13.1204 40.8799 13.0006 40.2721 13.2715C39.716 13.5196 39.1684 13.7891 38.6352 14.0843C37.6176 14.6475 36.9468 14.609 36.1541 13.7634C35.5363 13.1061 35.0117 12.3618 34.4456 11.6574C34.1059 11.251 34.0772 10.7548 33.9683 10.2814C34.0012 10.2643 34.0342 10.2472 34.0672 10.2315C34.1546 10.3342 34.2549 10.4297 34.328 10.5409C34.7666 11.2125 35.2024 11.8855 35.6324 12.5628C36.5153 13.9559 37.1087 14.0985 38.5578 13.3114C39.1484 12.9906 39.759 12.6997 40.3839 12.4531C40.9472 12.2306 41.5177 12.3433 41.9477 12.7582C43.2492 14.0158 43.9845 15.5886 44.4804 17.2868C44.4446 17.3139 44.4088 17.3396 44.3729 17.3667C44.2439 17.2127 44.1135 17.0601 43.9845 16.9061L43.9831 16.9018Z" fill="#E54F00"/>
<path d="M25.9229 36.5919C26.5406 36.7303 27.1584 36.8657 27.7762 37.0069C28.5989 37.1965 29.4159 37.1865 30.2401 37.0026C30.8708 36.8629 31.5086 36.7445 32.1493 36.6675C32.8044 36.5877 33.2831 36.9356 33.5999 37.4632C34.0987 38.2973 34.2377 39.2013 33.9381 40.1424C33.6558 41.0265 32.8674 41.4357 31.9702 41.1633C31.7122 41.0849 31.4628 40.9637 31.2248 40.8354C29.7241 40.0283 28.2305 40.0326 26.7399 40.8525C26.2296 41.132 25.7093 41.3558 25.1087 41.1919C24.2874 40.968 24.0151 40.3278 23.9233 39.5863C23.8345 38.8648 23.9749 38.1647 24.339 37.533C24.6801 36.9427 25.1904 36.6034 25.9243 36.5919H25.9229ZM26.5005 38.025C26.0777 38.1775 25.5344 38.313 25.0514 38.5611C24.286 38.9561 24.2415 39.1571 24.521 39.9756C24.7217 40.5659 25.2592 40.8525 25.8455 40.6515C26.2726 40.5046 26.684 40.3135 27.1011 40.141C28.3366 39.6291 29.5779 39.6476 30.8206 40.1039C31.1474 40.2237 31.4714 40.3549 31.7781 40.516C32.6109 40.9509 33.4709 40.7071 33.5999 39.4095C33.63 39.1101 33.5239 38.9361 33.2903 38.7664C32.3371 38.0763 31.3036 37.908 30.2 38.3044C29.3815 38.5996 28.586 38.5939 27.769 38.3044C27.4078 38.1761 27.0136 38.1348 26.4991 38.0264L26.5005 38.025ZM33.5139 38.4713C33.4909 37.8596 32.919 37.2179 32.2511 37.2136C31.801 37.2108 31.3366 37.235 30.9037 37.3477C29.704 37.6614 28.5244 37.7754 27.3089 37.389C26.8273 37.235 26.2869 37.2151 25.7724 37.2165C25.0542 37.2165 24.435 37.8938 24.4995 38.5525C24.65 38.457 24.7919 38.37 24.9295 38.2788C25.7738 37.7213 26.6754 37.5815 27.64 37.908C28.586 38.2289 29.5134 38.1661 30.4651 37.8809C30.8851 37.7555 31.3839 37.7027 31.8025 37.8011C32.4045 37.9408 32.9678 38.2488 33.511 38.4698L33.5139 38.4713Z" fill="#521C00"/>
<path d="M24.8392 30.1555C24.8349 31.8694 23.727 33.4807 22.1216 34.1052C19.9271 34.9593 17.8087 33.589 17.6696 31.2263C17.5578 29.327 18.9424 27.432 20.7958 26.9529C22.9601 26.3926 24.8435 27.884 24.8392 30.1569V30.1555ZM21.5597 27.5832C21.3677 27.6031 21.1684 27.5932 20.9864 27.6459C19.3567 28.1122 18.2487 29.789 18.4551 31.4616C18.607 32.6879 19.5502 33.5691 20.7714 33.6261C22.1402 33.6789 23.4675 32.715 23.9764 31.2962C24.3605 30.2239 24.3003 29.1987 23.5277 28.3147C23.0217 27.7343 22.3696 27.4135 21.5583 27.5832H21.5597Z" fill="#521C00"/>
<path d="M40.3237 30.8185C40.328 33.5462 38.006 35.0491 35.7069 34.0382C33.9195 33.2511 32.8717 31.3104 33.2086 29.4069C33.5827 27.2966 35.8273 26.2115 37.8598 27.201C39.4508 27.9753 40.2148 29.3156 40.3223 30.8185L40.3237 30.8185ZM36.5655 27.5746C35.3443 27.3764 34.2478 28.0993 33.9052 29.3256C33.4379 30.9982 34.5129 32.9131 36.243 33.4878C37.6362 33.9683 39.0208 33.2882 39.4336 31.8965C39.7131 30.9497 39.5526 30.0428 39.028 29.2172C38.4561 28.3161 37.6864 27.6773 36.5655 27.5746Z" fill="#521C00"/>
<path d="M20.0733 23.6962C20.1006 23.5607 20.1149 23.4196 20.1608 23.2898C20.2138 23.1415 20.2955 23.0018 20.426 22.8777C20.704 23.5165 20.598 24.1197 20.3586 24.71C19.6777 26.3926 18.3333 27.1112 16.5932 27.2638C15.7117 27.3408 14.876 27.2238 14.112 26.8189C14.8703 26.7376 15.6386 26.6563 16.4068 26.5736C17.3256 26.4867 18.1957 26.2428 18.9009 25.6297C19.49 25.1178 19.9429 24.4961 20.0748 23.6962L20.0733 23.6962Z" fill="#521C00"/>
<path d="M42.0323 26.6478C42.6458 26.6963 43.2592 26.7433 43.9788 26.8004C43.5731 26.9458 43.2478 27.1055 42.9023 27.1796C41.8058 27.4163 40.7294 27.2738 39.6988 26.8674C38.3342 26.3284 37.351 24.8355 37.3911 23.4395C37.394 23.3369 37.3911 23.2285 37.4226 23.133C37.4499 23.0488 37.5187 22.979 37.5688 22.9034C37.6462 22.9761 37.7638 23.0374 37.7924 23.1258C37.8526 23.3069 37.8641 23.5023 37.8956 23.6919C37.9845 23.9443 38.049 24.2109 38.168 24.4491C38.962 26.029 40.4026 26.5038 42.0294 26.6478L42.0323 26.6478Z" fill="#521C00"/>
<path d="M42.0323 26.6478C40.4054 26.5038 38.9649 26.0304 38.1708 24.4491C38.0519 24.2109 37.9874 23.9457 37.8985 23.6919C38.78 25.0936 40.1145 25.8821 41.6324 26.4253C41.7743 26.4767 41.9004 26.5722 42.0337 26.6464L42.0323 26.6478Z" fill="#E54F00"/>
<path d="M20.0733 23.6962C19.9415 24.4961 19.4885 25.1178 18.8994 25.6297C18.1942 26.2428 17.3242 26.4867 16.4054 26.5736C16.5846 26.4738 16.7566 26.3555 16.9443 26.2785C18.0022 25.8422 18.8564 25.1577 19.533 24.2409C19.6835 24.037 19.8913 23.8759 20.0733 23.6962Z" fill="#E54F00"/>
<path d="M26.5005 38.025C27.0151 38.1348 27.4092 38.1747 27.7704 38.303C28.5875 38.5939 29.383 38.5982 30.2014 38.303C31.3065 37.9052 32.3385 38.0749 33.2917 38.765C33.5253 38.9347 33.6314 39.1101 33.6013 39.4081C33.4723 40.7056 32.6123 40.9495 31.7795 40.5146C31.4728 40.3549 31.1474 40.2223 30.822 40.1025C29.5793 39.6462 28.3366 39.6277 27.1025 40.1396C26.6854 40.3121 26.2726 40.5032 25.8469 40.65C25.2606 40.8511 24.7231 40.5645 24.5225 39.9742C24.243 39.1557 24.2874 38.9546 25.0528 38.5597C25.5358 38.3101 26.0777 38.1761 26.5019 38.0235L26.5005 38.025Z" fill="#FFAB80"/>
<path d="M33.5139 38.4713C32.9706 38.2503 32.4088 37.9423 31.8053 37.8025C31.3854 37.7056 30.888 37.7569 30.468 37.8824C29.5177 38.1676 28.5889 38.2303 27.6429 37.9095C26.6782 37.5829 25.7752 37.7227 24.9324 38.2802C24.7934 38.3715 24.6515 38.4584 24.5024 38.554C24.4365 37.8938 25.0571 37.2179 25.7752 37.2179C26.2884 37.2179 26.8287 37.2379 27.3118 37.3904C28.5273 37.7783 29.7055 37.6642 30.9066 37.3491C31.3381 37.2364 31.8039 37.2122 32.254 37.2151C32.9233 37.2193 33.4938 37.8596 33.5167 38.4727L33.5139 38.4713Z" fill="#E54F00"/>
<path d="M20.7728 33.6247C19.5516 33.5691 18.6085 32.6864 18.4565 31.4602C18.2501 29.7876 19.3581 28.1107 20.9878 27.6445C21.1699 27.5932 21.3691 27.6017 21.5612 27.5817C21.6285 27.6587 21.6916 27.7386 21.7633 27.8113C23.2396 29.2928 23.1723 31.4202 21.6085 32.8133C21.3189 33.0714 21.0509 33.3523 20.7743 33.6232L20.7728 33.6247Z" fill="#FFAB80"/>
<path d="M20.7728 33.6247C21.0509 33.3537 21.3189 33.0728 21.607 32.8148C23.1708 31.4217 23.2382 29.2928 21.7618 27.8127C21.6902 27.74 21.6271 27.6602 21.5597 27.5832C22.371 27.4121 23.0232 27.7343 23.5292 28.3147C24.3017 29.1987 24.3619 30.2239 23.9778 31.2962C23.469 32.7149 22.1417 33.6789 20.7728 33.6261L20.7728 33.6247Z" fill="#E54F00"/>
<path d="M36.243 33.4892C34.5144 32.9146 33.4393 30.9996 33.9052 29.327C34.2478 28.1008 35.3443 27.3778 36.5655 27.576C38.6395 28.9834 38.8373 31.8608 36.243 33.4892Z" fill="#FFAB80"/>
<path d="M36.243 33.4892C38.8373 31.8608 38.6395 28.982 36.5655 27.576C37.6864 27.6787 38.4561 28.3175 39.028 29.2187C39.5526 30.0457 39.7131 30.9511 39.4336 31.8979C39.0222 33.2896 37.6362 33.9697 36.243 33.4892Z" fill="#E54F00"/>
</svg>
